<?xml version="1.0" encoding="utf-8"?>
<!-- Generator: Adobe Illustrator 16.0.0, SVG Export Plug-In . SVG Version: 6.00 Build 0)  -->
<!DOCTYPE svg PUBLIC "-//W3C//DTD SVG 1.1//EN" "http://www.w3.org/Graphics/SVG/1.1/DTD/svg11.dtd">
<svg version="1.1" id="Layer_1" xmlns="http://www.w3.org/2000/svg" xmlns:xlink="http://www.w3.org/1999/xlink" x="0px" y="0px"
	 width="24px" height="24px" viewBox="0 0 24 24" enable-background="new 0 0 24 24" xml:space="preserve">
<g>
	<g>
		<path fill="#FFFFFF" d="M1.274,9.763c0.114,0.081,0.25,0.125,0.389,0.125c0.036,0,0.072-0.003,0.108-0.009L8.426,8.79l1.555,9.391
			H7.435l-4.313-5.432c-0.114-0.145-0.324-0.168-0.469-0.055s-0.169,0.322-0.055,0.466l4.412,5.556
			c0.006,0.008,0.015,0.01,0.021,0.017c0.009,0.011,0.019,0.015,0.029,0.023c0.061,0.052,0.132,0.086,0.208,0.086
			c0.001,0,0.002,0.002,0.004,0.002h13.866c0.186,0,0.334-0.148,0.334-0.332c0-0.183-0.148-0.331-0.334-0.331h-9.806L9.742,8.575
			l6.654-1.089c0.363-0.06,0.609-0.401,0.549-0.762C16.301,2.828,12.952,0,8.984,0C8.544,0,8.1,0.036,7.663,0.107
			c-4.395,0.72-7.382,4.858-6.658,9.225C1.034,9.506,1.13,9.661,1.274,9.763z M7.879,1.417c0.366-0.06,0.737-0.09,1.104-0.09
			c3.087,0,5.725,2.051,6.504,4.963L2.246,8.457C2.024,5.063,4.434,1.981,7.879,1.417z M23.334,19.655H6.462l-5.271-6.638
			c-0.229-0.286-0.647-0.336-0.938-0.11c-0.289,0.229-0.339,0.645-0.11,0.933l4.619,5.815H0.667C0.297,19.655,0,19.952,0,20.317
			c0,0.367,0.298,0.664,0.667,0.664h1.912v2.354C2.579,23.703,2.876,24,3.246,24s0.668-0.297,0.668-0.664v-2.354h2.221
			c0.001,0,0.003,0.001,0.004,0.001c0.002,0,0.004-0.001,0.006-0.001h13.943v2.354c0,0.367,0.297,0.664,0.666,0.664
			s0.668-0.297,0.668-0.664v-2.354h1.912c0.369,0,0.666-0.297,0.666-0.664C24,19.952,23.703,19.655,23.334,19.655z"/>
	</g>
</g>
</svg>
