<?xml version="1.0" encoding="utf-8"?>
<!-- Generator: Adobe Illustrator 16.0.0, SVG Export Plug-In . SVG Version: 6.00 Build 0)  -->
<!DOCTYPE svg PUBLIC "-//W3C//DTD SVG 1.1//EN" "http://www.w3.org/Graphics/SVG/1.1/DTD/svg11.dtd">
<svg version="1.1" id="Layer_1" xmlns="http://www.w3.org/2000/svg" xmlns:xlink="http://www.w3.org/1999/xlink" x="0px" y="0px"
	 width="24px" height="23px" viewBox="0 0 24 23" enable-background="new 0 0 24 23" xml:space="preserve">
<g>
	<g>
		<path fill="#FFFFFF" d="M23.223,20.304H8.72v-1.593c0-0.203-0.166-0.367-0.372-0.367H4.382c-0.206,0-0.373,0.164-0.373,0.367
			v1.593H0.744c-0.206,0-0.372,0.164-0.372,0.368s0.166,0.368,0.372,0.368h3.265v1.591C4.009,22.835,4.176,23,4.382,23h3.966
			c0.206,0,0.372-0.165,0.372-0.369V21.04h14.503c0.206,0,0.372-0.164,0.372-0.368S23.429,20.304,23.223,20.304z M7.975,22.264
			H4.753v-3.185h3.222V22.264z M7.717,13.743c0.116,0,0.233-0.027,0.342-0.082l8.564-4.364c0.248-0.127,0.403-0.379,0.403-0.654
			s-0.155-0.528-0.403-0.654L8.058,3.625C7.826,3.508,7.55,3.517,7.329,3.65C7.107,3.785,6.973,4.022,6.973,4.279v8.728
			c0,0.256,0.135,0.495,0.356,0.629C7.447,13.708,7.582,13.743,7.717,13.743z M8.462,5.486l6.194,3.156l-6.194,3.156V5.486z
			 M23.256,0H0.745C0.333,0,0,0.329,0,0.736v15.814c0,0.406,0.333,0.735,0.745,0.735h22.511c0.412,0,0.744-0.329,0.744-0.735V0.736
			C24,0.329,23.668,0,23.256,0z M22.511,15.813H1.49V1.473h21.021V15.813z"/>
	</g>
</g>
</svg>
