<?xml version="1.0" encoding="utf-8"?>
<!-- Generator: Adobe Illustrator 16.0.0, SVG Export Plug-In . SVG Version: 6.00 Build 0)  -->
<!DOCTYPE svg PUBLIC "-//W3C//DTD SVG 1.1//EN" "http://www.w3.org/Graphics/SVG/1.1/DTD/svg11.dtd">
<svg version="1.1" id="Layer_1" xmlns="http://www.w3.org/2000/svg" xmlns:xlink="http://www.w3.org/1999/xlink" x="0px" y="0px"
	 width="30px" height="30px" viewBox="0 0 30 30" enable-background="new 0 0 30 30" xml:space="preserve">
<path fill-rule="evenodd" clip-rule="evenodd" fill="#D49F2A" d="M15,0c8.284,0,15,6.716,15,15c0,8.285-6.716,15-15,15
	S0,23.285,0,15C0,6.716,6.716,0,15,0z"/>
<path fill="#FFFFFF" d="M18,16.801h-0.641l-0.238-0.241c0.801-0.879,1.277-2.08,1.277-3.36c0-2.879-2.32-5.199-5.199-5.199
	S8,10.32,8,13.199s2.32,5.199,5.199,5.199c1.281,0,2.48-0.477,3.359-1.277l0.242,0.238V18l4,4L22,20.801L18,16.801z M13.199,16.801
	c-2,0-3.598-1.602-3.598-3.602c0-2,1.598-3.597,3.598-3.597s3.602,1.597,3.602,3.597C16.801,15.199,15.199,16.801,13.199,16.801
	L13.199,16.801z M13.199,16.801"/>
</svg>
