<?xml version="1.0" encoding="utf-8"?>
<!-- Generator: Adobe Illustrator 16.0.0, SVG Export Plug-In . SVG Version: 6.00 Build 0)  -->
<!DOCTYPE svg PUBLIC "-//W3C//DTD SVG 1.1//EN" "http://www.w3.org/Graphics/SVG/1.1/DTD/svg11.dtd">
<svg version="1.1" id="Layer_1" xmlns="http://www.w3.org/2000/svg" xmlns:xlink="http://www.w3.org/1999/xlink" x="0px" y="0px"
	 width="29px" height="18px" viewBox="0 0 29 18" enable-background="new 0 0 29 18" xml:space="preserve">
<g>
	<g>
		<path fill="#FFFFFF" d="M28.278,6.541H15.874L9.735,0.218c-0.282-0.291-0.738-0.291-1.021,0L0.211,8.976
			c-0.282,0.291-0.282,0.761,0,1.051c0.141,0.146,0.326,0.219,0.511,0.219s0.37-0.073,0.511-0.219l7.992-8.231l5.84,6.015
			c0.136,0.139,0.319,0.218,0.511,0.218h12.703C28.676,8.028,29,7.696,29,7.285S28.676,6.541,28.278,6.541z M26.181,8.859
			c-0.399,0-0.723,0.333-0.723,0.744v6.91H11.993v-4.988c0-0.411-0.324-0.744-0.723-0.744H7.18c-0.399,0-0.722,0.333-0.722,0.744
			v4.988H4.258v-6.91c0-0.411-0.323-0.744-0.722-0.744c-0.399,0-0.722,0.333-0.722,0.744v7.654C2.814,17.668,3.137,18,3.536,18H7.18
			c0.399,0,0.723-0.332,0.723-0.743v-4.989h2.646v4.989c0,0.411,0.323,0.743,0.722,0.743h14.911c0.399,0,0.722-0.332,0.722-0.743
			V9.603C26.902,9.192,26.58,8.859,26.181,8.859z M17.517,14.973c0.198,0,0.36-0.167,0.36-0.373v-3.075
			c0-0.207-0.162-0.373-0.36-0.373h-4.384c-0.2,0-0.362,0.166-0.362,0.373V14.6c0,0.206,0.162,0.373,0.362,0.373H17.517z
			 M13.494,11.896h3.661v2.334h-3.661V11.896z M24.188,14.973c0.2,0,0.36-0.167,0.36-0.373v-3.075c0-0.207-0.16-0.373-0.36-0.373
			h-4.383c-0.2,0-0.362,0.166-0.362,0.373V14.6c0,0.206,0.162,0.373,0.362,0.373H24.188z M20.165,11.896h3.662v2.334h-3.662V11.896z
			"/>
	</g>
</g>
</svg>
