<?xml version="1.0" encoding="utf-8"?>
<!-- Generator: Adobe Illustrator 16.0.0, SVG Export Plug-In . SVG Version: 6.00 Build 0)  -->
<!DOCTYPE svg PUBLIC "-//W3C//DTD SVG 1.1//EN" "http://www.w3.org/Graphics/SVG/1.1/DTD/svg11.dtd">
<svg version="1.1" id="Layer_1" xmlns="http://www.w3.org/2000/svg" xmlns:xlink="http://www.w3.org/1999/xlink" x="0px" y="0px"
	 width="40px" height="40px" viewBox="0 0 40 40" enable-background="new 0 0 40 40" xml:space="preserve">
<g opacity="0.22">
	<path fill="#FFFFFF" d="M39.361,17.741h-1.391h-0.089v1.814h-3.296v-1.814h-1.391v1.814h-3.385v-1.814H28.42v1.814v1.375v3.348
		h-3.49v-1.904h-2.117v17.443h1.248h0.869h3.49h1.391h3.385h1.391h3.296h0.089h0.971h0.42H40V17.741H39.361z M28.422,38.441h-3.49
		v-3.348h3.49V38.441z M28.422,33.721h-3.49v-3.348h3.49V33.721z M28.422,28.999h-3.49v-3.347h3.49V28.999z M33.195,38.441h-3.385
		v-3.348h3.385V38.441z M33.195,33.721h-3.385v-3.348h3.385V33.721z M33.195,28.999h-3.385v-3.347h3.385V28.999z M33.195,24.275
		h-3.385v-3.348h3.385V24.275z M37.883,38.441h-3.296v-3.348h3.296V38.441z M37.883,33.721h-3.296v-3.348h3.296V33.721z
		 M37.883,28.999h-3.296v-3.347h3.296V28.999z M37.883,24.275h-3.296v-3.348h3.296V24.275z M10.828,35.555V6.333h19.186V5.245
		c0-0.459-0.38-0.834-0.844-0.834h-5.165L10.828,0.532V0H8.181v0.842L2.219,4.411H0.844C0.38,4.411,0,4.785,0,5.245v1.088h8.181
		v29.222H7.29l-3.068,1.475V40h3.959h2.647h3.958v-2.971l-3.068-1.475H10.828L10.828,35.555z M10.828,1.086l11.295,3.325H12.121
		v-1.11h-1.293V1.086z M8.181,3.301H6.888v1.11H3.256l4.925-2.949V3.301z M4.688,6.925H0v3.008h4.688V6.925z M26.941,6.765v3.777
		l-1.892,1.037v2.768h4.062V11.58l-1.893-1.037V6.765H26.941z M28.074,11.314h-1.986l0.993-0.544L28.074,11.314z"/>
</g>
</svg>
