<?xml version="1.0" encoding="utf-8"?>
<!-- Generator: Adobe Illustrator 16.0.0, SVG Export Plug-In . SVG Version: 6.00 Build 0)  -->
<!DOCTYPE svg PUBLIC "-//W3C//DTD SVG 1.1//EN" "http://www.w3.org/Graphics/SVG/1.1/DTD/svg11.dtd">
<svg version="1.1" id="Layer_1" xmlns="http://www.w3.org/2000/svg" xmlns:xlink="http://www.w3.org/1999/xlink" x="0px" y="0px"
	 width="130px" height="130px" viewBox="0 0 130 130" enable-background="new 0 0 130 130" xml:space="preserve">
<path fill-rule="evenodd" clip-rule="evenodd" fill="#FFFFFF" d="M65,0c35.898,0,65,29.102,65,65s-29.102,65-65,65S0,100.898,0,65
	S29.102,0,65,0z"/>
<path fill-rule="evenodd" clip-rule="evenodd" fill="none" stroke="#D3A02A" stroke-miterlimit="10" d="M65.5,9.5
	c30.375,0,55,24.624,55,55c0,30.375-24.625,55-55,55c-30.376,0-55-24.625-55-55C10.5,34.124,35.124,9.5,65.5,9.5z"/>
<path fill-rule="evenodd" clip-rule="evenodd" fill="#D3A02A" d="M65.5,19.5c24.853,0,45,20.147,45,45s-20.147,45-45,45
	c-24.853,0-45-20.147-45-45S40.647,19.5,65.5,19.5z"/>
<g>
	<g>
		<path fill="#FFFFFF" d="M76.105,58.191h-2.609l-0.123,0.264c-0.187,0.38-0.402,0.747-0.646,1.096l-0.236,0.397h0.549v8.059H67.92
			v-0.32l-1.098,1.859h0.049v5.385h-2.406v-5.385h0.09l-1.14-1.93v0.391h-5.119v-8.059h0.589l-0.248-0.418
			c-0.231-0.329-0.448-0.696-0.63-1.069l-0.126-0.271h-3.002c-2.415,0-4.38,1.943-4.38,4.333V78.18c0,2.39,1.965,4.334,4.38,4.334
			h21.227c2.416,0,4.381-1.944,4.381-4.334V62.524C80.486,60.135,78.521,58.191,76.105,58.191z M57.247,80.755h-2.368
			c-1.423,0-2.58-1.154-2.58-2.575v-1.747h4.948V80.755z M57.247,74.932h-4.948v-5.385h4.948V74.932z M57.247,68.008h-4.948v-5.484
			c0-1.419,1.157-2.575,2.58-2.575h2.368V68.008z M63.415,80.755h-5.119v-4.322h5.119V80.755z M63.415,74.932h-5.119v-5.385h5.119
			V74.932z M66.871,80.755h-2.406v-4.322h2.406V80.755z M73.039,80.755H67.92v-4.322h5.119V80.755z M73.039,74.932H67.92v-5.385
			h5.119V74.932z M78.688,78.18c0,1.421-1.158,2.575-2.582,2.575h-2.017v-4.322h4.599V78.18z M78.688,74.932h-4.599v-5.385h4.599
			V74.932z M78.688,68.008h-4.599v-8.059h2.017c1.424,0,2.582,1.155,2.582,2.575V68.008z M58.681,58.361
			c0.17,0.347,0.368,0.679,0.587,0.994l6.42,10.865l6.421-10.865c0.219-0.315,0.416-0.647,0.586-0.994l0.137-0.297
			c0.4-0.916,0.623-1.923,0.623-2.982c0-4.191-3.477-7.59-7.767-7.59s-7.767,3.398-7.767,7.59c0,1.059,0.222,2.066,0.623,2.982
			L58.681,58.361z M65.688,50.379c2.589,0,4.688,2.051,4.688,4.582c0,2.529-2.099,4.581-4.688,4.581
			c-2.589,0-4.688-2.052-4.688-4.581C61,52.431,63.099,50.379,65.688,50.379z M64.648,72.385h2.08v-2.033h-2.08V72.385z"/>
	</g>
</g>
</svg>
