<?xml version="1.0" encoding="utf-8"?>
<!-- Generator: Adobe Illustrator 16.0.0, SVG Export Plug-In . SVG Version: 6.00 Build 0)  -->
<!DOCTYPE svg PUBLIC "-//W3C//DTD SVG 1.1//EN" "http://www.w3.org/Graphics/SVG/1.1/DTD/svg11.dtd">
<svg version="1.1" id="Layer_1" xmlns="http://www.w3.org/2000/svg" xmlns:xlink="http://www.w3.org/1999/xlink" x="0px" y="0px"
	 width="46px" height="42px" viewBox="0 0 46 42" enable-background="new 0 0 46 42" xml:space="preserve">
<g opacity="0.22">
	<g>
		<path fill="#FFFFFF" d="M32.522,17.771c-3.866,0.507-5.961,1.348-7.456,2.343c0.446,0.34,0.84,0.697,1.193,1.071
			c1.131,1.2,2.425,3.003,3.232,5.23c1.872-1.32,3.507-2.102,4.447-2.474c0,0-2.738,1.886-3.493,2.52
			c-0.102,0.087-0.365,0.288-0.737,0.595c0.192,0.629,0.347,1.283,0.445,1.969c0.375,2.636,0.486,6.472,0.206,9.416
			c2.235-0.787,8.145-3.64,8.102-11.273c-0.043-7.285,2.124-9.256,2.124-9.256C38.715,17.821,34.168,17.553,32.522,17.771z
			 M25.279,22.802c-1.621-1.717-4.147-3.419-9.701-4.602c-1.682-0.361-5.866-0.684-7.809-0.747c0,0,2.173,2.569,1.565,10.098
			c-0.678,8.378,5.8,12.05,7.673,12.799c1.633,0.652,6.892,1.948,9.271,1.588c-2.458-7.874-8.065-12.64-8.64-13.205
			c-0.73-0.721-3.417-2.893-3.417-2.893c2.51,1.227,9.87,5.839,13.005,15.719c0.548-0.488,1.104-1.547,1.241-2.123
			c0.571-2.465,0.532-7.068,0.121-9.967C28.171,26.551,26.595,24.197,25.279,22.802z M44.991,14.443L37.471,9.35V4.312h-5.437V5.67
			l-7.769-5.262c-0.359-0.243-0.749-0.374-1.118-0.402c-0.014-0.001-0.029-0.002-0.044-0.003C23.068,0.002,23.034,0,23,0
			c-0.035,0-0.069,0.002-0.104,0.003c-0.015,0-0.03,0.002-0.044,0.003c-0.369,0.028-0.759,0.159-1.118,0.402L1.009,14.443
			c-0.904,0.612-1.268,1.689-0.813,2.405c0.455,0.718,1.558,0.802,2.461,0.191L23,3.262l20.342,13.777
			c0.902,0.611,2.006,0.527,2.461-0.191C46.259,16.133,45.895,15.056,44.991,14.443z"/>
	</g>
</g>
</svg>
