<?xml version="1.0" encoding="utf-8"?>
<!-- Generator: Adobe Illustrator 16.0.0, SVG Export Plug-In . SVG Version: 6.00 Build 0)  -->
<!DOCTYPE svg PUBLIC "-//W3C//DTD SVG 1.1//EN" "http://www.w3.org/Graphics/SVG/1.1/DTD/svg11.dtd">
<svg version="1.1" id="Layer_1" xmlns="http://www.w3.org/2000/svg" xmlns:xlink="http://www.w3.org/1999/xlink" x="0px" y="0px"
	 width="19px" height="17px" viewBox="0 0 19 17" enable-background="new 0 0 19 17" xml:space="preserve">
<g>
	<g>
		<path fill="#5D4721" d="M2.584,9.141v7.426c0,0-0.017,0.428,0.397,0.428c0.517,0,4.789-0.006,4.789-0.006l0.008-3.961
			c0,0-0.068-0.652,0.561-0.652h1.986c0.742,0,0.696,0.652,0.696,0.652l-0.009,3.947c0,0,4.052,0,4.688,0
			c0.527,0,0.503-0.533,0.503-0.533V9.141L9.598,3.21L2.584,9.141z M9.656,0.006L0,8.589c0,0,0.597,1.108,1.895,0l7.762-6.627
			l7.275,6.586c1.504,1.094,2.068,0,2.068,0L9.656,0.006z M16.756,5.833V1.946h-1.871l0.008,2.292L16.756,5.833z"/>
	</g>
</g>
</svg>
