<?xml version="1.0" encoding="utf-8"?>
<!-- Generator: Adobe Illustrator 16.0.0, SVG Export Plug-In . SVG Version: 6.00 Build 0)  -->
<!DOCTYPE svg PUBLIC "-//W3C//DTD SVG 1.1//EN" "http://www.w3.org/Graphics/SVG/1.1/DTD/svg11.dtd">
<svg version="1.1" id="Layer_1" xmlns="http://www.w3.org/2000/svg" xmlns:xlink="http://www.w3.org/1999/xlink" x="0px" y="0px"
	 width="130px" height="130px" viewBox="0 0 130 130" enable-background="new 0 0 130 130" xml:space="preserve">
<path fill-rule="evenodd" clip-rule="evenodd" fill="#FFFFFF" d="M65,0c35.898,0,65,29.102,65,65s-29.102,65-65,65S0,100.898,0,65
	S29.102,0,65,0z"/>
<path fill-rule="evenodd" clip-rule="evenodd" fill="none" stroke="#D3A02A" stroke-miterlimit="10" d="M65.5,9.5
	c30.375,0,55,24.624,55,55c0,30.375-24.625,55-55,55c-30.376,0-55-24.625-55-55C10.5,34.124,35.124,9.5,65.5,9.5z"/>
<path fill-rule="evenodd" clip-rule="evenodd" fill="#D3A02A" d="M65.5,19.5c24.853,0,45,20.147,45,45s-20.147,45-45,45
	c-24.853,0-45-20.147-45-45S40.647,19.5,65.5,19.5z"/>
<g>
	<g>
		<path fill="#FFFFFF" d="M70.262,54.111H54.697c-0.557,0-1.009,0.446-1.009,0.997v6.827c0,0.551,0.452,0.996,1.009,0.996h15.565
			c0.558,0,1.01-0.445,1.01-0.996v-6.827C71.271,54.558,70.819,54.111,70.262,54.111z M69.252,60.939H55.707v-4.835h13.545V60.939z
			 M53.832,67.198h17.295v-1.992H53.832V67.198z M53.832,71.465h17.295v-1.992H53.832V71.465z M53.832,75.731h8.647v-1.992h-8.647
			V75.731z M78.908,56.672h-2.449v-4.124c0-1.96-1.615-3.556-3.603-3.556H52.103c-1.987,0-3.604,1.596-3.604,3.556v23.895
			c0,1.961,1.616,3.557,3.604,3.557h25.941v-0.022c0.142,0.015,0.286,0.022,0.433,0.022c2.226,0,4.036-1.787,4.036-3.983V60.229
			C82.513,58.268,80.896,56.672,78.908,56.672z M52.103,78.007c-0.874,0-1.584-0.702-1.584-1.564V52.548
			c0-0.861,0.711-1.563,1.584-1.563h20.754c0.873,0,1.584,0.702,1.584,1.563v23.468c0,0.725,0.197,1.405,0.542,1.991H52.103z
			 M80.494,76.016c0,1.098-0.906,1.991-2.018,1.991c-1.112,0-2.018-0.894-2.018-1.991V58.664h2.449c0.875,0,1.586,0.702,1.586,1.564
			V76.016z"/>
	</g>
</g>
</svg>
