<?xml version="1.0" encoding="utf-8"?>
<!-- Generator: Adobe Illustrator 16.0.0, SVG Export Plug-In . SVG Version: 6.00 Build 0)  -->
<!DOCTYPE svg PUBLIC "-//W3C//DTD SVG 1.1//EN" "http://www.w3.org/Graphics/SVG/1.1/DTD/svg11.dtd">
<svg version="1.1" id="Layer_1" xmlns="http://www.w3.org/2000/svg" xmlns:xlink="http://www.w3.org/1999/xlink" x="0px" y="0px"
	 width="130px" height="130px" viewBox="0 0 130 130" enable-background="new 0 0 130 130" xml:space="preserve">
<path fill-rule="evenodd" clip-rule="evenodd" fill="#FFFFFF" d="M65,0c35.898,0,65,29.102,65,65s-29.102,65-65,65S0,100.898,0,65
	S29.102,0,65,0z"/>
<path fill-rule="evenodd" clip-rule="evenodd" fill="none" stroke="#D3A02A" stroke-miterlimit="10" d="M65.5,9.5
	c30.375,0,55,24.624,55,55c0,30.375-24.625,55-55,55c-30.376,0-55-24.625-55-55C10.5,34.124,35.124,9.5,65.5,9.5z"/>
<path fill-rule="evenodd" clip-rule="evenodd" fill="#D3A02A" d="M65.5,19.5c24.853,0,45,20.147,45,45s-20.147,45-45,45
	c-24.853,0-45-20.147-45-45S40.647,19.5,65.5,19.5z"/>
<g>
	<g>
		<path fill="#FFFFFF" d="M88.307,60.899H67.765L57.599,50.353c-0.467-0.484-1.224-0.484-1.691,0L41.826,64.962
			c-0.467,0.484-0.467,1.27,0,1.754c0.234,0.243,0.54,0.364,0.846,0.364c0.306,0,0.612-0.121,0.846-0.364l13.236-13.731l9.67,10.033
			c0.225,0.232,0.528,0.363,0.846,0.363h21.037c0.661,0,1.196-0.555,1.196-1.24C89.503,61.454,88.968,60.899,88.307,60.899z
			 M84.833,64.767c-0.661,0-1.196,0.555-1.196,1.241v11.525h-22.3v-8.321c0-0.686-0.535-1.241-1.196-1.241h-6.774
			c-0.661,0-1.196,0.556-1.196,1.241v8.321h-3.642V66.008c0-0.686-0.535-1.241-1.196-1.241s-1.196,0.555-1.196,1.241v12.766
			c0,0.687,0.535,1.241,1.196,1.241h6.034c0.661,0,1.196-0.555,1.196-1.241v-8.32h4.382v8.32c0,0.687,0.535,1.241,1.196,1.241
			h24.692c0.661,0,1.196-0.555,1.196-1.241V66.008C86.029,65.322,85.494,64.767,84.833,64.767z M70.484,74.963
			c0.33,0,0.598-0.277,0.598-0.619v-5.133c0-0.343-0.268-0.62-0.598-0.62h-7.26c-0.331,0-0.598,0.277-0.598,0.62v5.133
			c0,0.342,0.268,0.619,0.598,0.619H70.484z M63.822,69.831h6.063v3.892h-6.063V69.831z M81.532,74.963
			c0.331,0,0.599-0.277,0.599-0.619v-5.133c0-0.343-0.268-0.62-0.599-0.62h-7.26c-0.33,0-0.598,0.277-0.598,0.62v5.133
			c0,0.342,0.268,0.619,0.598,0.619H81.532z M74.871,69.831h6.063v3.892h-6.063V69.831z"/>
	</g>
</g>
</svg>
