<?xml version="1.0" encoding="utf-8"?>
<!-- Generator: Adobe Illustrator 16.0.0, SVG Export Plug-In . SVG Version: 6.00 Build 0)  -->
<!DOCTYPE svg PUBLIC "-//W3C//DTD SVG 1.1//EN" "http://www.w3.org/Graphics/SVG/1.1/DTD/svg11.dtd">
<svg version="1.1" id="Layer_1" xmlns="http://www.w3.org/2000/svg" xmlns:xlink="http://www.w3.org/1999/xlink" x="0px" y="0px"
	 width="30px" height="30px" viewBox="0 0 30 30" enable-background="new 0 0 30 30" xml:space="preserve">
<g>
	<path fill="#E0E0E0" d="M15,1c7.72,0,14,6.28,14,14s-6.28,14-14,14S1,22.72,1,15S7.28,1,15,1 M15,0C6.716,0,0,6.716,0,15
		c0,8.285,6.716,15,15,15s15-6.715,15-15C30,6.716,23.284,0,15,0L15,0z"/>
</g>
<g>
	<g>
		<path fill="#77777A" d="M22.842,11.871c0,0-0.156-1.078-0.636-1.554c-0.608-0.624-1.291-0.626-1.604-0.663
			c-2.239-0.158-5.599-0.158-5.599-0.158h-0.008c0,0-3.359,0-5.599,0.158c-0.313,0.037-0.995,0.039-1.604,0.663
			c-0.479,0.476-0.636,1.554-0.636,1.554s-0.16,1.267-0.16,2.532v1.188c0,1.267,0.16,2.534,0.16,2.534s0.156,1.078,0.636,1.553
			c0.608,0.623,1.408,0.604,1.765,0.669c1.28,0.12,5.441,0.157,5.441,0.157s3.363-0.006,5.603-0.163
			c0.313-0.037,0.995-0.04,1.604-0.663c0.479-0.475,0.636-1.553,0.636-1.553s0.16-1.268,0.16-2.534v-1.188
			C23.002,13.138,22.842,11.871,22.842,11.871z M13.399,17.141v-4.281l4.182,2.063L13.399,17.141z"/>
	</g>
</g>
</svg>
