<?xml version="1.0" encoding="utf-8"?>
<!-- Generator: Adobe Illustrator 16.0.0, SVG Export Plug-In . SVG Version: 6.00 Build 0)  -->
<!DOCTYPE svg PUBLIC "-//W3C//DTD SVG 1.1//EN" "http://www.w3.org/Graphics/SVG/1.1/DTD/svg11.dtd">
<svg version="1.1" id="Layer_1" xmlns="http://www.w3.org/2000/svg" xmlns:xlink="http://www.w3.org/1999/xlink" x="0px" y="0px"
	 width="30px" height="30px" viewBox="0 0 30 30" enable-background="new 0 0 30 30" xml:space="preserve">
<path fill-rule="evenodd" clip-rule="evenodd" fill="#5D4721" d="M15,0c8.284,0,15,6.716,15,15c0,8.285-6.716,15-15,15
	S0,23.285,0,15C0,6.716,6.716,0,15,0z"/>
<g>
	<g>
		<path fill="#FFFFFF" d="M20.313,19.628L15.701,15l4.607-4.625c0.194-0.195,0.194-0.51,0-0.705c-0.193-0.195-0.508-0.195-0.702,0
			l-4.607,4.625l-4.61-4.627c-0.193-0.195-0.508-0.195-0.701,0c-0.194,0.194-0.194,0.51,0,0.705L14.297,15l-4.61,4.628
			c-0.194,0.194-0.194,0.51,0,0.705c0.097,0.098,0.224,0.146,0.351,0.146s0.254-0.048,0.351-0.146l4.61-4.629l4.611,4.629
			c0.097,0.098,0.225,0.146,0.352,0.146s0.254-0.048,0.351-0.146C20.507,20.138,20.507,19.822,20.313,19.628z"/>
	</g>
</g>
</svg>
