<?xml version="1.0" encoding="utf-8"?>
<!-- Generator: Adobe Illustrator 16.0.0, SVG Export Plug-In . SVG Version: 6.00 Build 0)  -->
<!DOCTYPE svg PUBLIC "-//W3C//DTD SVG 1.1//EN" "http://www.w3.org/Graphics/SVG/1.1/DTD/svg11.dtd">
<svg version="1.1" id="Layer_1" xmlns="http://www.w3.org/2000/svg" xmlns:xlink="http://www.w3.org/1999/xlink" x="0px" y="0px"
	 width="41px" height="41px" viewBox="0 0 41 41" enable-background="new 0 0 41 41" xml:space="preserve">
<g opacity="0.22">
	<g>
		<path fill="#FFFFFF" d="M40.773,35.415c-0.007-0.013-0.014-0.024-0.021-0.036c-0.016-0.026-0.032-0.051-0.05-0.076
			c-0.015-0.02-0.029-0.04-0.045-0.06c-0.014-0.019-0.027-0.036-0.042-0.054c-0.033-0.039-0.066-0.077-0.104-0.113l-2.841-2.804
			l-5.186-5.118c-0.325-0.322-0.753-0.483-1.181-0.483c-0.427,0-0.854,0.161-1.181,0.483l-0.111,0.109l-3.069-3.029l4.723-4.663
			c1.223-1.207,0.919-2.733-0.675-3.394L7.814,6.581C7.42,6.418,7.078,6.34,6.794,6.34c-0.86,0-1.166,0.717-0.663,1.9l9.724,22.879
			c0.392,0.922,1.085,1.407,1.839,1.407c0.531,0,1.092-0.241,1.598-0.739l4.724-4.664l3.068,3.029l-0.111,0.109
			c-0.651,0.645-0.652,1.689,0,2.333L35,40.518C35.326,40.84,35.754,41,36.182,41c0.263,0,0.526-0.062,0.767-0.184
			c0.017-0.009,0.032-0.019,0.049-0.027c0.027-0.016,0.054-0.031,0.08-0.047c0.018-0.011,0.034-0.021,0.051-0.035
			c0.027-0.018,0.054-0.037,0.08-0.057c0.014-0.012,0.027-0.021,0.04-0.031c0.039-0.033,0.077-0.066,0.114-0.102l3.149-3.109
			c0.037-0.035,0.07-0.074,0.104-0.111c0.015-0.019,0.028-0.037,0.042-0.055c0.016-0.021,0.03-0.04,0.045-0.061
			c0.018-0.025,0.034-0.049,0.05-0.076c0.008-0.012,0.015-0.023,0.021-0.036c0.019-0.03,0.036-0.062,0.053-0.095
			C41.074,36.483,41.057,35.895,40.773,35.415z M27.92,29.328l-7.434-7.338c-0.174-0.171-0.26-0.396-0.26-0.619
			c0-0.226,0.086-0.45,0.26-0.621c0.064-0.064,0.138-0.117,0.215-0.157c0.025-0.013,0.053-0.025,0.079-0.036
			c0.106-0.043,0.221-0.064,0.334-0.064c0.106,0,0.213,0.02,0.313,0.057c0.115,0.043,0.223,0.109,0.315,0.201l1.493,1.473
			l5.941,5.865L27.92,29.328z M40.826,40.816v-1.654l-1.675,1.654H40.826z M3.154,22.223h5.563v-3.153H3.154V3.153h18.862v7.725
			l3.155,1.306v-9.03h12.5v15.916h-1.604v3.153h1.604v7.984l3.155,3.115V0H0v40.816h26.67v-3.154H3.154V22.223z"/>
	</g>
</g>
</svg>
