<?xml version="1.0" encoding="utf-8"?>
<!-- Generator: Adobe Illustrator 16.0.0, SVG Export Plug-In . SVG Version: 6.00 Build 0)  -->
<!DOCTYPE svg PUBLIC "-//W3C//DTD SVG 1.1//EN" "http://www.w3.org/Graphics/SVG/1.1/DTD/svg11.dtd">
<svg version="1.1" id="Layer_1" xmlns="http://www.w3.org/2000/svg" xmlns:xlink="http://www.w3.org/1999/xlink" x="0px" y="0px"
	 width="16px" height="12px" viewBox="0 0 16 12" enable-background="new 0 0 16 12" xml:space="preserve">
<g>
	<g>
		<path fill="#2A2A2A" d="M15.954,11.752c0.003-0.007,0.009-0.012,0.012-0.019c0.002-0.004,0.001-0.009,0.003-0.014
			c0.019-0.049,0.03-0.101,0.03-0.153c0-0.001,0.001-0.002,0.001-0.003V0.436c0-0.025-0.01-0.046-0.014-0.07
			c-0.005-0.028-0.007-0.057-0.018-0.084c-0.012-0.034-0.032-0.062-0.053-0.091c-0.011-0.015-0.015-0.032-0.027-0.046
			c-0.002-0.002-0.006-0.003-0.008-0.006c-0.026-0.028-0.059-0.048-0.092-0.068c-0.015-0.009-0.027-0.023-0.044-0.03
			c-0.027-0.013-0.059-0.016-0.088-0.022c-0.025-0.005-0.05-0.015-0.075-0.016C15.577,0.002,15.574,0,15.569,0H0.432
			C0.427,0,0.422,0.003,0.417,0.003c-0.025,0.001-0.049,0.01-0.074,0.015C0.313,0.024,0.283,0.027,0.255,0.04
			C0.234,0.05,0.217,0.067,0.197,0.08C0.17,0.098,0.143,0.113,0.122,0.136C0.118,0.14,0.113,0.141,0.11,0.145
			c-0.018,0.02-0.025,0.044-0.039,0.066C0.058,0.233,0.042,0.253,0.032,0.278c-0.014,0.036-0.018,0.073-0.021,0.11
			c-0.002,0.017-0.01,0.031-0.01,0.048v0.022c0,0.001,0,0.001,0,0.002v11.104v0.001c0,0.089,0.034,0.174,0.087,0.249
			c0.014,0.02,0.024,0.043,0.041,0.06c0.001,0.001,0.001,0.003,0.002,0.004c0.019,0.019,0.042,0.027,0.063,0.041
			c0.024,0.018,0.046,0.037,0.074,0.049C0.321,11.988,0.375,12,0.431,12c0,0,0,0,0,0l0,0h15.138c0.055,0,0.109-0.012,0.161-0.033
			c0.039-0.016,0.071-0.041,0.104-0.067c0.011-0.009,0.023-0.013,0.034-0.022c0.001-0.001,0.001-0.001,0.001-0.002
			C15.905,11.84,15.932,11.798,15.954,11.752z M9.577,5.293C9.574,5.295,9.571,5.296,9.569,5.298
			C9.567,5.299,9.567,5.301,9.566,5.303L8,6.725L6.433,5.301C6.432,5.3,6.432,5.299,6.431,5.298
			C6.429,5.296,6.427,5.296,6.426,5.295L1.554,0.871h12.891L9.577,5.293z M5.51,5.634l-4.647,4.853V1.414L5.51,5.634z M6.151,6.216
			l1.561,1.417C7.794,7.707,7.897,7.745,8,7.745c0.103,0,0.206-0.038,0.288-0.111l1.561-1.417l4.704,4.912H1.448L6.151,6.216z
			 M10.49,5.634l4.647-4.22v9.074L10.49,5.634z"/>
	</g>
</g>
</svg>
