<?xml version="1.0" encoding="utf-8"?>
<!-- Generator: Adobe Illustrator 16.0.0, SVG Export Plug-In . SVG Version: 6.00 Build 0)  -->
<!DOCTYPE svg PUBLIC "-//W3C//DTD SVG 1.1//EN" "http://www.w3.org/Graphics/SVG/1.1/DTD/svg11.dtd">
<svg version="1.1" id="Layer_1" xmlns="http://www.w3.org/2000/svg" xmlns:xlink="http://www.w3.org/1999/xlink" x="0px" y="0px"
	 width="24px" height="22px" viewBox="0 0 24 22" enable-background="new 0 0 24 22" xml:space="preserve">
<g>
	<g>
		<path fill="#FFFFFF" d="M15.356,3.633H4.373c-0.393,0-0.711,0.316-0.711,0.707v4.844c0,0.391,0.318,0.707,0.711,0.707h10.983
			c0.393,0,0.712-0.315,0.712-0.707V4.34C16.068,3.949,15.749,3.633,15.356,3.633z M14.644,8.477H5.086v-3.43h9.558V8.477z
			 M3.763,12.918h12.203v-1.414H3.763V12.918z M3.763,15.945h12.203v-1.414H3.763V15.945z M3.763,18.972h6.101v-1.414H3.763V18.972z
			 M21.457,5.449h-1.728V2.523C19.729,1.132,18.588,0,17.187,0H2.543C1.141,0,0,1.132,0,2.523v16.953C0,20.867,1.141,22,2.543,22
			h18.304v-0.017C20.947,21.994,21.049,22,21.152,22C22.723,22,24,20.731,24,19.173v-11.2C24,6.581,22.858,5.449,21.457,5.449z
			 M2.543,20.585c-0.616,0-1.118-0.496-1.118-1.108V2.523c0-0.612,0.501-1.109,1.118-1.109h14.644c0.617,0,1.117,0.498,1.117,1.109
			v16.649c0,0.516,0.14,0.998,0.383,1.412H2.543z M22.576,19.173c0,0.779-0.64,1.412-1.424,1.412s-1.423-0.633-1.423-1.412V6.862
			h1.728c0.617,0,1.119,0.498,1.119,1.11V19.173z"/>
	</g>
</g>
</svg>
