<?xml version="1.0" encoding="utf-8"?>
<!-- Generator: Adobe Illustrator 16.0.0, SVG Export Plug-In . SVG Version: 6.00 Build 0)  -->
<!DOCTYPE svg PUBLIC "-//W3C//DTD SVG 1.1//EN" "http://www.w3.org/Graphics/SVG/1.1/DTD/svg11.dtd">
<svg version="1.1" id="Layer_1" xmlns="http://www.w3.org/2000/svg" xmlns:xlink="http://www.w3.org/1999/xlink" x="0px" y="0px"
	 width="27px" height="14px" viewBox="0 0 27 14" enable-background="new 0 0 27 14" xml:space="preserve">
<g>
	<g>
		<path fill="#0e76bc" d="M25.417,0H8.95C8.077,0,7.367,0.712,7.367,1.588v1.653h-7.05C0.142,3.241,0,3.383,0,3.558
			c0,0.176,0.142,0.317,0.316,0.317h7.05v2.807H2.216C2.041,6.683,1.899,6.825,1.899,7s0.142,0.317,0.317,0.317h5.151v2.807H4.116
			c-0.176,0-0.316,0.142-0.316,0.317c0,0.175,0.141,0.317,0.316,0.317h3.251v1.653C7.367,13.288,8.077,14,8.95,14h16.467
			C26.291,14,27,13.288,27,12.413V1.588C27,0.712,26.291,0,25.417,0z M26.367,12.413c0,0.526-0.426,0.953-0.95,0.953H8.95
			c-0.523,0-0.95-0.427-0.95-0.953V1.588c0-0.525,0.427-0.953,0.95-0.953h16.467c0.524,0,0.95,0.428,0.95,0.953V12.413z
			 M25.65,0.995l-8.467,7.356L8.717,0.995C8.585,0.879,8.385,0.893,8.271,1.027C8.156,1.159,8.17,1.359,8.303,1.474l6.201,5.388
			l-3.616,3.402c-0.128,0.12-0.134,0.321-0.014,0.449c0.062,0.067,0.146,0.101,0.23,0.101c0.078,0,0.155-0.029,0.216-0.086
			l3.645-3.428c0.008-0.007,0.005-0.019,0.012-0.026l2,1.738c0.06,0.052,0.133,0.077,0.207,0.077c0.073,0,0.147-0.025,0.207-0.077
			l2.001-1.739c0.007,0.008,0.005,0.021,0.013,0.028l3.644,3.428c0.061,0.057,0.139,0.086,0.216,0.086
			c0.084,0,0.169-0.033,0.23-0.101c0.12-0.128,0.114-0.329-0.014-0.449l-3.616-3.402l6.201-5.388
			c0.133-0.115,0.146-0.315,0.032-0.447C25.983,0.893,25.784,0.879,25.65,0.995z"/>
	</g>
</g>
</svg>
