<?xml version="1.0" encoding="utf-8"?>
<!-- Generator: Adobe Illustrator 16.0.0, SVG Export Plug-In . SVG Version: 6.00 Build 0)  -->
<!DOCTYPE svg PUBLIC "-//W3C//DTD SVG 1.1//EN" "http://www.w3.org/Graphics/SVG/1.1/DTD/svg11.dtd">
<svg version="1.1" id="Layer_1" xmlns="http://www.w3.org/2000/svg" xmlns:xlink="http://www.w3.org/1999/xlink" x="0px" y="0px"
	 width="130px" height="130px" viewBox="0 0 130 130" enable-background="new 0 0 130 130" xml:space="preserve">
<path fill-rule="evenodd" clip-rule="evenodd" fill="#FFFFFF" d="M65,0c35.898,0,65,29.102,65,65s-29.102,65-65,65S0,100.898,0,65
	S29.102,0,65,0z"/>
<path fill-rule="evenodd" clip-rule="evenodd" fill="none" stroke="#D3A02A" stroke-miterlimit="10" d="M65.5,9.5
	c30.375,0,55,24.624,55,55c0,30.375-24.625,55-55,55c-30.376,0-55-24.625-55-55C10.5,34.124,35.124,9.5,65.5,9.5z"/>
<path fill-rule="evenodd" clip-rule="evenodd" fill="#D3A02A" d="M65.5,19.5c24.853,0,45,20.147,45,45s-20.147,45-45,45
	c-24.853,0-45-20.147-45-45S40.647,19.5,65.5,19.5z"/>
<g>
	<g>
		<path fill="#FFFFFF" d="M78.84,58.599h-1.596V49.58c0-0.878-0.717-1.592-1.597-1.592H54.353c-0.88,0-1.597,0.714-1.597,1.592
			v9.019H51.16c-1.468,0-2.66,1.19-2.66,2.653v18.087c0,1.463,1.192,2.652,2.66,2.652h27.68c1.468,0,2.66-1.189,2.66-2.652V61.252
			C81.5,59.789,80.308,58.599,78.84,58.599z M53.82,49.58c0-0.293,0.239-0.53,0.532-0.53h21.295c0.293,0,0.532,0.237,0.532,0.53
			v13.314l-9.919,8.567c-0.684,0.59-1.838,0.59-2.521,0l-9.919-8.566V49.58z M80.437,79.339c0,0.878-0.716,1.592-1.597,1.592H51.16
			c-0.881,0-1.597-0.714-1.597-1.592V61.252c0-0.878,0.716-1.592,1.597-1.592h1.596v2.316l-1.988-1.717
			c-0.223-0.192-0.559-0.168-0.751,0.054c-0.192,0.221-0.168,0.557,0.055,0.748l10.424,9.003l-6.078,5.685
			c-0.216,0.2-0.226,0.536-0.024,0.75c0.104,0.111,0.247,0.168,0.388,0.168c0.131,0,0.261-0.048,0.364-0.144l6.125-5.729
			c0.012-0.011,0.017-0.026,0.027-0.038l1.746,1.508c0.539,0.467,1.248,0.699,1.957,0.699s1.418-0.233,1.957-0.699l1.747-1.509
			c0.011,0.012,0.016,0.027,0.028,0.039l6.123,5.729c0.102,0.096,0.233,0.144,0.364,0.144c0.141,0,0.283-0.057,0.388-0.168
			c0.201-0.214,0.19-0.55-0.024-0.75l-6.077-5.686l10.422-9.002c0.223-0.191,0.246-0.527,0.055-0.748
			c-0.192-0.222-0.528-0.246-0.751-0.054l-1.987,1.716V59.66h1.596c0.881,0,1.597,0.714,1.597,1.592V79.339z M72.183,60.66
			c0-0.294-0.237-0.531-0.532-0.531H58.35c-0.295,0-0.532,0.237-0.532,0.531c0,0.293,0.237,0.53,0.532,0.53H71.65
			C71.945,61.19,72.183,60.953,72.183,60.66z M58.35,55.499H71.65c0.295,0,0.532-0.237,0.532-0.53c0-0.294-0.237-0.531-0.532-0.531
			H58.35c-0.295,0-0.532,0.237-0.532,0.531C57.817,55.262,58.055,55.499,58.35,55.499z"/>
	</g>
</g>
</svg>
