<?xml version="1.0" encoding="utf-8"?>
<!-- Generator: Adobe Illustrator 16.0.0, SVG Export Plug-In . SVG Version: 6.00 Build 0)  -->
<!DOCTYPE svg PUBLIC "-//W3C//DTD SVG 1.1//EN" "http://www.w3.org/Graphics/SVG/1.1/DTD/svg11.dtd">
<svg version="1.1" id="Layer_1" xmlns="http://www.w3.org/2000/svg" xmlns:xlink="http://www.w3.org/1999/xlink" x="0px" y="0px"
	 width="22px" height="31px" viewBox="0 0 22 31" enable-background="new 0 0 22 31" xml:space="preserve">
<g>
	<g>
		<path fill="#FFFFFF" d="M17.695,0H4.304C1.931,0,0,1.896,0,4.228v22.546C0,29.104,1.931,31,4.304,31h13.392
			C20.069,31,22,29.104,22,26.773V4.228C22,1.896,20.069,0,17.695,0z M21.043,26.773c0,1.813-1.502,3.287-3.348,3.287H4.304
			c-1.846,0-3.348-1.475-3.348-3.287V4.228c0-1.813,1.502-3.288,3.348-3.288h13.392c1.846,0,3.348,1.476,3.348,3.288V26.773z
			 M17.217,2.818H4.782c-1.055,0-1.913,0.843-1.913,1.878v17.848c0,1.037,0.858,1.879,1.913,1.879h12.435
			c1.055,0,1.914-0.842,1.914-1.879V4.697C19.131,3.661,18.271,2.818,17.217,2.818z M18.174,22.545c0,0.52-0.429,0.939-0.957,0.939
			H4.782c-0.527,0-0.956-0.42-0.956-0.939V4.697c0-0.518,0.429-0.939,0.956-0.939h12.435c0.528,0,0.957,0.421,0.957,0.939V22.545z
			 M10.999,26.24c-0.579,0-1.05,0.463-1.05,1.031s0.471,1.031,1.05,1.031s1.051-0.463,1.051-1.031S11.578,26.24,10.999,26.24z"/>
	</g>
</g>
</svg>
