<?xml version="1.0" encoding="utf-8"?>
<!-- Generator: Adobe Illustrator 16.0.0, SVG Export Plug-In . SVG Version: 6.00 Build 0)  -->
<!DOCTYPE svg PUBLIC "-//W3C//DTD SVG 1.1//EN" "http://www.w3.org/Graphics/SVG/1.1/DTD/svg11.dtd">
<svg version="1.1" id="Layer_1" xmlns="http://www.w3.org/2000/svg" xmlns:xlink="http://www.w3.org/1999/xlink" x="0px" y="0px"
	 width="37px" height="33px" viewBox="0 0 37 33" enable-background="new 0 0 37 33" xml:space="preserve">
<path opacity="0.1" fill="#FFFFFF" d="M24.184,33C32.526,28.074,37,20.934,37,11.081C37,3.94,34.22,0,29.383,0
	c-3.748,0-6.408,2.587-6.408,6.771c0,4.063,3.144,6.28,6.408,6.28c0.363,0,0.726,0,1.088-0.122c0,7.018-3.022,11.205-9.189,15.268
	L24.184,33z M2.782,33c8.463-4.926,12.938-12.066,12.938-21.919C15.72,3.94,12.938,0,8.102,0C4.354,0,1.693,2.587,1.693,6.771
	c0,4.063,3.023,6.28,6.408,6.28c0.363,0,0.727,0,1.089-0.122c0,7.018-3.145,11.205-9.19,15.268L2.782,33z"/>
</svg>
