<?xml version="1.0" encoding="utf-8"?>
<!-- Generator: Adobe Illustrator 16.0.0, SVG Export Plug-In . SVG Version: 6.00 Build 0)  -->
<!DOCTYPE svg PUBLIC "-//W3C//DTD SVG 1.1//EN" "http://www.w3.org/Graphics/SVG/1.1/DTD/svg11.dtd">
<svg version="1.1" id="Layer_1" xmlns="http://www.w3.org/2000/svg" xmlns:xlink="http://www.w3.org/1999/xlink" x="0px" y="0px"
	 width="19px" height="12px" viewBox="0 0 19 12" enable-background="new 0 0 19 12" xml:space="preserve">
<path fill-rule="evenodd" clip-rule="evenodd" fill="#ffffff" d="M16.889,4.737v-2.21h-1.81v2.21h-2.111v1.895h2.111v2.212h1.81
	V6.632H19V4.737H16.889z M11.33,4.737H5.729v1.895h3.565C9.007,8.424,7.522,9.791,5.729,9.791C3.73,9.791,2.111,8.093,2.111,6
	c0-2.092,1.62-3.79,3.619-3.79c0.856,0,1.639,0.313,2.258,0.833l1.724-1.354C8.679,0.646,7.278,0,5.729,0C2.565,0,0,2.687,0,6
	c0,3.314,2.565,6,5.729,6c2.961,0,5.396-2.352,5.698-5.368h0.032l-0.027-0.058C11.449,6.385,11.46,6.194,11.46,6
	C11.46,5.566,11.414,5.145,11.33,4.737z"/>
</svg>
