<?xml version="1.0" encoding="utf-8"?>
<!-- Generator: Adobe Illustrator 16.0.0, SVG Export Plug-In . SVG Version: 6.00 Build 0)  -->
<!DOCTYPE svg PUBLIC "-//W3C//DTD SVG 1.1//EN" "http://www.w3.org/Graphics/SVG/1.1/DTD/svg11.dtd">
<svg version="1.1" id="Layer_1" xmlns="http://www.w3.org/2000/svg" xmlns:xlink="http://www.w3.org/1999/xlink" x="0px" y="0px"
	 width="15px" height="13px" viewBox="0 0 15 13" enable-background="new 0 0 15 13" xml:space="preserve">
<g>
	<g>
		<path fill="#0670af" d="M7.479,7.295c1.921,0,3.479-1.636,3.479-3.653S9.399,0,7.479,0S3.999,1.636,3.999,3.642
			C3.999,5.647,5.558,7.295,7.479,7.295z M7.479,0.952c1.409,0,2.562,1.21,2.562,2.69c0,1.479-1.152,2.69-2.562,2.69
			s-2.562-1.211-2.562-2.69C4.917,2.162,6.069,0.952,7.479,0.952z M9.635,7.935h-4.27C2.964,7.935,1,9.984,1,12.518
			C1,12.786,1.202,13,1.459,13h12.082C13.797,13,14,12.786,14,12.518C14,9.996,12.047,7.935,9.635,7.935z M1.95,12.036
			c0.224-1.76,1.665-3.138,3.415-3.138h4.27c1.75,0,3.191,1.367,3.415,3.138H1.95z"/>
	</g>
</g>
</svg>
