<?xml version="1.0" encoding="utf-8"?>
<!-- Generator: Adobe Illustrator 16.0.0, SVG Export Plug-In . SVG Version: 6.00 Build 0)  -->
<!DOCTYPE svg PUBLIC "-//W3C//DTD SVG 1.1//EN" "http://www.w3.org/Graphics/SVG/1.1/DTD/svg11.dtd">
<svg version="1.1" id="Layer_1" xmlns="http://www.w3.org/2000/svg" xmlns:xlink="http://www.w3.org/1999/xlink" x="0px" y="0px"
	 width="45px" height="37px" viewBox="0 0 45 37" enable-background="new 0 0 45 37" xml:space="preserve">
<g opacity="0.22">
	<g>
		<path fill="#FFFFFF" d="M0,0v37h32.917L45,24.854V0H0z M33.819,30.903v-5.091h5.066L33.819,30.903z M41.385,22.18H30.204v11.188
			H3.617V3.597h22.444l-0.006,0.006H39.65l0.006-0.006h1.729V22.18z M6.448,30.064h13.835v-1.691H8.084v-8.281h2.886V18.4H8.084
			V9.861h9.784V18.4h-2.023v1.691h4.438V18.4h-0.778V9.861h2.411v0.001h4.087v8.496H25.99V18.4h-0.833v1.691h0.833v8.281h-0.833
			v1.691h2.47V14.415l0.002-0.001V8.187H6.448V30.064z"/>
	</g>
</g>
</svg>
