<?xml version="1.0" encoding="utf-8"?>
<!-- Generator: Adobe Illustrator 16.0.0, SVG Export Plug-In . SVG Version: 6.00 Build 0)  -->
<!DOCTYPE svg PUBLIC "-//W3C//DTD SVG 1.1//EN" "http://www.w3.org/Graphics/SVG/1.1/DTD/svg11.dtd">
<svg version="1.1" id="Layer_1" xmlns="http://www.w3.org/2000/svg" xmlns:xlink="http://www.w3.org/1999/xlink" x="0px" y="0px"
	 width="15px" height="14px" viewBox="0 0 15 14" enable-background="new 0 0 15 14" xml:space="preserve">
<path fill="#0670af" d="M14.06,10.345c-0.575-0.604-1.149-1.198-1.707-1.772c-0.304-0.313-0.667-0.486-1.055-0.503
	c-0.389-0.018-0.768,0.124-1.097,0.405l-0.084,0.073C9.786,8.833,9.442,9.129,9.109,9.424C9.046,9.391,8.981,9.357,8.921,9.323
	C8.779,9.249,8.643,9.178,8.524,9.1C7.597,8.488,6.755,7.693,5.955,6.662c-0.39-0.5-0.656-0.94-0.837-1.382
	c0.295-0.247,0.583-0.5,0.866-0.747C6.055,4.471,6.13,4.407,6.201,4.344c0.692-0.602,0.728-1.418,0.098-2.081
	C6.106,2.061,5.907,1.856,5.718,1.66c-0.085-0.088-0.17-0.177-0.254-0.265C5.373,1.3,5.285,1.209,5.195,1.114
	C5.001,0.912,4.801,0.702,4.6,0.499c-0.303-0.31-0.67-0.481-1.055-0.498C3.159-0.015,2.777,0.124,2.449,0.405
	c-0.158,0.137-0.32,0.274-0.471,0.408C1.753,1.01,1.521,1.212,1.289,1.404C0.855,1.761,0.602,2.224,0.53,2.783
	c-0.11,0.878,0.109,1.687,0.311,2.294c0.464,1.372,1.208,2.686,2.28,4.016c1.335,1.655,2.974,2.991,4.87,3.974
	c1.044,0.54,1.949,0.831,2.84,0.917c0.064,0.006,0.13,0.012,0.192,0.014c0.753,0.033,1.386-0.193,1.878-0.668
	c0.212-0.205,0.438-0.396,0.677-0.598c0.121-0.103,0.245-0.207,0.369-0.314C14.643,11.813,14.686,11.001,14.06,10.345z
	 M13.409,11.857c-0.118,0.103-0.239,0.204-0.355,0.306c-0.239,0.201-0.487,0.411-0.719,0.636c-0.364,0.354-0.812,0.489-1.417,0.433
	c-0.785-0.077-1.589-0.338-2.538-0.828c-1.798-0.931-3.354-2.197-4.619-3.765c-1.016-1.261-1.72-2.497-2.154-3.786
	C1.339,4.062,1.256,3.455,1.328,2.886c0.047-0.368,0.207-0.663,0.489-0.894c0.238-0.207,0.475-0.414,0.704-0.613
	C2.673,1.248,2.828,1.11,2.983,0.976c0.118-0.102,0.305-0.221,0.525-0.211c0.219,0.009,0.395,0.144,0.504,0.256
	c0.195,0.201,0.396,0.41,0.586,0.61c0.091,0.094,0.178,0.188,0.269,0.28c0.085,0.088,0.17,0.177,0.255,0.266
	c0.189,0.197,0.384,0.4,0.577,0.601c0.34,0.356,0.327,0.686-0.045,1.008C5.582,3.849,5.508,3.911,5.437,3.976
	C5.135,4.239,4.822,4.513,4.51,4.773C4.354,4.902,4.198,5.126,4.327,5.465c0.206,0.537,0.516,1.064,0.976,1.654
	C6.157,8.215,7.061,9.07,8.061,9.728c0.156,0.104,0.314,0.187,0.468,0.266c0.094,0.047,0.178,0.093,0.262,0.142
	c0.104,0.062,0.209,0.091,0.316,0.096l0,0c0.169,0.008,0.33-0.056,0.476-0.186c0.351-0.314,0.717-0.625,1.067-0.929l0.084-0.073
	c0.118-0.102,0.305-0.221,0.521-0.211s0.391,0.145,0.502,0.256c0.555,0.575,1.13,1.169,1.7,1.77
	C13.789,11.196,13.77,11.543,13.409,11.857z"/>
</svg>
