<?xml version="1.0" encoding="utf-8"?>
<!-- Generator: Adobe Illustrator 16.0.0, SVG Export Plug-In . SVG Version: 6.00 Build 0)  -->
<!DOCTYPE svg PUBLIC "-//W3C//DTD SVG 1.1//EN" "http://www.w3.org/Graphics/SVG/1.1/DTD/svg11.dtd">
<svg version="1.1" id="Layer_1" xmlns="http://www.w3.org/2000/svg" xmlns:xlink="http://www.w3.org/1999/xlink" x="0px" y="0px"
	 width="37px" height="33px" viewBox="0 0 37 33" enable-background="new 0 0 37 33" xml:space="preserve">
<path opacity="0.1" fill="#FFFFFF" d="M12.816,0C4.474,4.926,0,12.066,0,21.919C0,29.06,2.78,33,7.617,33
	c3.748,0,6.408-2.587,6.408-6.771c0-4.063-3.144-6.28-6.408-6.28c-0.363,0-0.726,0-1.088,0.122c0-7.018,3.022-11.206,9.189-15.268
	L12.816,0z M34.218,0C25.755,4.926,21.28,12.066,21.28,21.919C21.28,29.06,24.062,33,28.898,33c3.747,0,6.408-2.587,6.408-6.771
	c0-4.063-3.023-6.28-6.408-6.28c-0.363,0-0.727,0-1.089,0.122c0-7.018,3.145-11.206,9.19-15.268L34.218,0z"/>
</svg>
