<?xml version="1.0" encoding="utf-8"?>
<!-- Generator: Adobe Illustrator 16.0.0, SVG Export Plug-In . SVG Version: 6.00 Build 0)  -->
<!DOCTYPE svg PUBLIC "-//W3C//DTD SVG 1.1//EN" "http://www.w3.org/Graphics/SVG/1.1/DTD/svg11.dtd">
<svg version="1.1" id="Layer_1" xmlns="http://www.w3.org/2000/svg" xmlns:xlink="http://www.w3.org/1999/xlink" x="0px" y="0px"
	 width="41px" height="37px" viewBox="0 0 41 37" enable-background="new 0 0 41 37" xml:space="preserve">
<g opacity="0.22">
	<g>
		<path fill="#FFFFFF" d="M3.589,33.764h5.62v-6.553h5.308v6.553h5.62c0.198,0,0.359-0.162,0.359-0.363V4.93
			c0-0.199-0.161-0.36-0.359-0.36H3.589C3.39,4.569,3.23,4.73,3.23,4.93V33.4C3.23,33.602,3.39,33.764,3.589,33.764z M14.313,6.652
			h2.75v2.784h-2.75V6.652z M14.313,10.524h2.75v2.783h-2.75V10.524z M14.313,14.395h2.75v2.784h-2.75V14.395z M14.313,18.267h2.75
			v2.785h-2.75V18.267z M14.313,22.137h2.75v2.786h-2.75V22.137z M10.487,6.652h2.752v2.784h-2.752V6.652z M10.487,10.524h2.752
			v2.783h-2.752V10.524z M10.487,14.395h2.752v2.784h-2.752V14.395z M10.487,18.267h2.752v2.785h-2.752V18.267z M10.487,22.137
			h2.752v2.786h-2.752V22.137z M6.661,6.652h2.752v2.784H6.661V6.652z M6.661,10.524h2.752v2.783H6.661V10.524z M6.661,14.395h2.752
			v2.784H6.661V14.395z M6.661,18.267h2.752v2.785H6.661V18.267z M6.661,22.137h2.752v2.786H6.661V22.137z M21.948,33.764h5.879
			v-6.553h5.307v6.553h5.361c0.199,0,0.358-0.162,0.358-0.363V12.529c0-0.199-0.159-0.362-0.358-0.362H21.948
			c-0.2,0-0.359,0.163-0.359,0.362V33.4C21.589,33.602,21.748,33.764,21.948,33.764z M32.671,14.251h2.752v2.784h-2.752V14.251z
			 M32.671,18.267h2.752v2.785h-2.752V18.267z M32.671,22.137h2.752v2.786h-2.752V22.137z M28.846,14.251h2.751v2.784h-2.751V14.251
			z M28.846,18.267h2.751v2.785h-2.751V18.267z M28.846,22.137h2.751v2.786h-2.751V22.137z M25.019,14.251h2.752v2.784h-2.752
			V14.251z M25.019,18.267h2.752v2.785h-2.752V18.267z M25.019,22.137h2.752v2.786h-2.752V22.137z M5.825,4.168h5.225
			c0.196,0,0.359-0.162,0.359-0.362V0.363C11.408,0.162,11.245,0,11.049,0H5.825C5.625,0,5.467,0.162,5.467,0.363v3.442
			C5.467,4.006,5.625,4.168,5.825,4.168z M23.35,11.768h5.223c0.198,0,0.358-0.162,0.358-0.362V7.962
			c0-0.198-0.16-0.361-0.358-0.361H23.35c-0.197,0-0.359,0.163-0.359,0.361v3.443C22.99,11.605,23.152,11.768,23.35,11.768z
			 M0,34.872V37h41v-2.128H0z"/>
	</g>
</g>
</svg>
