<?xml version="1.0" encoding="utf-8"?>
<!-- Generator: Adobe Illustrator 16.0.0, SVG Export Plug-In . SVG Version: 6.00 Build 0)  -->
<!DOCTYPE svg PUBLIC "-//W3C//DTD SVG 1.1//EN" "http://www.w3.org/Graphics/SVG/1.1/DTD/svg11.dtd">
<svg version="1.1" id="Layer_1" xmlns="http://www.w3.org/2000/svg" xmlns:xlink="http://www.w3.org/1999/xlink" x="0px" y="0px"
	 width="44px" height="44px" viewBox="0 0 44 44" enable-background="new 0 0 44 44" xml:space="preserve">
<path fill-rule="evenodd" clip-rule="evenodd" fill="#D8C663" d="M22,0c12.15,0,22,9.85,22,22s-9.85,22-22,22S0,34.15,0,22
	S9.85,0,22,0z"/>
<g>
	<g>
		<path fill="#1E1E1E" d="M27.252,26.648l-4.611-4.628l4.607-4.625c0.194-0.195,0.194-0.51,0-0.705
			c-0.193-0.194-0.508-0.194-0.702,0l-4.607,4.626l-4.61-4.628c-0.193-0.194-0.508-0.194-0.701,0c-0.194,0.195-0.194,0.51,0,0.705
			l4.61,4.627l-4.61,4.628c-0.194,0.194-0.194,0.51,0,0.705c0.097,0.097,0.224,0.146,0.351,0.146s0.254-0.049,0.351-0.146
			l4.61-4.629l4.611,4.629c0.098,0.097,0.225,0.146,0.352,0.146s0.254-0.049,0.351-0.146C27.446,27.158,27.446,26.843,27.252,26.648
			z"/>
	</g>
</g>
</svg>
