<?xml version="1.0" encoding="utf-8"?>
<!-- Generator: Adobe Illustrator 16.0.0, SVG Export Plug-In . SVG Version: 6.00 Build 0)  -->
<!DOCTYPE svg PUBLIC "-//W3C//DTD SVG 1.1//EN" "http://www.w3.org/Graphics/SVG/1.1/DTD/svg11.dtd">
<svg version="1.1" id="Layer_1" xmlns="http://www.w3.org/2000/svg" xmlns:xlink="http://www.w3.org/1999/xlink" x="0px" y="0px"
	 width="16px" height="17px" viewBox="0 0 16 17" enable-background="new 0 0 16 17" xml:space="preserve">
<g>
	<g>
		<path fill-rule="evenodd" clip-rule="evenodd" fill="#F79520" d="M3.999,13H6v-2H3.999V13z M3.999,10H6V8H3.999V10z M14.999,1h-2
			v2c0,0.553-0.447,1-1,1H11c-0.553,0-1.001-0.447-1.001-1V1H6v2c0,0.553-0.448,1-1.001,1h-1c-0.552,0-1-0.447-1-1V1H1
			C0.447,1,0,1.448,0,2v14c0,0.553,0.447,1,1,1h13.999C15.552,17,16,16.553,16,16V2C16,1.448,15.552,1,14.999,1z M14,14
			c0,0.553-0.448,1-1.001,1h-10c-0.552,0-1-0.447-1-1V7c0-0.553,0.448-1,1-1h10C13.552,6,14,6.447,14,7V14z M6.999,13H9v-2H6.999V13
			z M4.999,0h-1v3h1V0z M9.999,10h2V8h-2V10z M6.999,10H9V8H6.999V10z M9.999,13h2v-2h-2V13z M11.999,0H11v3h0.999V0z"/>
	</g>
</g>
</svg>
