<?xml version="1.0" encoding="utf-8"?>
<!-- Generator: Adobe Illustrator 16.0.0, SVG Export Plug-In . SVG Version: 6.00 Build 0)  -->
<!DOCTYPE svg PUBLIC "-//W3C//DTD SVG 1.1//EN" "http://www.w3.org/Graphics/SVG/1.1/DTD/svg11.dtd">
<svg version="1.1" id="Layer_1" xmlns="http://www.w3.org/2000/svg" xmlns:xlink="http://www.w3.org/1999/xlink" x="0px" y="0px"
	 width="33px" height="31px" viewBox="0 0 33 31" enable-background="new 0 0 33 31" xml:space="preserve">
<g>
	<g>
		<path fill="#77777A" d="M32.252,20.006c-0.475-0.049-0.916,0.212-0.982,0.58c-1.031,5.699-7.852,9.727-15.206,8.979
			c-5.168-0.526-9.395-3.31-10.952-7.077l4.146,1.494c0.433,0.156,0.951,0.01,1.157-0.328c0.205-0.336,0.021-0.736-0.413-0.893
			L4.29,20.705c-0.411-0.149-0.901-0.026-1.127,0.281l-3.049,4.15c-0.238,0.325-0.093,0.734,0.324,0.915
			c0.098,0.044,0.203,0.071,0.308,0.082c0.342,0.034,0.694-0.093,0.877-0.34l1.938-2.638c1.839,4.128,6.539,7.161,12.261,7.743
			c8.303,0.845,16.004-3.704,17.17-10.138C33.059,20.393,32.727,20.055,32.252,20.006z"/>
	</g>
</g>
<g>
	<g>
		<path fill="#77777A" d="M11.269,12.004c-0.033,0.028-0.053,0.069-0.053,0.112v4.374c0,0.063,0.043,0.12,0.105,0.14l2.95,0.946
			c0.017,0.005,0.032,0.008,0.049,0.008c0.032,0,0.064-0.01,0.09-0.028c0.041-0.028,0.064-0.072,0.064-0.12v-4.903
			c0-0.074-0.056-0.137-0.132-0.147l-2.95-0.415C11.349,11.963,11.303,11.976,11.269,12.004z M9.752,11.741l-2.08-0.291
			c-0.044-0.008-0.089,0.006-0.123,0.033c-0.034,0.028-0.053,0.069-0.053,0.113v3.701c0,0.063,0.042,0.119,0.105,0.141l2.079,0.666
			c0.017,0.005,0.032,0.008,0.049,0.008c0.031,0,0.063-0.01,0.09-0.028c0.04-0.028,0.064-0.073,0.064-0.12v-4.076
			C9.884,11.813,9.828,11.751,9.752,11.741z M28.91,8.485l-6.454-8.307c0,0-0.062-0.093-0.204-0.148
			c-0.143-0.056-0.282-0.017-0.282-0.017L11.829,2.512V1.649c0-0.207-0.148-0.387-0.357-0.434l-0.848-0.188
			c0,0-0.056-0.014-0.133-0.01s-0.126,0.024-0.126,0.024L8.837,1.562C8.652,1.625,8.528,1.793,8.528,1.981v1.345L6.924,3.72
			c-0.13,0.032-0.238,0.116-0.299,0.23L4.048,8.861C3.976,8.998,3.981,9.16,4.063,9.291s0.229,0.212,0.388,0.216l1.221,0.024v8.714
			c0,0.166,0.096,0.318,0.249,0.395l10.591,5.297c0,0,0.092,0.049,0.213,0.051c0.121,0.001,0.214-0.051,0.214-0.051L27.2,18.8
			c0.152-0.077,0.248-0.229,0.249-0.395l0.019-9.279l1.039,0.069c0,0,0.271,0.03,0.425-0.209C29.101,8.724,28.91,8.485,28.91,8.485z
			 M16.264,22.81l-9.666-4.834V9.55l7.714,0.156h0.002l1.95,0.034V22.81z M27.038,8.206C26.91,8.198,26.784,8.24,26.69,8.324
			s-0.146,0.202-0.147,0.325l-0.018,9.485l-2.649,1.327V11.24c0-0.042-0.018-0.081-0.05-0.109s-0.074-0.042-0.117-0.038
			l-2.548,0.203c-0.08,0.007-0.142,0.071-0.142,0.148v9.447l-3.832,1.918V9.303c0-0.243-0.202-0.44-0.454-0.445l-1.43-0.025
			l6.759-7.674l5.503,7.083L27.038,8.206z"/>
	</g>
</g>
</svg>
