<?xml version="1.0" encoding="utf-8"?>
<!-- Generator: Adobe Illustrator 16.0.0, SVG Export Plug-In . SVG Version: 6.00 Build 0)  -->
<!DOCTYPE svg PUBLIC "-//W3C//DTD SVG 1.1//EN" "http://www.w3.org/Graphics/SVG/1.1/DTD/svg11.dtd">
<svg version="1.1" id="Layer_1" xmlns="http://www.w3.org/2000/svg" xmlns:xlink="http://www.w3.org/1999/xlink" x="0px" y="0px"
	 width="13px" height="18px" viewBox="0 0 13 18" enable-background="new 0 0 13 18" xml:space="preserve">
<g>
	<g>
		<path fill="#2A2A2A" d="M6.499,3.485c-1.712,0-3.105,1.43-3.105,3.188c0,1.757,1.393,3.186,3.105,3.186
			c1.714,0,3.106-1.429,3.106-3.186C9.605,4.915,8.213,3.485,6.499,3.485z M6.499,8.997c-1.249,0-2.264-1.042-2.264-2.324
			c0-1.282,1.015-2.325,2.264-2.325c1.25,0,2.268,1.043,2.268,2.325C8.767,7.955,7.749,8.997,6.499,8.997z M6.499,0
			C2.916,0,0,2.993,0,6.673c0,3.562,5.924,10.863,6.177,11.172C6.257,17.943,6.374,18,6.499,18s0.243-0.057,0.323-0.154
			C7.075,17.536,13,10.235,13,6.673C13,2.993,10.083,0,6.499,0z M6.499,16.887C5.255,15.303,0.841,9.481,0.841,6.673
			c0-3.204,2.538-5.811,5.658-5.811c3.122,0,5.661,2.607,5.661,5.811C12.16,9.48,7.745,15.303,6.499,16.887z"/>
	</g>
</g>
</svg>
