<?xml version="1.0" encoding="utf-8"?>
<!-- Generator: Adobe Illustrator 16.0.0, SVG Export Plug-In . SVG Version: 6.00 Build 0)  -->
<!DOCTYPE svg PUBLIC "-//W3C//DTD SVG 1.1//EN" "http://www.w3.org/Graphics/SVG/1.1/DTD/svg11.dtd">
<svg version="1.1" id="Layer_1" xmlns="http://www.w3.org/2000/svg" xmlns:xlink="http://www.w3.org/1999/xlink" x="0px" y="0px"
	 width="30px" height="30px" viewBox="0 0 30 30" enable-background="new 0 0 30 30" xml:space="preserve">
<g>
	<path fill="#E0E0E0" d="M15,1c7.721,0,14,6.28,14,14c0,7.721-6.279,14-14,14C7.28,29,1,22.721,1,15C1,7.28,7.28,1,15,1 M15,0
		C6.716,0,0,6.716,0,15c0,8.285,6.716,15,15,15s15-6.715,15-15C30,6.716,23.284,0,15,0L15,0z"/>
</g>
<path fill="#00ACED" d="M24,9.616c-0.66,0.282-1.373,0.475-2.119,0.561c0.762-0.44,1.348-1.139,1.623-1.97
	C22.789,8.615,22,8.911,21.16,9.071c-0.675-0.693-1.634-1.125-2.697-1.125c-2.04,0-3.694,1.594-3.694,3.561
	c0,0.28,0.033,0.552,0.097,0.813c-3.07-0.148-5.791-1.566-7.613-3.721c-0.317,0.525-0.5,1.138-0.5,1.79
	c0,1.235,0.653,2.326,1.643,2.963c-0.605-0.018-1.174-0.177-1.671-0.444c0,0.015,0,0.03,0,0.046c0,1.726,1.272,3.163,2.962,3.491
	c-0.31,0.08-0.636,0.127-0.973,0.127c-0.238,0-0.47-0.024-0.695-0.067c0.47,1.416,1.834,2.445,3.45,2.476
	c-1.265,0.953-2.857,1.523-4.586,1.523c-0.298,0-0.593-0.017-0.883-0.049c1.635,1.009,3.576,1.6,5.663,1.6
	c6.792,0,10.505-5.428,10.505-10.135c0-0.152-0.003-0.307-0.009-0.458C22.881,10.958,23.506,10.331,24,9.616L24,9.616z"/>
</svg>
