<?xml version="1.0" encoding="utf-8"?>
<!-- Generator: Adobe Illustrator 16.0.0, SVG Export Plug-In . SVG Version: 6.00 Build 0)  -->
<!DOCTYPE svg PUBLIC "-//W3C//DTD SVG 1.1//EN" "http://www.w3.org/Graphics/SVG/1.1/DTD/svg11.dtd">
<svg version="1.1" id="Layer_1" xmlns="http://www.w3.org/2000/svg" xmlns:xlink="http://www.w3.org/1999/xlink" x="0px" y="0px"
	 width="130px" height="130px" viewBox="0 0 130 130" enable-background="new 0 0 130 130" xml:space="preserve">
<path fill-rule="evenodd" clip-rule="evenodd" fill="#FFFFFF" d="M65,0c35.898,0,65,29.102,65,65s-29.102,65-65,65S0,100.898,0,65
	S29.102,0,65,0z"/>
<path fill-rule="evenodd" clip-rule="evenodd" fill="none" stroke="#D3A02A" stroke-miterlimit="10" d="M65.5,9.5
	c30.375,0,55,24.624,55,55c0,30.375-24.625,55-55,55c-30.376,0-55-24.625-55-55C10.5,34.124,35.124,9.5,65.5,9.5z"/>
<path fill-rule="evenodd" clip-rule="evenodd" fill="#D3A02A" d="M65.5,19.5c24.853,0,45,20.147,45,45s-20.147,45-45,45
	c-24.853,0-45-20.147-45-45S40.647,19.5,65.5,19.5z"/>
<g>
	<g>
		<path fill="#FFFFFF" d="M82.64,79.125V54.453c0-0.521-0.423-0.944-0.942-0.944H70.353v-4.563c0-0.521-0.422-0.944-0.942-0.944
			H49.317c-0.521,0-0.943,0.422-0.943,0.944v30.18c-0.486,0.037-0.873,0.434-0.873,0.93c0,0.521,0.422,0.943,0.943,0.943h34.124
			c0.521,0,0.943-0.422,0.943-0.943C83.512,79.559,83.125,79.163,82.64,79.125z M58.892,79.064h-5.829v-9.642h5.829V79.064z
			 M65.663,79.064h-5.828v-9.642h5.828V79.064z M68.467,79.064h-1.861V68.951c0-0.262-0.211-0.472-0.471-0.472H52.591
			c-0.26,0-0.471,0.21-0.471,0.472v10.113h-1.86V49.89h18.208V79.064z M80.754,79.064H70.421V55.396h10.333V79.064z M71.271,61.055
			h3.258c0.261,0,0.472-0.21,0.472-0.472V57.32c0-0.261-0.211-0.472-0.472-0.472h-3.258c-0.261,0-0.472,0.211-0.472,0.472v3.263
			C70.799,60.844,71.01,61.055,71.271,61.055z M71.742,57.792h2.314v2.318h-2.314V57.792z M76.646,61.055h3.26
			c0.26,0,0.471-0.21,0.471-0.472V57.32c0-0.261-0.211-0.472-0.471-0.472h-3.26c-0.26,0-0.471,0.211-0.471,0.472v3.263
			C76.176,60.844,76.387,61.055,76.646,61.055z M77.118,57.792h2.315v2.318h-2.315V57.792z M71.271,66.576h3.258
			c0.261,0,0.472-0.212,0.472-0.473v-3.264c0-0.26-0.211-0.472-0.472-0.472h-3.258c-0.261,0-0.472,0.212-0.472,0.472v3.264
			C70.799,66.364,71.01,66.576,71.271,66.576z M71.742,63.312h2.314v2.32h-2.314V63.312z M76.646,66.576h3.26
			c0.26,0,0.471-0.212,0.471-0.473v-3.264c0-0.26-0.211-0.472-0.471-0.472h-3.26c-0.26,0-0.471,0.212-0.471,0.472v3.264
			C76.176,66.364,76.387,66.576,76.646,66.576z M77.118,63.312h2.315v2.32h-2.315V63.312z M71.271,72.093h3.258
			c0.261,0,0.472-0.21,0.472-0.472v-3.264c0-0.26-0.211-0.473-0.472-0.473h-3.258c-0.261,0-0.472,0.213-0.472,0.473v3.264
			C70.799,71.883,71.01,72.093,71.271,72.093z M71.742,68.829h2.314v2.319h-2.314V68.829z M76.646,72.093h3.26
			c0.26,0,0.471-0.21,0.471-0.472v-3.264c0-0.26-0.211-0.473-0.471-0.473h-3.26c-0.26,0-0.471,0.213-0.471,0.473v3.264
			C76.176,71.883,76.387,72.093,76.646,72.093z M77.118,68.829h2.315v2.319h-2.315V68.829z M71.271,77.613h3.258
			c0.261,0,0.472-0.211,0.472-0.473v-3.263c0-0.261-0.211-0.472-0.472-0.472h-3.258c-0.261,0-0.472,0.211-0.472,0.472v3.263
			C70.799,77.402,71.01,77.613,71.271,77.613z M71.742,74.35h2.314v2.32h-2.314V74.35z M76.646,77.613h3.26
			c0.26,0,0.471-0.211,0.471-0.473v-3.263c0-0.261-0.211-0.472-0.471-0.472h-3.26c-0.26,0-0.471,0.211-0.471,0.472v3.263
			C76.176,77.402,76.387,77.613,76.646,77.613z M77.118,74.35h2.315v2.32h-2.315V74.35z M52.593,54.813h13.542
			c0.26,0,0.471-0.212,0.471-0.472v-2.835c0-0.261-0.211-0.472-0.471-0.472H52.593c-0.26,0-0.471,0.211-0.471,0.472v2.835
			C52.122,54.602,52.333,54.813,52.593,54.813z M53.064,51.978h12.599v1.892H53.064V51.978z M52.593,60.628h13.542
			c0.26,0,0.471-0.21,0.471-0.472V57.32c0-0.261-0.211-0.472-0.471-0.472H52.593c-0.26,0-0.471,0.211-0.471,0.472v2.836
			C52.122,60.418,52.333,60.628,52.593,60.628z M53.064,57.792h12.599v1.893H53.064V57.792z M52.591,66.443h13.544
			c0.26,0,0.471-0.211,0.471-0.472v-2.836c0-0.26-0.211-0.472-0.471-0.472H52.591c-0.26,0-0.471,0.212-0.471,0.472v2.836
			C52.12,66.232,52.331,66.443,52.591,66.443z M53.063,63.607h12.6V65.5h-12.6V63.607z"/>
	</g>
</g>
</svg>
