<?xml version="1.0" encoding="utf-8"?>
<!-- Generator: Adobe Illustrator 16.0.0, SVG Export Plug-In . SVG Version: 6.00 Build 0)  -->
<!DOCTYPE svg PUBLIC "-//W3C//DTD SVG 1.1//EN" "http://www.w3.org/Graphics/SVG/1.1/DTD/svg11.dtd">
<svg version="1.1" id="Layer_1" xmlns="http://www.w3.org/2000/svg" xmlns:xlink="http://www.w3.org/1999/xlink" x="0px" y="0px"
	 width="16px" height="16px" viewBox="0 0 16 16" enable-background="new 0 0 16 16" xml:space="preserve">
<path fill="#2A2A2A" d="M3.491,16c-0.03,0-0.061-0.003-0.091-0.009l-0.227-0.042c-0.171-0.03-0.342-0.062-0.512-0.096
	c-0.843-0.167-1.484-0.655-1.903-1.453c-0.167-0.317-0.306-0.614-0.425-0.909c-0.327-0.823-0.413-1.651-0.256-2.464
	c0.101-0.525,0.277-1.013,0.447-1.483c0.282-0.786,0.637-1.692,1.162-2.548c0.733-1.198,1.669-2.322,2.86-3.431
	c0.71-0.661,1.471-1.252,2.26-1.757c1.23-0.78,2.586-1.252,3.75-1.611c0.718-0.221,1.435-0.257,2.113-0.104
	c0.607,0.135,1.197,0.362,1.754,0.677c0.354,0.2,0.753,0.464,1.028,0.896c0.338,0.53,0.512,1.146,0.548,1.941
	C16.019,4,15.845,4.332,15.509,4.535l-0.393,0.237c-0.203,0.124-0.406,0.249-0.611,0.368c-0.427,0.247-0.854,0.493-1.282,0.738
	l-0.598,0.344c-0.094,0.053-0.156,0.086-0.218,0.116c-0.432,0.211-0.891,0.151-1.22-0.158c-0.236-0.224-0.46-0.46-0.682-0.699
	c-0.151-0.163-0.301-0.33-0.449-0.497c-0.115-0.131-0.23-0.261-0.348-0.389C9.688,4.571,9.672,4.56,9.666,4.555
	C9.663,4.558,9.648,4.563,9.624,4.576C9.331,4.734,9.039,4.895,8.749,5.063C8.058,5.466,7.424,5.933,6.87,6.452
	C6.187,7.091,5.583,7.857,5.072,8.729C4.888,9.041,4.719,9.36,4.553,9.679c0.153,0.139,0.307,0.275,0.459,0.411
	c0.093,0.083,0.186,0.166,0.277,0.25l0.218,0.198c0.224,0.202,0.449,0.404,0.66,0.621c0.333,0.341,0.39,0.813,0.154,1.263
	c-0.057,0.111-0.126,0.223-0.195,0.333c-0.057,0.091-0.095,0.146-0.133,0.201c-0.035,0.05-0.07,0.099-0.099,0.15
	c-0.104,0.188-0.206,0.376-0.308,0.564c-0.136,0.254-0.273,0.508-0.415,0.758c-0.154,0.27-0.315,0.533-0.477,0.797l-0.177,0.29
	c-0.202,0.332-0.527,0.501-0.922,0.473C3.562,15.996,3.526,16,3.491,16z M3.552,14.956c0.021,0,0.072,0.003,0.099,0.006l0.166-0.271
	c0.156-0.255,0.313-0.51,0.46-0.77c0.137-0.243,0.271-0.489,0.403-0.736c0.104-0.192,0.208-0.385,0.315-0.576
	c0.045-0.082,0.099-0.16,0.153-0.238c0.027-0.039,0.055-0.079,0.081-0.12c0.08-0.127,0.134-0.212,0.18-0.3
	c0.023-0.045,0.028-0.07,0.028-0.076c-0.201-0.199-0.41-0.387-0.619-0.575l-0.225-0.203c-0.088-0.082-0.177-0.161-0.266-0.24
	c-0.165-0.147-0.33-0.295-0.488-0.45C3.5,10.075,3.425,9.614,3.642,9.202C3.816,8.87,3.993,8.535,4.186,8.21
	c0.559-0.956,1.226-1.8,1.98-2.507c0.612-0.572,1.307-1.086,2.066-1.528C8.53,4.002,8.831,3.836,9.135,3.672
	c0.178-0.095,0.358-0.144,0.539-0.144c0.206,0,0.512,0.064,0.794,0.373c0.12,0.132,0.24,0.266,0.359,0.399
	c0.144,0.161,0.287,0.323,0.435,0.482c0.205,0.223,0.413,0.442,0.632,0.649c0.001,0.006,0.025,0.001,0.063-0.019
	c0.046-0.021,0.089-0.045,0.132-0.069l0.622-0.357c0.426-0.245,0.852-0.489,1.275-0.736c0.199-0.116,0.397-0.236,0.595-0.356
	l0.396-0.24c-0.033-0.61-0.157-1.066-0.395-1.438c-0.154-0.242-0.413-0.409-0.669-0.555c-0.467-0.264-0.961-0.455-1.471-0.567
	c-0.506-0.113-1.038-0.084-1.585,0.084c-1.099,0.338-2.375,0.781-3.5,1.496c-0.736,0.47-1.446,1.022-2.111,1.642
	c-1.122,1.045-2,2.097-2.685,3.216C2.086,8.309,1.756,9.154,1.496,9.879c-0.168,0.466-0.323,0.896-0.409,1.342
	c-0.122,0.628-0.056,1.244,0.201,1.889c0.105,0.26,0.23,0.526,0.38,0.813c0.271,0.518,0.663,0.819,1.194,0.924
	c0.166,0.034,0.331,0.064,0.495,0.094l0.102,0.019c0.013,0,0.026-0.001,0.039-0.001L3.552,14.956z"/>
</svg>
