<?xml version="1.0" encoding="utf-8"?>
<!-- Generator: Adobe Illustrator 16.0.0, SVG Export Plug-In . SVG Version: 6.00 Build 0)  -->
<!DOCTYPE svg PUBLIC "-//W3C//DTD SVG 1.1//EN" "http://www.w3.org/Graphics/SVG/1.1/DTD/svg11.dtd">
<svg version="1.1" id="Layer_1" xmlns="http://www.w3.org/2000/svg" xmlns:xlink="http://www.w3.org/1999/xlink" x="0px" y="0px"
	 width="25px" height="23px" viewBox="0 0 25 23" enable-background="new 0 0 25 23" xml:space="preserve">
<g>
	<g>
		<path fill="#77777A" d="M24.543,13.201L12.498,0L0.457,13.201c-0.611,0.67-0.611,1.754,0,2.423c0.609,0.669,1.599,0.669,2.209,0
			l0.457-0.502V23h18.754v-7.878l0.457,0.502c0.306,0.335,0.705,0.502,1.104,0.502c0.4,0,0.8-0.167,1.104-0.502
			C25.154,14.955,25.154,13.871,24.543,13.201z M20.313,21.287h-9.377v-6.852H7.812v6.852H4.687v-7.878l7.812-8.564l7.815,8.564
			V21.287z M17.188,14.436h-3.125v3.426h3.125V14.436z M7.812,0.731H4.687v5.411l3.125-3.426V0.731z"/>
	</g>
</g>
</svg>
