<?xml version="1.0" encoding="utf-8"?>
<!-- Generator: Adobe Illustrator 16.0.0, SVG Export Plug-In . SVG Version: 6.00 Build 0)  -->
<!DOCTYPE svg PUBLIC "-//W3C//DTD SVG 1.1//EN" "http://www.w3.org/Graphics/SVG/1.1/DTD/svg11.dtd">
<svg version="1.1" id="Layer_1" xmlns="http://www.w3.org/2000/svg" xmlns:xlink="http://www.w3.org/1999/xlink" x="0px" y="0px"
	 width="25px" height="28px" viewBox="0 0 25 28" enable-background="new 0 0 25 28" xml:space="preserve">
<g>
	<g>
		<path fill="#5D4721" d="M17.666,4.072c-0.299-0.136-0.65-0.003-0.787,0.296c-0.137,0.3-0.004,0.654,0.295,0.79
			c4.031,1.836,6.637,5.887,6.637,10.321c0,6.247-5.074,11.33-11.311,11.33c-6.236,0-11.31-5.083-11.31-11.33
			c0-5.954,4.607-10.845,10.438-11.293L9.432,6.93C9.227,7.187,9.268,7.562,9.525,7.768c0.109,0.088,0.241,0.131,0.371,0.131
			c0.175,0,0.348-0.077,0.465-0.224l2.979-3.723c0.205-0.257,0.164-0.632-0.092-0.838L9.531,0.131
			C9.275-0.075,8.9-0.033,8.695,0.224C8.489,0.48,8.531,0.856,8.787,1.063l2.439,1.958C4.929,3.662,0,9.004,0,15.479
			C0,22.383,5.607,28,12.5,28C19.393,28,25,22.383,25,15.479C25,10.578,22.121,6.101,17.666,4.072z M6.871,18.21
			c-0.59,0-1.171-0.239-1.409-0.382l-0.267,0.888c0.333,0.219,0.98,0.429,1.733,0.429c1.533,0,2.409-0.83,2.409-1.88
			c0-0.84-0.609-1.411-1.361-1.546V15.7c0.762-0.267,1.143-0.802,1.143-1.451c0-0.812-0.657-1.517-1.934-1.517
			c-0.743,0-1.429,0.229-1.781,0.478l0.267,0.849c0.258-0.172,0.763-0.391,1.268-0.391c0.676,0,0.99,0.353,0.99,0.772
			c0,0.62-0.686,0.868-1.229,0.868H6.175v0.858h0.543c0.715,0,1.4,0.314,1.4,1.05C8.128,17.704,7.766,18.21,6.871,18.21z
			 M10.223,16.472c0,1.527,0.828,2.673,2.333,2.673c1.315,0,2.182-1.03,2.182-2.214c0-1.259-0.828-2.022-1.896-2.022
			c-0.62,0-1.086,0.248-1.391,0.602h-0.028c0.152-0.859,0.781-1.661,2.077-1.813c0.238-0.028,0.43-0.028,0.6-0.028l-0.008-0.917
			c-0.145-0.009-0.334-0.009-0.592,0.019c-0.886,0.077-1.629,0.382-2.201,0.916C10.652,14.307,10.223,15.28,10.223,16.472z
			 M11.461,16.405c0.181-0.371,0.571-0.638,1.01-0.638c0.687,0,1.078,0.515,1.078,1.229c0,0.744-0.391,1.27-1.001,1.27
			c-0.753,0-1.144-0.668-1.162-1.489C11.385,16.616,11.414,16.501,11.461,16.405z M17.549,19.145c1.475,0,2.256-1.25,2.256-3.244
			c0-1.832-0.695-3.168-2.189-3.168c-1.449,0-2.268,1.298-2.268,3.225C15.357,17.847,16.119,19.145,17.549,19.145z M17.586,13.629
			c0.705,0,1.047,0.85,1.047,2.291c0,1.487-0.361,2.328-1.047,2.328c-0.648,0-1.066-0.782-1.057-2.291
			C16.52,14.402,16.957,13.629,17.586,13.629z M20.857,14.169c0.689,0,1.248-0.56,1.248-1.25c0-0.691-0.559-1.25-1.248-1.25
			s-1.248,0.56-1.248,1.25C19.609,13.61,20.168,14.169,20.857,14.169z M20.857,12.345c0.316,0,0.574,0.257,0.574,0.574
			c0,0.316-0.258,0.574-0.574,0.574s-0.572-0.257-0.572-0.574C20.285,12.603,20.541,12.345,20.857,12.345z"/>
	</g>
</g>
</svg>
