<?xml version="1.0" encoding="utf-8"?>
<!-- Generator: Adobe Illustrator 16.0.0, SVG Export Plug-In . SVG Version: 6.00 Build 0)  -->
<!DOCTYPE svg PUBLIC "-//W3C//DTD SVG 1.1//EN" "http://www.w3.org/Graphics/SVG/1.1/DTD/svg11.dtd">
<svg version="1.1" id="Layer_1" xmlns="http://www.w3.org/2000/svg" xmlns:xlink="http://www.w3.org/1999/xlink" x="0px" y="0px"
	 width="130px" height="130px" viewBox="0 0 130 130" enable-background="new 0 0 130 130" xml:space="preserve">
<path fill-rule="evenodd" clip-rule="evenodd" fill="#FFFFFF" d="M65,0c35.898,0,65,29.102,65,65s-29.102,65-65,65S0,100.898,0,65
	S29.102,0,65,0z"/>
<path fill-rule="evenodd" clip-rule="evenodd" fill="none" stroke="#D3A02A" stroke-miterlimit="10" d="M65.5,9.5
	c30.375,0,55,24.624,55,55c0,30.375-24.625,55-55,55c-30.376,0-55-24.625-55-55C10.5,34.124,35.124,9.5,65.5,9.5z"/>
<path fill-rule="evenodd" clip-rule="evenodd" fill="#D3A02A" d="M65.5,19.5c24.853,0,45,20.147,45,45s-20.147,45-45,45
	c-24.853,0-45-20.147-45-45S40.647,19.5,65.5,19.5z"/>
<g>
	<g>
		<path fill="#FFFFFF" d="M48.513,61.459c0.181,0.129,0.396,0.197,0.616,0.197c0.057,0,0.115-0.004,0.172-0.014l10.535-1.725
			l2.463,14.871h-4.032l-6.828-8.602c-0.181-0.229-0.514-0.266-0.742-0.086c-0.229,0.18-0.268,0.51-0.087,0.737l6.986,8.8
			c0.006,0.008,0.017,0.011,0.023,0.019c0.036,0.04,0.079,0.071,0.125,0.1c0.018,0.011,0.032,0.025,0.051,0.034
			c0.067,0.03,0.139,0.049,0.217,0.049h21.954c0.293,0,0.529-0.234,0.529-0.525c0-0.29-0.236-0.525-0.529-0.525H64.44l-2.52-15.212
			l10.535-1.725c0.576-0.095,0.966-0.635,0.872-1.208c-1.022-6.17-6.325-10.648-12.607-10.648c-0.696,0-1.4,0.057-2.092,0.17
			c-6.958,1.141-11.688,7.694-10.542,14.61C48.132,61.052,48.286,61.297,48.513,61.459z M58.972,48.24
			c0.579-0.096,1.167-0.144,1.749-0.144c4.887,0,9.064,3.249,10.299,7.861L50.052,59.39C49.701,54.016,53.516,49.134,58.972,48.24z
			 M83.44,77.124H56.727l-8.345-10.512c-0.361-0.454-1.025-0.531-1.484-0.174c-0.458,0.36-0.537,1.021-0.175,1.476l7.312,9.21
			h-6.482c-0.584,0-1.057,0.471-1.057,1.051s0.473,1.051,1.057,1.051h3.026v3.73c0,0.58,0.473,1.05,1.057,1.05
			c0.584,0,1.057-0.47,1.057-1.05v-3.73h3.521c0.001,0,0.003,0.001,0.004,0.001c0.002,0,0.004-0.001,0.006-0.001h22.078v3.73
			c0,0.58,0.473,1.05,1.057,1.05s1.057-0.47,1.057-1.05v-3.73h3.026c0.585,0,1.058-0.471,1.058-1.051S84.025,77.124,83.44,77.124z"
			/>
	</g>
</g>
</svg>
