<?xml version="1.0" encoding="utf-8"?>
<!-- Generator: Adobe Illustrator 16.0.0, SVG Export Plug-In . SVG Version: 6.00 Build 0)  -->
<!DOCTYPE svg PUBLIC "-//W3C//DTD SVG 1.1//EN" "http://www.w3.org/Graphics/SVG/1.1/DTD/svg11.dtd">
<svg version="1.1" id="Layer_1" xmlns="http://www.w3.org/2000/svg" xmlns:xlink="http://www.w3.org/1999/xlink" x="0px" y="0px"
	 width="26px" height="24px" viewBox="0 0 26 24" enable-background="new 0 0 26 24" xml:space="preserve">
<g>
	<g>
		<path fill="#FFFFFF" d="M25.372,22.636V4.693c0-0.379-0.306-0.687-0.682-0.687H16.5V0.688c0-0.379-0.305-0.687-0.681-0.687H1.312
			c-0.376,0-0.682,0.307-0.682,0.687v21.948C0.279,22.663,0,22.952,0,23.313C0,23.691,0.305,24,0.681,24h24.64
			c0.376,0,0.68-0.309,0.68-0.688C26,22.952,25.723,22.664,25.372,22.636z M8.225,22.592H4.016V15.58h4.209V22.592z M13.113,22.592
			H8.905V15.58h4.208V22.592z M15.139,22.592h-1.344v-7.354c0-0.19-0.152-0.344-0.341-0.344H3.675c-0.188,0-0.341,0.153-0.341,0.344
			v7.354H1.992V1.375h13.146V22.592z M24.01,22.592h-7.461V5.38h7.461V22.592z M17.163,9.495h2.352c0.188,0,0.34-0.154,0.34-0.344
			V6.779c0-0.19-0.152-0.343-0.34-0.343h-2.352c-0.188,0-0.341,0.153-0.341,0.343v2.373C16.822,9.341,16.975,9.495,17.163,9.495z
			 M17.503,7.122h1.671v1.686h-1.671V7.122z M21.045,9.495h2.353c0.188,0,0.34-0.154,0.34-0.344V6.779
			c0-0.19-0.151-0.343-0.34-0.343h-2.353c-0.188,0-0.341,0.153-0.341,0.343v2.373C20.704,9.341,20.856,9.495,21.045,9.495z
			 M21.385,7.122h1.672v1.686h-1.672V7.122z M17.163,13.51h2.352c0.188,0,0.34-0.154,0.34-0.344v-2.374
			c0-0.19-0.152-0.343-0.34-0.343h-2.352c-0.188,0-0.341,0.153-0.341,0.343v2.374C16.822,13.355,16.975,13.51,17.163,13.51z
			 M17.503,11.135h1.671v1.688h-1.671V11.135z M21.045,13.51h2.353c0.188,0,0.34-0.154,0.34-0.344v-2.374
			c0-0.19-0.151-0.343-0.34-0.343h-2.353c-0.188,0-0.341,0.153-0.341,0.343v2.374C20.704,13.355,20.856,13.51,21.045,13.51z
			 M21.385,11.135h1.672v1.688h-1.672V11.135z M17.163,17.522h2.352c0.188,0,0.34-0.153,0.34-0.344v-2.373
			c0-0.189-0.152-0.343-0.34-0.343h-2.352c-0.188,0-0.341,0.153-0.341,0.343v2.373C16.822,17.369,16.975,17.522,17.163,17.522z
			 M17.503,15.148h1.671v1.688h-1.671V15.148z M21.045,17.522h2.353c0.188,0,0.34-0.153,0.34-0.344v-2.373
			c0-0.189-0.151-0.343-0.34-0.343h-2.353c-0.188,0-0.341,0.153-0.341,0.343v2.373C20.704,17.369,20.856,17.522,21.045,17.522z
			 M21.385,15.148h1.672v1.688h-1.672V15.148z M17.163,21.537h2.352c0.188,0,0.34-0.153,0.34-0.343V18.82
			c0-0.189-0.152-0.343-0.34-0.343h-2.352c-0.188,0-0.341,0.153-0.341,0.343v2.374C16.822,21.384,16.975,21.537,17.163,21.537z
			 M17.503,19.163h1.671v1.688h-1.671V19.163z M21.045,21.537h2.353c0.188,0,0.34-0.153,0.34-0.343V18.82
			c0-0.189-0.151-0.343-0.34-0.343h-2.353c-0.188,0-0.341,0.153-0.341,0.343v2.374C20.704,21.384,20.856,21.537,21.045,21.537z
			 M21.385,19.163h1.672v1.688h-1.672V19.163z M3.676,4.955h9.778c0.188,0,0.341-0.153,0.341-0.343V2.549
			c0-0.19-0.152-0.344-0.341-0.344H3.676c-0.188,0-0.34,0.154-0.34,0.344v2.063C3.336,4.802,3.488,4.955,3.676,4.955z M4.017,2.893
			h9.097v1.376H4.017V2.893z M3.676,9.185h9.778c0.188,0,0.341-0.154,0.341-0.343V6.779c0-0.19-0.152-0.343-0.341-0.343H3.676
			c-0.188,0-0.34,0.153-0.34,0.343v2.063C3.336,9.031,3.488,9.185,3.676,9.185z M4.017,7.122h9.097v1.376H4.017V7.122z
			 M3.675,13.413h9.779c0.188,0,0.341-0.153,0.341-0.343v-2.063c0-0.19-0.152-0.344-0.341-0.344H3.675
			c-0.188,0-0.341,0.154-0.341,0.344v2.063C3.334,13.26,3.486,13.413,3.675,13.413z M4.016,11.351h9.098v1.375H4.016V11.351z"/>
	</g>
</g>
</svg>
