<?xml version="1.0" encoding="utf-8"?>
<!-- Generator: Adobe Illustrator 16.0.0, SVG Export Plug-In . SVG Version: 6.00 Build 0)  -->
<!DOCTYPE svg PUBLIC "-//W3C//DTD SVG 1.1//EN" "http://www.w3.org/Graphics/SVG/1.1/DTD/svg11.dtd">
<svg version="1.1" id="Layer_1" xmlns="http://www.w3.org/2000/svg" xmlns:xlink="http://www.w3.org/1999/xlink" x="0px" y="0px"
	 width="53px" height="69px" viewBox="0 0 53 69" enable-background="new 0 0 53 69" xml:space="preserve">
<path fill-rule="evenodd" clip-rule="evenodd" fill="#FFFFFF" d="M26.5,3C38.927,3,49,13.073,49,25.5S38.927,48,26.5,48
	C14.074,48,4,37.927,4,25.5S14.074,3,26.5,3z"/>
<path fill="#5D4721" d="M48.281,40.821L26.498,69L4.719,40.821c-0.244-0.346-0.372-0.547-0.609-0.897h0.004
	C1.513,35.899,0,31.128,0,26.01C0,11.645,11.864,0,26.498,0C41.136,0,53,11.645,53,26.01c0,5.119-1.512,9.89-4.113,13.914h0.004
	C48.654,40.274,48.525,40.476,48.281,40.821z M26.498,5.765c-11.239,0-20.346,8.94-20.346,19.971
	c0,11.028,9.107,19.971,20.346,19.971c11.24,0,20.351-8.943,20.351-19.971C46.849,14.706,37.738,5.765,26.498,5.765z"/>
<g>
	<g>
		<path fill="#D3A02A" d="M26.501,8.999C17.402,8.999,10,16.402,10,25.502c0,9.099,7.402,16.497,16.501,16.497
			C35.599,41.999,43,34.602,43,25.502C43,16.402,35.599,8.999,26.501,8.999z M26.501,40.924c-8.506,0-15.426-6.915-15.426-15.421
			c0-8.508,6.92-15.429,15.426-15.429c8.505,0,15.424,6.921,15.424,15.429C41.925,34.009,35.006,40.924,26.501,40.924z
			 M17.087,28.886c-0.351,0-0.693-0.038-1.023-0.11c-0.456,0.812-0.563,1.773-0.286,2.664c0.555,1.779,2.454,2.775,4.232,2.22
			c0.179-0.056,0.349-0.129,0.512-0.211c0.001-0.002,0.003-0.004,0.004-0.005l0.002,0.002c1.417-0.717,2.166-2.354,1.726-3.922
			c-0.588-0.785-0.979-1.715-1.181-2.687C20.175,28.076,18.725,28.886,17.087,28.886z M36.906,23.107
			c-0.716,0.925-1.833,1.523-3.089,1.523c-0.014,0-0.028,0-0.042,0c-1.84-0.019-3.369-1.316-3.764-3.037
			c-0.583-1.452-1.787-1.861-3.262-1.785c-2.6,0.136-3.225,3.595-3.225,5.406c0,1.812,0.579,5.441,3.225,5.613
			c0.442,0.029,1.278-0.085,1.991-0.49c0.796-0.524,1.274-1.401,1.578-2.397h0.484v0.586h0.006c0,0.971,0.789,1.761,1.759,1.761
			s1.76-0.79,1.76-1.761c0-0.747-0.468-1.384-1.125-1.639c-0.125,0.17-0.325,0.281-0.553,0.281c-0.38,0-0.688-0.308-0.688-0.688
			c0-0.379,0.308-0.688,0.688-0.688c0.317,0,0.582,0.215,0.661,0.507c0.932,0.312,1.607,1.191,1.607,2.227
			c0,1.284-1.035,2.328-2.314,2.349c0.288,0.217,0.551,0.467,0.773,0.747c0.531,0.253,1.099,0.399,1.691,0.434
			c1.221,0.072,2.396-0.339,3.311-1.156c0.671-0.602,1.143-1.371,1.374-2.224c0.019-0.076,0.036-0.152,0.053-0.229
			c0.053-0.235,0.09-0.475,0.104-0.721C40.031,25.682,38.775,23.772,36.906,23.107z M31.106,19.866l-0.391,0.013v0.063v0.637v1.313
			c0.47,1.243,1.661,2.134,3.066,2.149c0.012,0,0.023,0,0.034,0c1.815,0,3.301-1.465,3.319-3.284
			c0.017-1.559-1.068-2.928-2.586-3.271C33.939,18.802,32.652,19.757,31.106,19.866z M29.993,30.561
			c-0.073,0.014-0.143,0.028-0.2,0.048c-0.153,0.049-0.317,0.146-0.592,0.333c-0.699,0.472-1.581,0.732-2.485,0.732
			c-1.578,0-2.812-0.528-3.733-1.351l-0.016-0.017c0.047,1.491-0.756,2.906-2.084,3.621c-0.998,1.084-0.966,2.771,0.091,3.813
			c0.24,0.236,0.514,0.417,0.805,0.548c0.155,0.057,0.313,0.108,0.47,0.16c0.91,0.222,1.91-0.022,2.614-0.736
			c0.607-0.616,0.876-1.465,0.761-2.3c-0.022-0.094-0.041-0.188-0.057-0.284c-0.005-0.02-0.01-0.038-0.015-0.058
			c-0.291-0.106-0.5-0.381-0.5-0.709c0-0.416,0.337-0.754,0.754-0.754c0.416,0,0.754,0.339,0.754,0.754
			c0,0.293-0.168,0.543-0.411,0.67c0.021,0.09,0.041,0.181,0.053,0.271c0.409,1.679,1.923,2.935,3.73,2.935
			c2.118,0,3.841-1.725,3.841-3.837C33.773,32.302,32.083,30.594,29.993,30.561z M17.087,28.295c1.609,0,3.014-0.887,3.764-2.2
			c-0.232,0.085-0.479,0.132-0.735,0.133c-0.003,0-0.006,0-0.009,0c-0.582,0-1.129-0.225-1.544-0.633
			c-0.861-0.85-0.874-2.238-0.029-3.095c0.114-0.116,0.244-0.215,0.38-0.302c-0.021-0.372,0.234-0.711,0.61-0.78
			c0.408-0.075,0.8,0.193,0.875,0.602s-0.194,0.801-0.602,0.876c-0.231,0.043-0.455-0.027-0.621-0.168
			c-0.079,0.056-0.155,0.116-0.224,0.186c-0.616,0.625-0.605,1.64,0.024,2.261c0.304,0.299,0.705,0.464,1.13,0.464
			c0.002,0,0.004,0,0.004,0c0.289-0.001,0.561-0.084,0.801-0.226l-0.001-0.009c-0.001-0.058-0.006-0.115-0.006-0.171
			c0-0.142,0.007-0.286,0.015-0.428l0.055-0.602c0.121-0.933,0.408-1.849,0.867-2.66c-0.98-0.184-1.852-0.673-2.517-1.366
			c-0.674-0.408-1.445-0.625-2.237-0.625c-1.512,0-2.844,0.783-3.624,1.965c-0.338,1.11-0.537,2.28-0.58,3.49
			C13.363,26.895,15.064,28.295,17.087,28.295z M22.189,21.001c0.151-0.212,0.314-0.417,0.495-0.606l0.701-0.608
			c0.869-0.636,1.97-1.031,3.331-1.031c0.819,0,1.558,0.216,2.194,0.642c0.171,0.118,0.316,0.217,0.475,0.217
			c0.28,0,0.667-0.424,0.973-0.794l0.055-0.065h0.305l-0.001,0.18v0.353l0.359-0.012c0.928-0.065,1.785-0.493,2.402-1.203
			s0.921-1.62,0.854-2.559c-0.036-0.521-0.188-1.015-0.435-1.459c-1.179-0.764-2.482-1.352-3.874-1.724
			c-0.721,0.166-1.371,0.549-1.866,1.118c-0.593,0.684-0.893,1.552-0.856,2.453c0.006,0.022,0.014,0.043,0.018,0.065
			c0.314,0.09,0.547,0.377,0.547,0.722c0,0.417-0.338,0.754-0.753,0.754c-0.416,0-0.754-0.338-0.754-0.754
			c0-0.271,0.145-0.507,0.359-0.64h-0.001c-0.002-0.021,0-0.044-0.002-0.065c-0.426-1.817-2.056-3.175-4-3.175
			c-2.27,0-4.115,1.845-4.115,4.115C18.6,19.015,20.167,20.743,22.189,21.001z M37.726,20.762c-0.008,0.665-0.181,1.287-0.479,1.833
			c1.324,0.517,2.355,1.591,2.883,2.897c-0.004-4.405-2.097-8.319-5.34-10.809c0.068,0.256,0.114,0.521,0.133,0.792
			c0.036,0.507-0.025,0.997-0.164,1.458C36.502,17.363,37.744,18.953,37.726,20.762z M35.345,32.662
			c-0.103,0-0.206-0.003-0.31-0.009c-0.388-0.023-0.763-0.092-1.128-0.197c0.289,0.587,0.456,1.246,0.456,1.945
			c0,1.136-0.435,2.167-1.142,2.953c2.449-1.389,4.424-3.512,5.624-6.076c-0.023,0.021-0.044,0.046-0.067,0.067
			C37.822,32.2,36.613,32.662,35.345,32.662z M19.919,34.295c-0.305,0.072-0.611,0.108-0.914,0.108c-1.69,0-3.26-1.09-3.791-2.788
			c-0.313-1.001-0.21-2.078,0.269-3.004c-1.069-0.371-1.973-1.102-2.568-2.046c0.366,4.74,3.152,8.8,7.129,10.939
			C19.455,36.523,19.412,35.31,19.919,34.295z M26.125,36.648c-0.148,0.546-0.429,1.057-0.843,1.478
			c-0.354,0.359-0.77,0.617-1.214,0.781c0.79,0.143,1.602,0.221,2.433,0.221c1.019,0,2.014-0.116,2.969-0.328
			C28.045,38.651,26.823,37.824,26.125,36.648z M18.603,19.205c-0.375-0.676-0.593-1.453-0.593-2.28
			c0-1.021,0.331-1.965,0.885-2.737c-2.14,1.443-3.846,3.477-4.89,5.868c0.845-0.682,1.917-1.093,3.082-1.093
			C17.605,18.963,18.116,19.047,18.603,19.205z M26.852,14.689c0.159-0.593,0.447-1.148,0.861-1.625
			c0.353-0.407,0.774-0.733,1.24-0.97c-0.797-0.145-1.615-0.225-2.452-0.225c-1.11,0-2.188,0.136-3.221,0.387
			C24.824,12.442,26.141,13.378,26.852,14.689z"/>
	</g>
</g>
</svg>
