<?xml version="1.0" encoding="utf-8"?>
<!-- Generator: Adobe Illustrator 16.0.0, SVG Export Plug-In . SVG Version: 6.00 Build 0)  -->
<!DOCTYPE svg PUBLIC "-//W3C//DTD SVG 1.1//EN" "http://www.w3.org/Graphics/SVG/1.1/DTD/svg11.dtd">
<svg version="1.1" id="Layer_1" xmlns="http://www.w3.org/2000/svg" xmlns:xlink="http://www.w3.org/1999/xlink" x="0px" y="0px"
	 width="32px" height="24px" viewBox="0 0 32 24" enable-background="new 0 0 32 24" xml:space="preserve">
<path fill="#D3A02A" d="M20.997,7.541c-1.881,2.595-2.82,5.326-2.82,8.195c0,2.594,0.632,4.619,1.897,6.077
	C21.339,23.271,23.086,24,25.314,24c2.02,0,3.639-0.62,4.857-1.859S32,19.26,32,17.217c0-1.676-0.487-3.035-1.463-4.08
	c-0.975-1.045-2.239-1.567-3.795-1.567c-0.256,0-0.517,0.017-0.783,0.051c-0.268,0.035-0.598,0.086-0.993,0.155v-0.551
	c0-1.469,0.511-2.904,1.532-4.304c1.021-1.4,2.601-2.812,4.736-4.235L29.598,0C25.744,2.433,22.877,4.947,20.997,7.541z M2.82,7.541
	C0.94,10.136,0,12.867,0,15.736c0,2.594,0.633,4.619,1.898,6.077S4.91,24,7.138,24c2.02,0,3.639-0.62,4.857-1.859
	s1.828-2.881,1.828-4.924c0-1.676-0.482-3.035-1.445-4.08c-0.963-1.045-2.211-1.567-3.744-1.567c-0.278,0-0.563,0.017-0.853,0.051
	c-0.29,0.035-0.621,0.086-0.992,0.155l-0.035-0.551c0-1.469,0.516-2.904,1.549-4.304c1.033-1.4,2.617-2.812,4.753-4.235L11.421,0
	C7.568,2.433,4.701,4.947,2.82,7.541z"/>
</svg>
