<?xml version="1.0" encoding="utf-8"?>
<!-- Generator: Adobe Illustrator 16.0.0, SVG Export Plug-In . SVG Version: 6.00 Build 0)  -->
<!DOCTYPE svg PUBLIC "-//W3C//DTD SVG 1.1//EN" "http://www.w3.org/Graphics/SVG/1.1/DTD/svg11.dtd">
<svg version="1.1" id="Layer_1" xmlns="http://www.w3.org/2000/svg" xmlns:xlink="http://www.w3.org/1999/xlink" x="0px" y="0px"
	 width="15px" height="11px" viewBox="0 0 15 11" enable-background="new 0 0 15 11" xml:space="preserve">
<g>
	<g>
		<path fill="#FFFFFF" d="M14.929,10.814C14.972,10.749,15,10.678,15,10.603c0-0.001,0-0.001,0-0.002V0.399
			c0-0.02-0.009-0.037-0.012-0.056c-0.004-0.029-0.006-0.058-0.017-0.085c-0.012-0.03-0.031-0.056-0.05-0.082
			c-0.01-0.014-0.014-0.03-0.025-0.043c-0.002-0.002-0.005-0.003-0.007-0.005C14.863,0.1,14.83,0.079,14.797,0.06
			c-0.013-0.007-0.022-0.017-0.034-0.022c-0.025-0.012-0.055-0.015-0.083-0.021c-0.024-0.005-0.048-0.014-0.072-0.015
			C14.604,0.002,14.601,0,14.597,0H0.405C0.4,0,0.396,0.002,0.393,0.002c-0.026,0.001-0.05,0.009-0.075,0.015
			C0.291,0.023,0.264,0.026,0.24,0.037c-0.02,0.008-0.035,0.024-0.054,0.036C0.161,0.089,0.135,0.104,0.114,0.126
			C0.111,0.129,0.107,0.13,0.104,0.133C0.088,0.15,0.081,0.172,0.068,0.192C0.056,0.213,0.04,0.231,0.031,0.254
			C0.017,0.29,0.012,0.327,0.009,0.364C0.008,0.376,0.001,0.387,0.001,0.399v0.016c0,0.003,0,0.006,0,0.01v10.176l0,0
			c0,0.087,0.034,0.169,0.09,0.24c0.011,0.014,0.017,0.031,0.03,0.043c0.001,0.001,0.001,0.003,0.002,0.004
			c0.02,0.019,0.044,0.028,0.067,0.043c0.021,0.013,0.039,0.029,0.062,0.039C0.301,10.989,0.353,11,0.405,11h14.192
			c0.052,0,0.104-0.011,0.152-0.03c0.027-0.011,0.05-0.03,0.073-0.047c0.019-0.013,0.039-0.02,0.056-0.035
			c0.001-0.001,0.001-0.002,0.002-0.003C14.9,10.864,14.913,10.838,14.929,10.814z M8.974,4.855c0,0-0.001,0.001-0.002,0.001
			S8.971,4.857,8.971,4.858L7.5,6.164L6.031,4.859C6.03,4.858,6.03,4.857,6.029,4.856C6.027,4.855,6.026,4.855,6.024,4.854
			L1.458,0.798h12.084L8.974,4.855z M5.166,5.165L0.809,9.612V1.295L5.166,5.165z M5.768,5.699L7.23,6.998
			C7.308,7.066,7.404,7.102,7.5,7.102c0.098,0,0.193-0.035,0.271-0.104l1.463-1.299l4.409,4.502H1.357L5.768,5.699z M9.835,5.165
			l4.357-3.87v8.318L9.835,5.165z"/>
	</g>
</g>
</svg>
