<?xml version="1.0" encoding="utf-8"?>
<!-- Generator: Adobe Illustrator 16.0.0, SVG Export Plug-In . SVG Version: 6.00 Build 0)  -->
<!DOCTYPE svg PUBLIC "-//W3C//DTD SVG 1.1//EN" "http://www.w3.org/Graphics/SVG/1.1/DTD/svg11.dtd">
<svg version="1.1" id="Layer_1" xmlns="http://www.w3.org/2000/svg" xmlns:xlink="http://www.w3.org/1999/xlink" x="0px" y="0px"
	 width="57px" height="40px" viewBox="0 0 57 40" enable-background="new 0 0 57 40" xml:space="preserve">
<g opacity="0.22">
	<g>
		<path fill="#FFFFFF" d="M9.697,30.842c-0.047,0.002-0.092,0.014-0.131,0.043c-0.138,0.103-0.225,0.275-0.283,0.445
			c-0.234,0.379,0.146,1.049,0.607,0.936c0.504-0.125,0.364-0.6,0.27-0.801C10.084,31.297,10.032,30.676,9.697,30.842z
			 M39.031,31.375c-0.865-0.113-1.794-0.459-2.549-0.814c-0.834-0.396-1.464-0.84-1.712-1.901c-0.157-0.674-0.684-2.378-0.705-2.388
			c-0.441-0.187-0.566,0.959-0.674,1.233c-0.096,0.24-0.717,2.163,0.3,3.896c0.346,0.59,0.536,2.202,2.474,1.361
			c0.747-0.325,1.533-0.613,2.332-0.699c0.259-0.029,0.89,0.039,1.08-0.17C39.965,31.465,39.301,31.411,39.031,31.375z
			 M22.935,26.271c-0.021,0.01-0.548,1.714-0.705,2.388c-0.248,1.062-0.877,1.506-1.711,1.901c-0.756,0.355-1.685,0.701-2.549,0.814
			c-0.271,0.036-0.934,0.09-0.546,0.518c0.19,0.209,0.821,0.141,1.08,0.17c0.798,0.086,1.585,0.374,2.333,0.699
			c1.937,0.841,2.127-0.771,2.473-1.361c1.016-1.732,0.396-3.655,0.3-3.896C23.5,27.23,23.376,26.085,22.935,26.271z M47.718,31.33
			c-0.059-0.17-0.146-0.343-0.283-0.445c-0.039-0.029-0.084-0.041-0.131-0.043c-0.336-0.166-0.388,0.455-0.465,0.623
			c-0.093,0.201-0.233,0.676,0.271,0.801C47.571,32.379,47.952,31.709,47.718,31.33z M46.325,19.776
			c1.763-4.547,0.415-11.21,0.415-11.21c-2.799,0.106-10.571,1.586-10.571,1.586C33.578,2.326,28.293,0,28.293,0
			c-4.146,2.326-7.876,10.257-7.876,10.257c-2.176-0.952-10.26-1.691-10.26-1.691c-1.037,5.182,0.207,11.316,0.207,11.316
			C4.25,19.882,0,23.267,0,23.267C3.327,32.982,9.259,37.899,16.702,40c-0.297-0.211-0.575-0.455-0.821-0.748
			c-0.328-0.396-0.474-0.784-0.654-1.191c-0.458-0.161-0.884-0.397-1.245-0.741c-0.71-0.676-1.538-1.228-1.712-2.264
			c-0.075-0.448-0.063-0.983,0.047-1.417c0.087-0.348,0.65-0.648,0.584-1.019c-0.517,0.035-1.197,0.282-1.648,0.546
			c-0.266,0.154-0.617,0.432-0.95,0.355c-0.321-0.072-0.453-0.391-0.736-0.516c-0.287-0.127-0.761-0.125-1.092-0.139
			C8.04,32.85,7.64,32.779,7.287,32.664c-0.367-0.119-0.536-0.492-0.119-0.637c0.314-0.109,0.951,0.177,1.256-0.056
			c0.196-0.149,0.271-0.573,0.406-0.79c0.182-0.291,0.364-0.385,0.596-0.605c0.16-0.153,0.337-0.793,0.512-0.856
			c0.283-0.102,0.446,0.482,0.625,0.641c0.322,0.284,0.527,0.148,0.914,0.162c0.342,0.014,0.607,0.185,0.912,0.317
			c0.792,0.339,1.214,0.117,2.033-0.205c1.043-0.411,2.006-0.957,2.914-1.608c0.619-0.445,1.322-0.699,1.681-1.326
			c0.266-0.334,0.386-0.74,0.458-1.178c0.091-0.227,0.178-0.452,0.231-0.69c0.307-0.568,0.492-1.177,0.59-1.875
			c0.114-0.818,0.009-1.637,0.02-2.448c-0.018-0.32,0.288-1.312,0.64-1.828c1.076-1.587,2.706-1.197,4.264-1.965
			c0.169-0.083,0.314-0.176,0.443-0.278c0.173-0.116,0.326-0.254,0.444-0.419c0.311-0.435,0.34-1.107,0.352-1.788
			c0.009-0.509-0.002-1.285-0.161-1.567c-0.045-0.082-0.381-0.521-0.482-0.557c-0.108-0.039-0.389-0.312-0.413-0.44
			c-0.054-0.283-0.167-0.711-0.021-0.975c0.072-0.129,0.229-0.069,0.253-0.223c0.028-0.19-0.038-0.47,0-0.663
			c0.078-0.395,0.107-0.702,0.23-1.083c0.281-0.872,1.103-1.638,1.876-1.841c0.543-0.143,1.1-0.13,1.521,0
			c0.766,0.236,1.595,0.969,1.876,1.841c0.124,0.381,0.152,0.688,0.229,1.083c0.039,0.192-0.027,0.473,0.001,0.663
			c0.024,0.154,0.181,0.094,0.252,0.223c0.147,0.264,0.034,0.692-0.02,0.975c-0.024,0.128-0.304,0.402-0.413,0.44
			c-0.101,0.035-0.437,0.475-0.481,0.557c-0.159,0.282-0.17,1.058-0.161,1.567c0.011,0.68,0.041,1.353,0.352,1.788
			c0.118,0.165,0.271,0.303,0.443,0.419c0.129,0.102,0.274,0.196,0.442,0.278c1.56,0.769,3.189,0.378,4.266,1.965
			c0.351,0.516,0.657,1.508,0.64,1.828c0.011,0.812-0.095,1.63,0.02,2.448c0.098,0.698,0.283,1.307,0.589,1.875
			c0.054,0.238,0.141,0.464,0.231,0.69c0.072,0.438,0.192,0.844,0.458,1.178c0.358,0.627,1.063,0.881,1.681,1.326
			c0.908,0.651,1.872,1.197,2.915,1.608c0.817,0.322,1.24,0.544,2.032,0.205c0.305-0.133,0.57-0.304,0.912-0.317
			c0.387-0.014,0.592,0.122,0.914-0.162c0.179-0.158,0.342-0.742,0.625-0.641c0.175,0.063,0.352,0.703,0.512,0.856
			c0.231,0.221,0.414,0.314,0.596,0.605c0.135,0.217,0.21,0.641,0.405,0.79c0.305,0.232,0.941-0.054,1.255,0.056
			c0.418,0.145,0.249,0.518-0.118,0.637c-0.354,0.115-0.753,0.186-1.188,0.203c-0.33,0.014-0.804,0.012-1.091,0.139
			c-0.283,0.125-0.415,0.443-0.736,0.516c-0.333,0.076-0.685-0.201-0.95-0.355c-0.451-0.264-1.131-0.511-1.649-0.546
			c-0.064,0.37,0.499,0.671,0.586,1.019c0.108,0.434,0.122,0.969,0.046,1.417c-0.174,1.036-1.002,1.588-1.712,2.264
			c-0.36,0.344-0.787,0.58-1.244,0.741c-0.18,0.407-0.326,0.796-0.655,1.191c-0.239,0.287-0.511,0.523-0.8,0.731
			C53.593,36.5,57,23.479,57,23.479C53.27,19.988,46.325,19.776,46.325,19.776z"/>
	</g>
</g>
</svg>
