<?xml version="1.0" encoding="utf-8"?>
<!-- Generator: Adobe Illustrator 16.0.0, SVG Export Plug-In . SVG Version: 6.00 Build 0)  -->
<!DOCTYPE svg PUBLIC "-//W3C//DTD SVG 1.1//EN" "http://www.w3.org/Graphics/SVG/1.1/DTD/svg11.dtd">
<svg version="1.1" id="Layer_1" xmlns="http://www.w3.org/2000/svg" xmlns:xlink="http://www.w3.org/1999/xlink" x="0px" y="0px"
	 width="52px" height="52px" viewBox="0 0 52 52" enable-background="new 0 0 52 52" xml:space="preserve">
<path opacity="0.5" fill-rule="evenodd" clip-rule="evenodd" d="M26,0c14.359,0,26,11.641,26,26S40.359,52,26,52S0,40.359,0,26
	S11.641,0,26,0z"/>
<path fill-rule="evenodd" clip-rule="evenodd" fill="#DAC867" d="M26,5.5c11.322,0,20.5,9.178,20.5,20.5
	c0,11.321-9.178,20.5-20.5,20.5C14.678,46.5,5.5,37.321,5.5,26C5.5,14.678,14.678,5.5,26,5.5z"/>
<g>
	<g>
		<path fill-rule="evenodd" clip-rule="evenodd" fill="#2A2A2A" d="M32.75,30.5v2.25h-13.5V30.5H17V35h18v-4.5H32.75z M30.5,26
			h-3.375v-9h-2.25v9H21.5l4.5,5.625L30.5,26z"/>
	</g>
</g>
</svg>
