<?xml version="1.0" encoding="utf-8"?>
<!-- Generator: Adobe Illustrator 16.0.0, SVG Export Plug-In . SVG Version: 6.00 Build 0)  -->
<!DOCTYPE svg PUBLIC "-//W3C//DTD SVG 1.1//EN" "http://www.w3.org/Graphics/SVG/1.1/DTD/svg11.dtd">
<svg version="1.1" id="Layer_1" xmlns="http://www.w3.org/2000/svg" xmlns:xlink="http://www.w3.org/1999/xlink" x="0px" y="0px"
	 width="20px" height="24px" viewBox="0 0 20 24" enable-background="new 0 0 20 24" xml:space="preserve">
<g>
	<g>
		<path fill="#FFFFFF" d="M17.079,7.333h-1.741l-0.082,0.181c-0.124,0.261-0.269,0.511-0.432,0.751l-0.156,0.272h0.365v5.523h-3.414
			v-0.219l-0.732,1.272h0.032v3.69H9.314v-3.69h0.06l-0.76-1.321v0.268H5.199V8.537h0.394L5.428,8.25
			c-0.154-0.226-0.299-0.477-0.42-0.732L4.924,7.333H2.921C1.31,7.333,0,8.664,0,10.301V21.03C0,22.668,1.31,24,2.921,24h14.158
			C18.689,24,20,22.668,20,21.03V10.301C20,8.664,18.689,7.333,17.079,7.333z M4.5,22.795H2.921c-0.949,0-1.722-0.792-1.722-1.765
			v-1.197H4.5V22.795z M4.5,18.804H1.199v-3.69H4.5V18.804z M4.5,14.06H1.199v-3.758c0-0.973,0.772-1.765,1.722-1.765H4.5V14.06z
			 M8.614,22.795H5.199v-2.962h3.415V22.795z M8.614,18.804H5.199v-3.69h3.415V18.804z M10.919,22.795H9.314v-2.962h1.604V22.795z
			 M15.033,22.795h-3.414v-2.962h3.414V22.795z M15.033,18.804h-3.414v-3.69h3.414V18.804z M18.801,21.03
			c0,0.973-0.772,1.765-1.722,1.765h-1.346v-2.962h3.067V21.03z M18.801,18.804h-3.067v-3.69h3.067V18.804z M18.801,14.06h-3.067
			V8.537h1.346c0.949,0,1.722,0.792,1.722,1.765V14.06z M5.457,7.449c0.113,0.238,0.245,0.465,0.392,0.68l4.282,7.446l4.282-7.446
			c0.146-0.215,0.277-0.442,0.391-0.68l0.092-0.204c0.267-0.628,0.415-1.319,0.415-2.044c0-2.872-2.319-5.201-5.18-5.201
			C7.27,0,4.95,2.329,4.95,5.201c0,0.726,0.147,1.417,0.415,2.044L5.457,7.449z M10.131,1.979c1.727,0,3.126,1.406,3.126,3.14
			c0,1.733-1.399,3.139-3.126,3.139c-1.728,0-3.127-1.406-3.127-3.139C7.004,3.385,8.403,1.979,10.131,1.979z M9.438,17.059h1.387
			v-1.394H9.438V17.059z"/>
	</g>
</g>
</svg>
