<?xml version="1.0" encoding="utf-8"?>
<!-- Generator: Adobe Illustrator 16.0.0, SVG Export Plug-In . SVG Version: 6.00 Build 0)  -->
<!DOCTYPE svg PUBLIC "-//W3C//DTD SVG 1.1//EN" "http://www.w3.org/Graphics/SVG/1.1/DTD/svg11.dtd">
<svg version="1.1" id="Layer_1" xmlns="http://www.w3.org/2000/svg" xmlns:xlink="http://www.w3.org/1999/xlink" x="0px" y="0px"
	 width="24px" height="24px" viewBox="0 0 24 24" enable-background="new 0 0 24 24" xml:space="preserve">
<path fill-rule="evenodd" clip-rule="evenodd" fill="#FFFFFF" d="M24,22.784L22.785,24l-5.832-5.831
	c-1.794,1.519-4.113,2.439-6.649,2.439C4.613,20.608,0,15.995,0,10.303C0,4.613,4.613,0,10.304,0s10.305,4.613,10.305,10.303
	c0,2.537-0.92,4.855-2.439,6.651L24,22.784z M18.891,10.303c0-4.743-3.845-8.586-8.587-8.586s-8.586,3.844-8.586,8.586
	c0,4.744,3.844,8.587,8.586,8.587S18.891,15.047,18.891,10.303z"/>
</svg>
