<?xml version="1.0" encoding="utf-8"?>
<!-- Generator: Adobe Illustrator 16.0.0, SVG Export Plug-In . SVG Version: 6.00 Build 0)  -->
<!DOCTYPE svg PUBLIC "-//W3C//DTD SVG 1.1//EN" "http://www.w3.org/Graphics/SVG/1.1/DTD/svg11.dtd">
<svg version="1.1" id="Layer_1" xmlns="http://www.w3.org/2000/svg" xmlns:xlink="http://www.w3.org/1999/xlink" x="0px" y="0px"
	 width="260px" height="180px" viewBox="0 0 260 180" enable-background="new 0 0 260 180" xml:space="preserve">
<g>
	<g>
		<path fill="#E7E7E7" d="M93.502,0C1.695,0-72.994,74.693-72.994,166.503c0,91.807,74.689,166.498,166.497,166.498
			C185.31,333.001,260,258.31,260,166.503C260,74.693,185.31,0,93.502,0z M93.502,322.155c-85.826,0-155.651-69.826-155.651-155.652
			c0-85.83,69.825-155.655,155.651-155.655c85.827,0,155.65,69.826,155.65,155.655C249.152,252.329,179.329,322.155,93.502,322.155z
			 M-1.488,200.638c-3.54,0-6.989-0.387-10.322-1.098c-4.602,8.176-5.688,17.883-2.883,26.867
			c5.595,17.947,24.757,28.002,42.699,22.396c1.813-0.564,3.521-1.301,5.165-2.129c0.016-0.016,0.028-0.033,0.044-0.049l0.018,0.02
			c14.298-7.23,21.853-23.754,17.417-39.58c-5.933-7.908-9.885-17.299-11.919-27.104C29.67,192.464,15.039,200.638-1.488,200.638z
			 M198.513,142.334c-7.225,9.335-18.503,15.371-31.16,15.372c-0.139,0-0.279-0.002-0.418-0.002
			c-18.57-0.193-34.011-13.281-37.987-30.641c-5.89-14.651-18.031-18.781-32.925-18.008c-26.246,1.369-32.548,36.27-32.548,54.543
			s5.842,54.895,32.548,56.623c4.469,0.291,12.938-0.85,20.114-4.941c8.015-5.289,12.854-14.135,15.901-24.18h4.901v5.914h0.056
			c0,9.791,7.965,17.756,17.755,17.756c9.791,0,17.756-7.965,17.756-17.756c0-7.529-4.72-13.963-11.353-16.541
			c-1.264,1.713-3.28,2.84-5.573,2.84c-3.835,0-6.943-3.109-6.943-6.943c0-3.836,3.108-6.943,6.943-6.943
			c3.199,0,5.866,2.176,6.671,5.121c9.401,3.148,16.204,12.02,16.204,22.467c0,12.943-10.429,23.479-23.321,23.688
			c2.893,2.199,5.523,4.719,7.805,7.547c5.346,2.545,11.074,4.02,17.037,4.369c12.312,0.73,24.181-3.412,33.408-11.662
			c6.789-6.066,11.529-13.826,13.866-22.434c0.185-0.768,0.364-1.537,0.534-2.311c0.518-2.381,0.904-4.801,1.051-7.279
			C230.053,168.319,217.377,149.05,198.513,142.334z M139.99,109.634l-3.94,0.132v20.312c4.74,12.527,16.768,21.529,30.949,21.678
			c0.115,0,0.234,0.003,0.351,0.003c18.304,0,33.286-14.792,33.478-33.136c0.164-15.729-10.788-29.545-26.079-32.999
			C168.59,98.901,155.594,108.54,139.99,109.634z M128.757,217.532c-0.74,0.135-1.44,0.289-2.021,0.48
			c-1.523,0.5-3.201,1.469-5.961,3.369c-7.052,4.758-15.955,7.381-25.103,7.381c-15.928,0-28.38-5.32-37.667-13.621l-0.166-0.172
			c0.476,15.051-7.613,29.328-21.015,36.537c-10.072,10.934-9.754,28.014,0.913,38.529c2.421,2.387,5.185,4.205,8.12,5.518
			c1.565,0.578,3.154,1.104,4.745,1.625c9.176,2.234,19.267-0.232,26.369-7.43c6.126-6.221,8.847-14.795,7.678-23.246
			c-0.225-0.951-0.409-1.914-0.57-2.889c-0.049-0.195-0.094-0.393-0.147-0.588c-2.937-1.057-5.05-3.838-5.05-7.139
			c0-4.205,3.408-7.613,7.612-7.613s7.613,3.408,7.613,7.613c0,2.953-1.699,5.484-4.156,6.746c0.215,0.92,0.413,1.838,0.549,2.764
			c4.118,16.982,19.408,29.646,37.641,29.646c21.379,0,38.77-17.391,38.77-38.771C166.911,235.103,149.851,217.866,128.757,217.532z
			 M-1.488,194.687c16.241,0,30.415-8.953,37.988-22.191c-2.35,0.852-4.847,1.324-7.427,1.336h-0.093
			c-5.862,0-11.386-2.268-15.575-6.396c-8.691-8.568-8.825-22.576-0.299-31.227c1.158-1.176,2.466-2.165,3.839-3.044
			c-0.207-3.751,2.362-7.165,6.153-7.867c4.117-0.763,8.072,1.957,8.834,6.074c0.761,4.117-1.958,8.071-6.074,8.833
			c-2.325,0.432-4.575-0.275-6.251-1.689c-0.801,0.561-1.573,1.166-2.268,1.871c-6.221,6.313-6.114,16.545,0.242,22.814
			c3.064,3.021,7.11,4.682,11.397,4.682c0.023,0,0.046,0,0.046,0c2.918-0.012,5.659-0.84,8.08-2.271l-0.007-0.092
			c-0.016-0.576-0.064-1.156-0.064-1.726c0-1.437,0.075-2.884,0.155-4.323l0.552-6.074c1.214-9.412,4.115-18.656,8.744-26.824
			c-9.89-1.863-18.688-6.8-25.395-13.783c-6.803-4.121-14.59-6.314-22.579-6.314c-15.259,0-28.707,7.896-36.561,19.831
			c-3.416,11.195-5.421,22.999-5.857,35.206C-39.053,180.55-21.903,194.687-1.488,194.687z M49.996,121.099
			c1.535-2.141,3.165-4.213,4.985-6.121l7.08-6.129c8.774-6.424,19.886-10.41,33.611-10.41c8.288,0,15.739,2.186,22.165,6.477
			c1.729,1.191,3.19,2.203,4.784,2.203c2.83,0,6.733-4.288,9.815-8.016l0.546-0.664h3.077l-0.01,1.829v3.55l3.632-0.119
			c9.365-0.66,18.013-4.977,24.241-12.144c6.23-7.169,9.292-16.337,8.629-25.81c-0.369-5.261-1.9-10.246-4.385-14.725
			c-11.9-7.71-25.055-13.639-39.107-17.391c-7.274,1.671-13.827,5.542-18.817,11.283c-5.99,6.897-9.019,15.648-8.652,24.737
			c0.051,0.223,0.124,0.439,0.171,0.663c3.186,0.91,5.532,3.811,5.532,7.289c0,4.205-3.409,7.612-7.613,7.612
			s-7.612-3.408-7.612-7.612c0-2.74,1.459-5.122,3.631-6.462l-0.018,0.001c-0.016-0.222-0.002-0.442-0.015-0.665
			C91.36,52.147,74.913,38.446,55.288,38.446c-22.889,0-41.512,18.623-41.512,41.514C13.775,101.055,29.602,118.486,49.996,121.099z
			 M206.776,118.687c-0.07,6.695-1.818,12.984-4.834,18.48c13.354,5.219,23.77,16.053,29.093,29.228
			c-0.034-44.442-21.163-83.929-53.896-109.048c0.697,2.583,1.153,5.251,1.344,7.981c0.359,5.11-0.272,10.054-1.656,14.696
			C194.429,84.379,206.966,100.431,206.776,118.687z M182.751,238.728c-1.041,0-2.082-0.029-3.128-0.09
			c-3.888-0.229-7.676-0.926-11.358-1.986c2.913,5.934,4.596,12.576,4.596,19.621c0,11.48-4.385,21.932-11.52,29.857
			c24.703-14.041,44.631-35.494,56.748-61.357c-0.237,0.221-0.446,0.461-0.688,0.678
			C207.751,234.075,195.549,238.728,182.751,238.728z M27.092,255.214c-3.075,0.729-6.163,1.092-9.212,1.092
			c-17.059,0-32.91-11-38.255-28.125c-3.15-10.1-2.115-20.979,2.713-30.309c-10.791-3.744-19.906-11.115-25.915-20.65
			c3.692,47.828,31.807,88.805,71.929,110.426C22.411,277.765,21.979,265.456,27.092,255.214z M89.708,279.021
			c-1.484,5.51-4.325,10.664-8.502,14.906c-3.567,3.619-7.771,6.227-12.25,7.887c7.969,1.436,16.163,2.227,24.546,2.227
			c10.3,0,20.321-1.168,29.973-3.314C109.104,299.222,96.756,290.88,89.708,279.021z M13.81,102.97
			c-3.8-6.822-5.982-14.663-5.982-23.01c0-10.301,3.334-19.817,8.93-27.604c-21.598,14.55-38.818,35.079-49.344,59.202
			c8.529-6.886,19.335-11.032,31.099-11.032C3.746,100.524,8.897,101.376,13.81,102.97z M97.04,57.41
			c1.612-5.983,4.528-11.583,8.712-16.399c3.564-4.102,7.813-7.39,12.517-9.782c-8.039-1.462-16.305-2.266-24.766-2.266
			c-11.202,0-22.081,1.371-32.507,3.899C76.579,34.74,89.865,44.178,97.04,57.41z"/>
	</g>
</g>
</svg>
