<?xml version="1.0" encoding="utf-8"?>
<!-- Generator: Adobe Illustrator 16.0.0, SVG Export Plug-In . SVG Version: 6.00 Build 0)  -->
<!DOCTYPE svg PUBLIC "-//W3C//DTD SVG 1.1//EN" "http://www.w3.org/Graphics/SVG/1.1/DTD/svg11.dtd">
<svg version="1.1" id="Layer_1" xmlns="http://www.w3.org/2000/svg" xmlns:xlink="http://www.w3.org/1999/xlink" x="0px" y="0px"
	 width="255px" height="255px" viewBox="0 0 255 255" enable-background="new 0 0 255 255" xml:space="preserve">
<path opacity="0.1" fill="none" stroke="#9B9A9A" stroke-width="2" stroke-miterlimit="10" d="M238.361,105.629
	c2.279-8.053,4.313-16.512,6.071-25.168l0.263-1.296l-1.107-0.722c-7.385-4.818-14.846-9.305-22.179-13.347
	c-0.999-8.374-2.354-16.971-4.03-25.573l-0.253-1.297l-1.301-0.246c-8.669-1.621-17.278-2.91-25.603-3.839
	c-4.042-7.218-8.578-14.647-13.503-22.083l-0.729-1.106l-1.304,0.274c-8.631,1.818-17.078,3.918-25.118,6.248
	c-6.572-5.171-13.609-10.293-20.932-15.23L127.537,1.5l-1.09,0.75c-7.306,4.999-14.306,10.172-20.82,15.384
	c-8.031-2.264-16.491-4.302-25.167-6.062l-1.298-0.266l-0.725,1.114c-4.835,7.421-9.321,14.877-13.338,22.176
	c-8.321,0.989-16.929,2.344-25.576,4.029l-1.307,0.255l-0.241,1.302c-1.612,8.665-2.907,17.27-3.839,25.6
	c-7.305,4.097-14.732,8.636-22.084,13.504l-1.104,0.733l0.271,1.294c1.807,8.575,3.907,17.021,6.248,25.124
	c-5.227,6.637-10.343,13.678-15.23,20.93L1.5,128.469l0.746,1.092c5.057,7.367,10.222,14.367,15.392,20.812
	c-2.254,7.98-4.297,16.443-6.069,25.172l-0.263,1.293l1.109,0.727c7.325,4.776,14.779,9.266,22.178,13.345
	c1,8.38,2.354,16.979,4.028,25.57l0.254,1.308l1.302,0.24c8.777,1.637,17.377,2.924,25.601,3.837
	c4.101,7.307,8.646,14.73,13.505,22.086l0.729,1.103l1.304-0.273c8.676-1.825,17.123-3.927,25.127-6.246
	c6.552,5.165,13.59,10.291,20.921,15.23l1.101,0.737l1.092-0.745c7.271-4.979,14.28-10.146,20.819-15.386
	c8.063,2.28,16.532,4.312,25.168,6.064l1.295,0.261l0.726-1.108c4.814-7.384,9.302-14.846,13.348-22.177
	c8.267-0.979,16.865-2.335,25.568-4.029l1.308-0.257l0.24-1.298c1.638-8.779,2.924-17.378,3.837-25.603
	c7.219-4.044,14.639-8.578,22.086-13.504l1.104-0.729l-0.274-1.305c-1.803-8.563-3.904-17.011-6.246-25.117
	c5.18-6.584,10.305-13.621,15.229-20.931l0.737-1.099l-0.745-1.091C248.789,119.191,243.612,112.184,238.361,105.629z"/>
<g opacity="0.35">
	<path fill="#D8C663" d="M128,24.5c57.07,0,103.5,46.43,103.5,103.5c0,57.071-46.43,103.5-103.5,103.5S24.5,185.07,24.5,128
		C24.5,70.93,70.93,24.5,128,24.5 M128,15.5C65.868,15.5,15.5,65.868,15.5,128c0,62.132,50.368,112.5,112.5,112.5
		c62.132,0,112.5-50.368,112.5-112.5C240.5,65.868,190.132,15.5,128,15.5L128,15.5z"/>
</g>
</svg>
