<?xml version="1.0" encoding="utf-8"?>
<!-- Generator: Adobe Illustrator 16.0.0, SVG Export Plug-In . SVG Version: 6.00 Build 0)  -->
<!DOCTYPE svg PUBLIC "-//W3C//DTD SVG 1.1//EN" "http://www.w3.org/Graphics/SVG/1.1/DTD/svg11.dtd">
<svg version="1.1" id="Layer_1" xmlns="http://www.w3.org/2000/svg" xmlns:xlink="http://www.w3.org/1999/xlink" x="0px" y="0px"
	 width="820px" height="320px" viewBox="0 0 820 320" enable-background="new 0 0 820 320" xml:space="preserve">
<g>
	<g>
		<path fill="#F4F4F4" d="M410.999-518.003c-231.034,0-418.991,187.966-418.991,419.008C-7.993,132.038,179.964,320,410.999,320
			c231.035,0,418.994-187.962,418.994-418.995C829.992-330.037,642.033-518.003,410.999-518.003z M410.999,292.705
			c-215.981,0-391.697-175.718-391.697-391.7c0-215.991,175.715-391.709,391.697-391.709c215.984,0,391.697,175.718,391.697,391.709
			C802.695,116.987,626.982,292.705,410.999,292.705z M171.954-13.096c-8.909,0-17.589-0.974-25.976-2.762
			c-11.581,20.574-14.313,45.003-7.254,67.615c14.079,45.162,62.301,70.464,107.453,56.36c4.562-1.423,8.863-3.277,12.998-5.358
			c0.041-0.04,0.07-0.084,0.11-0.122l0.046,0.047c35.98-18.195,54.992-59.778,43.828-99.603
			c-14.931-19.901-24.875-43.531-29.996-68.209C250.365-33.664,213.545-13.096,171.954-13.096z M675.26-159.817
			c-18.184,23.493-46.564,38.683-78.414,38.686c-0.352,0-0.705-0.006-1.055-0.006c-46.732-0.486-85.588-33.422-95.594-77.106
			c-14.822-36.871-45.377-47.265-82.855-45.316c-66.05,3.446-81.908,91.272-81.908,137.256c0,45.988,14.702,138.146,81.908,142.493
			c11.246,0.733,32.559-2.14,50.615-12.434c20.172-13.309,32.346-35.572,40.018-60.848h12.334v14.882h0.141
			c0,24.641,20.043,44.685,44.68,44.685c24.639,0,44.684-20.044,44.684-44.685c0-18.948-11.877-35.141-28.568-41.626
			c-3.182,4.313-8.256,7.146-14.025,7.146c-9.652,0-17.473-7.825-17.473-17.473c0-9.651,7.82-17.474,17.473-17.474
			c8.051,0,14.762,5.478,16.785,12.885c23.66,7.925,40.779,30.252,40.779,56.541c0,32.57-26.246,59.086-58.689,59.607
			c7.279,5.539,13.902,11.877,19.643,18.992c13.451,6.405,27.869,10.118,42.875,10.999c30.98,1.834,60.85-8.588,84.072-29.351
			c17.084-15.265,29.012-34.793,34.893-56.454c0.463-1.933,0.916-3.869,1.346-5.816c1.301-5.987,2.273-12.08,2.643-18.313
			C754.631-94.425,722.73-142.918,675.26-159.817z M527.986-242.105l-9.918,0.33v51.116c11.932,31.523,42.197,54.179,77.885,54.549
			c0.293,0,0.592,0.009,0.883,0.009c46.061,0,83.766-37.224,84.246-83.387c0.414-39.581-27.146-74.351-65.627-83.042
			C599.957-269.114,567.252-244.859,527.986-242.105z M499.719,29.424c-1.863,0.339-3.627,0.728-5.09,1.208
			c-3.834,1.258-8.057,3.696-15,8.478c-17.746,11.973-40.15,18.575-63.17,18.575c-40.084,0-71.418-13.39-94.789-34.277l-0.417-0.432
			c1.197,37.873-19.159,73.799-52.885,91.942c-25.347,27.516-24.547,70.496,2.298,96.962c6.092,6.005,13.047,10.578,20.435,13.886
			c3.938,1.454,7.938,2.776,11.94,4.089c23.092,5.623,48.486-0.588,66.358-18.699c15.418-15.653,22.263-37.229,19.321-58.5
			c-0.565-2.394-1.028-4.816-1.435-7.266c-0.125-0.496-0.237-0.988-0.371-1.481c-7.39-2.657-12.708-9.659-12.708-17.966
			c0-10.581,8.576-19.16,19.157-19.16s19.16,8.579,19.16,19.16c0,7.432-4.275,13.801-10.459,16.978
			c0.542,2.315,1.038,4.626,1.382,6.953c10.363,42.737,48.841,74.608,94.722,74.608c53.801,0,97.564-43.766,97.564-97.568
			C595.732,73.636,552.801,30.265,499.719,29.424z M171.954-28.067c40.869,0,76.539-22.534,95.597-55.849
			c-5.915,2.145-12.198,3.336-18.69,3.365h-0.234c-14.751,0-28.654-5.71-39.194-16.1c-21.872-21.563-22.208-56.813-0.753-78.582
			c2.916-2.959,6.205-5.448,9.662-7.66c-0.521-9.439,5.944-18.032,15.485-19.798c10.361-1.918,20.313,4.925,22.231,15.285
			c1.916,10.361-4.927,20.313-15.285,22.229c-5.852,1.084-11.514-0.692-15.731-4.252c-2.017,1.409-3.959,2.934-5.707,4.707
			c-15.655,15.885-15.386,41.639,0.609,57.413c7.712,7.602,17.893,11.784,28.683,11.784c0.058,0,0.116,0,0.116,0
			c7.344-0.028,14.241-2.116,20.333-5.718l-0.017-0.232c-0.041-1.449-0.163-2.91-0.163-4.341c0-3.614,0.188-7.258,0.392-10.88
			l1.388-15.285c3.054-23.688,10.355-46.948,22.005-67.502c-24.889-4.692-47.031-17.114-63.906-34.688
			c-17.119-10.37-36.716-15.888-56.82-15.888c-38.4,0-72.241,19.869-92.006,49.903c-8.596,28.174-13.642,57.877-14.74,88.595
			C77.42-63.644,120.579-28.067,171.954-28.067z M301.514-213.257c3.863-5.385,7.964-10.599,12.546-15.404l17.815-15.424
			c22.081-16.163,50.044-26.197,84.584-26.197c20.857,0,39.607,5.504,55.779,16.3c4.348,2.997,8.027,5.544,12.039,5.544
			c7.121,0,16.941-10.79,24.701-20.171l1.373-1.673h7.744l-0.027,4.605v8.932l9.141-0.301c23.568-1.661,45.33-12.523,61.004-30.559
			c15.678-18.041,23.385-41.111,21.715-64.948c-0.928-13.239-4.781-25.786-11.033-37.057
			c-29.949-19.403-63.051-34.323-98.418-43.766c-18.303,4.205-34.793,13.946-47.352,28.394
			c-15.076,17.357-22.695,39.377-21.773,62.25c0.127,0.563,0.313,1.104,0.43,1.67c8.016,2.289,13.922,9.59,13.922,18.343
			c0,10.581-8.578,19.156-19.16,19.156c-10.58,0-19.156-8.575-19.156-19.156c0-6.896,3.671-12.889,9.138-16.262l-0.045,0.002
			c-0.039-0.559-0.004-1.112-0.037-1.672c-10.835-46.122-52.226-80.602-101.613-80.602c-57.6,0-104.465,46.863-104.465,104.469
			C210.365-263.697,250.191-219.83,301.514-213.257z M696.053-219.326c-0.176,16.848-4.576,32.675-12.162,46.508
			c33.604,13.132,59.816,40.397,73.211,73.551c-0.086-111.839-53.256-211.21-135.629-274.422c1.754,6.5,2.902,13.216,3.383,20.084
			c0.904,12.859-0.688,25.302-4.168,36.984C664.982-305.66,696.531-265.269,696.053-219.326z M635.594,82.76
			c-2.617,0-5.24-0.073-7.871-0.227c-9.785-0.574-19.316-2.327-28.584-4.999c7.332,14.935,11.566,31.651,11.566,49.379
			c0,28.89-11.037,55.188-28.99,75.134c62.166-35.335,112.313-89.32,142.807-154.405c-0.598,0.554-1.121,1.162-1.73,1.704
			C698.508,71.051,667.801,82.76,635.594,82.76z M243.876,124.247c-7.738,1.835-15.508,2.747-23.182,2.747
			c-42.93,0-82.819-27.683-96.27-70.776c-7.926-25.417-5.324-52.791,6.828-76.271c-27.155-9.42-50.094-27.971-65.216-51.965
			c9.292,120.355,80.043,223.474,181.01,277.888C232.095,180.996,231.009,150.023,243.876,124.247z M401.452,184.156
			c-3.735,13.864-10.885,26.84-21.396,37.511c-8.979,9.112-19.557,15.671-30.827,19.848c20.055,3.613,40.675,5.604,61.77,5.604
			c25.921,0,51.136-2.938,75.429-8.341C450.262,234.993,419.186,214.004,401.452,184.156z M210.452-258.878
			c-9.563-17.168-15.056-36.899-15.056-57.905c0-25.922,8.39-49.87,22.472-69.468c-54.351,36.616-97.687,88.277-124.175,148.982
			c21.463-17.328,48.656-27.762,78.261-27.762C185.126-265.03,198.089-262.889,210.452-258.878z M419.9-373.53
			c4.059-15.057,11.396-29.15,21.926-41.268c8.969-10.323,19.662-18.598,31.496-24.617c-20.229-3.681-41.031-5.703-62.324-5.703
			c-28.189,0-55.565,3.451-81.805,9.813C368.411-430.578,401.846-406.827,419.9-373.53z"/>
	</g>
</g>
</svg>
