<?xml version="1.0" encoding="utf-8"?>
<!-- Generator: Adobe Illustrator 16.0.0, SVG Export Plug-In . SVG Version: 6.00 Build 0)  -->
<!DOCTYPE svg PUBLIC "-//W3C//DTD SVG 1.1//EN" "http://www.w3.org/Graphics/SVG/1.1/DTD/svg11.dtd">
<svg version="1.1" id="Layer_1" xmlns="http://www.w3.org/2000/svg" xmlns:xlink="http://www.w3.org/1999/xlink" x="0px" y="0px"
	 width="345px" height="450px" viewBox="0 0 345 450" enable-background="new 0 0 345 450" xml:space="preserve">
<g>
	<g>
		<path fill="#F4F4F4" d="M-15.015-269.002c-198.513,0-360.012,161.498-360.012,360.006C-375.027,289.505-213.528,451-15.015,451
			C183.498,451,345,289.505,345,91.004C345-107.504,183.498-269.002-15.015-269.002z M-15.015,427.549
			c-185.579,0-336.56-150.976-336.56-336.545c0-185.578,150.981-336.552,336.56-336.552c185.581,0,336.56,150.975,336.56,336.552
			C321.545,276.573,170.566,427.549-15.015,427.549z M-220.411,164.808c-7.655,0-15.113-0.837-22.319-2.373
			c-9.951,17.678-12.299,38.666-6.233,58.095c12.097,38.803,53.531,60.541,92.328,48.424c3.919-1.223,7.615-2.815,11.168-4.604
			c0.035-0.035,0.06-0.072,0.095-0.104l0.04,0.04c30.915-15.633,47.25-51.361,37.659-85.578
			c-12.83-17.099-21.374-37.4-25.773-58.604C-153.037,147.136-184.674,164.808-220.411,164.808z M212.048,38.747
			c-15.623,20.185-40.009,33.236-67.376,33.238c-0.302,0-0.605-0.005-0.906-0.005C103.611,71.561,70.227,43.264,61.627,5.73
			C48.893-25.949,22.639-34.878-9.564-33.205c-56.752,2.961-70.378,78.421-70.378,117.929c0,39.513,12.632,118.693,70.378,122.429
			c9.662,0.629,27.975-1.838,43.491-10.684c17.331-11.434,27.793-30.563,34.384-52.279h10.599v12.787h0.12
			c0,21.171,17.221,38.393,38.391,38.393c21.171,0,38.393-17.222,38.393-38.393c0-16.28-10.205-30.193-24.545-35.766
			c-2.734,3.705-7.095,6.141-12.053,6.141c-8.292,0-15.014-6.723-15.014-15.013c0-8.292,6.722-15.013,15.014-15.013
			c6.918,0,12.685,4.707,14.423,11.07c20.33,6.809,35.039,25.992,35.039,48.58c0,27.983-22.551,50.766-50.429,51.214
			c6.256,4.759,11.945,10.204,16.879,16.317c11.557,5.504,23.945,8.693,36.84,9.45c26.619,1.576,52.283-7.378,72.236-25.218
			c14.68-13.115,24.93-29.893,29.981-48.504c0.399-1.661,0.787-3.324,1.155-4.998c1.119-5.145,1.955-10.379,2.271-15.734
			C280.246,94.931,252.836,53.266,212.048,38.747z M85.506-31.955l-8.521,0.284v43.918c10.252,27.084,36.256,46.55,66.92,46.868
			c0.252,0,0.508,0.008,0.76,0.008c39.576,0,71.973-31.983,72.387-71.645c0.355-34.008-23.326-63.881-56.39-71.349
			C147.346-55.16,119.244-34.32,85.506-31.955z M61.217,201.34c-1.602,0.291-3.115,0.625-4.373,1.039
			c-3.295,1.08-6.923,3.174-12.889,7.283c-15.248,10.287-34.499,15.959-54.278,15.959c-34.441,0-61.365-11.504-81.446-29.45
			l-0.358-0.372c1.028,32.541-16.462,63.408-45.44,78.996c-21.779,23.642-21.092,60.57,1.975,83.31
			c5.234,5.159,11.211,9.089,17.558,11.93c3.384,1.251,6.821,2.386,10.26,3.514c19.841,4.831,41.66-0.505,57.017-16.065
			c13.248-13.449,19.129-31.988,16.602-50.264c-0.485-2.057-0.884-4.139-1.232-6.242c-0.107-0.426-0.204-0.85-0.319-1.272
			c-6.35-2.284-10.919-8.3-10.919-15.437c0-9.091,7.369-16.462,16.46-16.462c9.092,0,16.462,7.371,16.462,16.462
			c0,6.385-3.673,11.857-8.987,14.588c0.466,1.989,0.892,3.975,1.188,5.973c8.904,36.719,41.967,64.104,81.389,64.104
			c46.227,0,83.83-37.604,83.83-83.83C143.715,239.326,106.826,202.063,61.217,201.34z M-220.411,151.943
			c35.116,0,65.765-19.359,82.141-47.983c-5.083,1.843-10.481,2.866-16.059,2.891h-0.202c-12.675,0-24.62-4.905-33.677-13.833
			c-18.793-18.526-19.082-48.813-0.647-67.516c2.505-2.542,5.332-4.682,8.302-6.582c-0.448-8.11,5.107-15.494,13.305-17.01
			c8.902-1.648,17.454,4.231,19.102,13.133c1.646,8.902-4.233,17.453-13.133,19.099c-5.027,0.932-9.893-0.595-13.517-3.653
			c-1.733,1.21-3.401,2.52-4.903,4.044c-13.452,13.648-13.22,35.775,0.523,49.329c6.626,6.531,15.374,10.124,24.645,10.124
			c0.05,0,0.1,0,0.1,0c6.31-0.023,12.236-1.817,17.471-4.913l-0.015-0.199c-0.035-1.245-0.14-2.5-0.14-3.73
			c0-3.105,0.162-6.235,0.336-9.348l1.192-13.133c2.625-20.352,8.897-40.337,18.908-57.997
			c-21.386-4.032-40.411-14.704-54.911-29.804c-14.709-8.91-31.548-13.651-48.822-13.651c-32.995,0-62.072,17.072-79.055,42.877
			c-7.386,24.206-11.721,49.728-12.665,76.12C-301.637,121.379-264.554,151.943-220.411,151.943z M-109.088-7.168
			c3.319-4.627,6.843-9.106,10.78-13.235l15.307-13.252c18.973-13.887,43-22.508,72.678-22.508c17.921,0,34.033,4.729,47.928,14.004
			c3.735,2.575,6.897,4.764,10.345,4.764c6.118,0,14.557-9.271,21.224-17.332l1.181-1.437h6.652l-0.021,3.956v7.675l7.854-0.259
			c20.25-1.427,38.949-10.759,52.416-26.255c13.471-15.501,20.093-35.322,18.658-55.803c-0.797-11.375-4.108-22.154-9.48-31.838
			c-25.732-16.671-54.176-29.49-84.563-37.603c-15.729,3.613-29.896,11.982-40.688,24.396c-12.953,14.914-19.5,33.833-18.708,53.485
			c0.109,0.483,0.269,0.949,0.368,1.434c6.889,1.967,11.963,8.24,11.963,15.76c0,9.091-7.371,16.46-16.463,16.46
			c-9.091,0-16.459-7.369-16.459-16.46c0-5.924,3.155-11.073,7.852-13.972l-0.037,0.002c-0.035-0.481-0.006-0.956-0.033-1.437
			c-9.311-39.627-44.875-69.252-87.31-69.252c-49.492,0-89.76,40.265-89.76,89.758C-187.406-50.506-153.186-12.816-109.088-7.168z
			 M229.915-12.382c-0.152,14.475-3.933,28.073-10.451,39.958c28.873,11.283,51.396,34.71,62.906,63.194
			c-0.075-96.09-45.759-181.468-116.537-235.78c1.507,5.585,2.493,11.355,2.906,17.257c0.776,11.048-0.591,21.738-3.581,31.776
			C203.218-86.561,230.326-51.856,229.915-12.382z M177.965,247.166c-2.248,0-4.502-0.063-6.764-0.195
			c-8.406-0.492-16.596-1.999-24.56-4.295c6.3,12.832,9.938,27.193,9.938,42.426c0,24.822-9.482,47.417-24.91,64.554
			c53.417-30.359,96.504-76.743,122.705-132.663c-0.512,0.477-0.963,0.999-1.486,1.465
			C232.023,237.105,205.639,247.166,177.965,247.166z M-158.612,282.811c-6.648,1.576-13.325,2.361-19.918,2.361
			c-36.887,0-71.162-23.785-82.718-60.811c-6.811-21.838-4.575-45.357,5.867-65.532c-23.333-8.093-43.042-24.032-56.036-44.647
			c7.983,103.409,68.776,192.006,155.53,238.758C-168.735,331.57-169.668,304.958-158.612,282.811z M-23.217,334.283
			c-3.21,11.914-9.353,23.062-18.385,32.23c-7.715,7.828-16.804,13.464-26.488,17.052c17.232,3.104,34.949,4.815,53.075,4.815
			c22.272,0,43.938-2.524,64.812-7.166C18.723,377.963-7.98,359.93-23.217,334.283z M-187.331-46.365
			c-8.218-14.752-12.937-31.704-12.937-49.752c0-22.271,7.209-42.847,19.309-59.686c-46.7,31.46-83.936,75.846-106.696,128.004
			c18.442-14.889,41.807-23.853,67.244-23.853C-209.093-51.652-197.954-49.812-187.331-46.365z M-7.365-144.874
			c3.486-12.936,9.791-25.045,18.838-35.456c7.707-8.87,16.896-15.979,27.063-21.151c-17.382-3.163-35.255-4.901-53.551-4.901
			c-24.222,0-47.744,2.966-70.29,8.432C-51.608-193.889-22.879-173.482-7.365-144.874z"/>
	</g>
</g>
</svg>
