<?xml version="1.0" encoding="utf-8"?>
<!-- Generator: Adobe Illustrator 16.0.0, SVG Export Plug-In . SVG Version: 6.00 Build 0)  -->
<!DOCTYPE svg PUBLIC "-//W3C//DTD SVG 1.1//EN" "http://www.w3.org/Graphics/SVG/1.1/DTD/svg11.dtd">
<svg version="1.1" id="Layer_1" xmlns="http://www.w3.org/2000/svg" xmlns:xlink="http://www.w3.org/1999/xlink" x="0px" y="0px"
	 width="345px" height="535px" viewBox="0 -42.5 345 535" enable-background="new 0 -42.5 345 535" xml:space="preserve">
<g>
	<g>
		<path fill="#F4F4F4" d="M360.012-42.5C161.499-42.5,0,118.998,0,317.506c0,198.501,161.499,359.996,360.012,359.996
			c198.514,0,360.016-161.495,360.016-359.996C720.028,118.998,558.526-42.5,360.012-42.5z M360.012,654.051
			c-185.579,0-336.56-150.976-336.56-336.545c0-185.578,150.98-336.552,336.56-336.552c185.581,0,336.561,150.975,336.561,336.552
			C696.573,503.075,545.593,654.051,360.012,654.051z M154.616,391.311c-7.655,0-15.113-0.838-22.319-2.373
			c-9.951,17.678-12.299,38.666-6.232,58.094c12.097,38.804,53.53,60.541,92.327,48.425c3.92-1.224,7.615-2.815,11.169-4.604
			c0.034-0.035,0.06-0.072,0.095-0.104l0.04,0.04c30.915-15.634,47.25-51.361,37.659-85.578
			c-12.83-17.099-21.374-37.399-25.773-58.604C221.99,373.638,190.354,391.311,154.616,391.311z M587.075,265.249
			c-15.623,20.185-40.009,33.235-67.376,33.237c-0.302,0-0.605-0.004-0.906-0.004c-40.155-0.42-73.539-28.717-82.139-66.25
			c-12.734-31.68-38.988-40.608-71.191-38.936c-56.752,2.961-70.378,78.421-70.378,117.93c0,39.512,12.632,118.692,70.378,122.428
			c9.662,0.63,27.976-1.838,43.491-10.684c17.331-11.434,27.793-30.563,34.384-52.279h10.6v12.787h0.119
			c0,21.172,17.222,38.394,38.392,38.394c21.171,0,38.393-17.222,38.393-38.394c0-16.279-10.205-30.192-24.545-35.766
			c-2.733,3.705-7.095,6.141-12.053,6.141c-8.292,0-15.014-6.723-15.014-15.013c0-8.292,6.722-15.013,15.014-15.013
			c6.918,0,12.685,4.707,14.423,11.07c20.33,6.809,35.039,25.992,35.039,48.58c0,27.982-22.551,50.766-50.429,51.213
			c6.256,4.76,11.944,10.205,16.879,16.317c11.557,5.505,23.944,8.693,36.84,9.45c26.619,1.576,52.283-7.378,72.236-25.218
			c14.68-13.115,24.93-29.894,29.98-48.505c0.399-1.66,0.787-3.323,1.155-4.998c1.119-5.145,1.955-10.379,2.271-15.733
			C655.274,321.434,627.864,279.768,587.075,265.249z M460.533,194.547l-8.521,0.284v43.918
			c10.252,27.084,36.257,46.55,66.92,46.868c0.253,0,0.509,0.008,0.761,0.008c39.576,0,71.973-31.982,72.387-71.645
			c0.355-34.008-23.326-63.881-56.39-71.349C522.373,171.342,494.272,192.182,460.533,194.547z M436.244,427.842
			c-1.602,0.291-3.115,0.625-4.373,1.039c-3.295,1.08-6.923,3.174-12.889,7.283c-15.248,10.287-34.499,15.959-54.278,15.959
			c-34.441,0-61.365-11.504-81.446-29.45l-0.357-0.372c1.027,32.541-16.462,63.408-45.44,78.996
			c-21.779,23.643-21.092,60.57,1.976,83.311c5.233,5.158,11.211,9.088,17.558,11.93c3.384,1.251,6.821,2.386,10.26,3.514
			c19.841,4.831,41.66-0.505,57.018-16.064c13.248-13.449,19.129-31.988,16.602-50.264c-0.485-2.058-0.884-4.14-1.232-6.242
			c-0.106-0.427-0.203-0.851-0.318-1.272c-6.351-2.284-10.919-8.3-10.919-15.437c0-9.092,7.369-16.463,16.46-16.463
			c9.092,0,16.462,7.371,16.462,16.463c0,6.385-3.673,11.856-8.987,14.588c0.466,1.988,0.893,3.975,1.188,5.973
			c8.903,36.719,41.967,64.104,81.389,64.104c46.227,0,83.83-37.604,83.83-83.83C518.742,465.828,481.854,428.564,436.244,427.842z
			 M154.616,378.445c35.116,0,65.765-19.359,82.141-47.983c-5.083,1.843-10.48,2.866-16.059,2.892h-0.202
			c-12.675,0-24.62-4.906-33.677-13.834c-18.793-18.525-19.082-48.813-0.647-67.516c2.505-2.542,5.332-4.682,8.302-6.582
			c-0.447-8.109,5.107-15.494,13.306-17.01c8.901-1.648,17.454,4.23,19.102,13.133c1.646,8.902-4.232,17.453-13.133,19.1
			c-5.027,0.932-9.893-0.596-13.517-3.653c-1.733,1.21-3.401,2.52-4.903,4.044c-13.452,13.648-13.22,35.775,0.523,49.328
			c6.626,6.531,15.373,10.125,24.645,10.125c0.05,0,0.1,0,0.1,0c6.311-0.023,12.236-1.817,17.472-4.913l-0.016-0.199
			c-0.034-1.245-0.14-2.5-0.14-3.729c0-3.105,0.162-6.235,0.336-9.349l1.192-13.133c2.625-20.353,8.896-40.337,18.907-57.997
			c-21.386-4.032-40.41-14.704-54.91-29.804c-14.709-8.91-31.549-13.651-48.822-13.651c-32.995,0-62.072,17.072-79.055,42.877
			c-7.387,24.206-11.722,49.729-12.665,76.12C73.39,347.881,110.473,378.445,154.616,378.445z M265.94,219.334
			c3.318-4.627,6.843-9.106,10.779-13.235l15.308-13.252c18.973-13.887,43-22.508,72.678-22.508
			c17.921,0,34.033,4.729,47.928,14.004c3.735,2.575,6.897,4.764,10.346,4.764c6.117,0,14.557-9.271,21.224-17.332l1.181-1.437
			h6.652l-0.021,3.956v7.675l7.854-0.259c20.25-1.427,38.949-10.759,52.416-26.255c13.471-15.501,20.093-35.322,18.658-55.803
			c-0.797-11.375-4.108-22.154-9.48-31.838c-25.731-16.671-54.176-29.49-84.563-37.603c-15.729,3.613-29.896,11.982-40.688,24.396
			c-12.953,14.914-19.5,33.833-18.708,53.485c0.109,0.483,0.27,0.949,0.368,1.434c6.889,1.967,11.963,8.24,11.963,15.76
			c0,9.091-7.371,16.46-16.463,16.46c-9.091,0-16.459-7.369-16.459-16.46c0-5.924,3.155-11.073,7.852-13.972l-0.036,0.002
			c-0.035-0.481-0.007-0.956-0.033-1.437c-9.312-39.627-44.875-69.252-87.311-69.252c-49.492,0-89.76,40.265-89.76,89.758
			C187.621,175.996,221.841,213.686,265.94,219.334z M604.943,214.12c-0.152,14.475-3.934,28.073-10.451,39.958
			c28.873,11.283,51.396,34.71,62.906,63.193c-0.075-96.089-45.76-181.468-116.537-235.779c1.507,5.585,2.493,11.354,2.905,17.257
			c0.776,11.048-0.591,21.738-3.58,31.776C578.245,139.941,605.354,174.646,604.943,214.12z M552.992,473.668
			c-2.248,0-4.502-0.063-6.764-0.195c-8.406-0.492-16.597-1.998-24.561-4.295c6.3,12.832,9.938,27.193,9.938,42.426
			c0,24.822-9.482,47.418-24.91,64.555c53.417-30.359,96.504-76.743,122.705-132.663c-0.513,0.478-0.963,0.999-1.486,1.465
			C607.05,463.607,580.666,473.668,552.992,473.668z M216.415,509.313c-6.648,1.576-13.325,2.361-19.918,2.361
			c-36.887,0-71.162-23.785-82.718-60.811c-6.812-21.838-4.575-45.357,5.867-65.532c-23.333-8.093-43.042-24.032-56.036-44.647
			c7.982,103.409,68.775,192.006,155.529,238.758C206.292,558.072,205.36,531.46,216.415,509.313z M351.811,560.785
			c-3.211,11.914-9.354,23.063-18.386,32.23c-7.715,7.827-16.804,13.463-26.487,17.051c17.231,3.104,34.948,4.815,53.074,4.815
			c22.272,0,43.938-2.524,64.813-7.166C393.75,604.465,367.047,586.432,351.811,560.785z M187.697,180.137
			c-8.218-14.752-12.938-31.704-12.938-49.752c0-22.271,7.209-42.847,19.31-59.686c-46.7,31.46-83.937,75.846-106.696,128.004
			c18.442-14.889,41.807-23.853,67.244-23.853C165.934,174.85,177.073,176.69,187.697,180.137z M367.662,81.628
			c3.486-12.936,9.791-25.045,18.838-35.456c7.707-8.87,16.896-15.979,27.063-21.151c-17.383-3.163-35.256-4.901-53.552-4.901
			c-24.222,0-47.743,2.966-70.29,8.432C323.419,32.613,352.149,53.02,367.662,81.628z"/>
	</g>
</g>
</svg>
