<?xml version="1.0" encoding="utf-8"?>
<!-- Generator: Adobe Illustrator 16.0.0, SVG Export Plug-In . SVG Version: 6.00 Build 0)  -->
<!DOCTYPE svg PUBLIC "-//W3C//DTD SVG 1.1//EN" "http://www.w3.org/Graphics/SVG/1.1/DTD/svg11.dtd">
<svg version="1.1" id="Layer_1" xmlns="http://www.w3.org/2000/svg" xmlns:xlink="http://www.w3.org/1999/xlink" x="0px" y="0px"
	 width="300px" height="280px" viewBox="0 0 300 280" enable-background="new 0 0 300 280" xml:space="preserve">
<g>
	<g>
		<path fill="#0A3B29" d="M600.053,89.945c0,0-37.362-69.309-105.104-102.267c-96.755-50.731-182.552-1.114-194.932,6.669
			c-12.38-7.784-98.105-57.401-194.885-6.741C37.389,20.636,0.053,89.945,0.053,89.945s52.958,34.411,128.783,24.858
			c-23.75,56.165-18.003,114.463-18.003,114.463s73.639-0.29,132.688-63.268c9.727,69.648,56.348,114.195,56.496,114.318
			c0.196-0.123,46.791-44.67,56.543-114.318c59.073,62.978,132.664,63.268,132.664,63.268s5.747-58.37-17.954-114.463
			C547.07,124.355,600.053,89.945,600.053,89.945z M35.962,85.677c0,0,30.262-58.373,87.987-87.619
			c77.814-42.245,149.734-10.185,166.585-1.505c-28.149,2.33-106.702,16.249-150.622,96.013c-2.21,3.781-4.248,7.564-6.19,11.421
			C76.026,108.521,35.962,85.677,35.962,85.677z M291.688,2.957c-19.134,32.132-33.135,45.688-47.97,58.298
			c-31.098,22.701-61.187,34.487-88.379,39.773c1.621-3.297,3.315-6.596,5.158-9.918C199.257,18.017,271.941,5.091,291.688,2.957z
			 M242.366,155.398c-48.289,48.26-105.154,51.704-105.154,51.704s-5.479-48.332,13.854-96.375
			c27.88-6.474,58.213-19.254,89.679-41.64c9.016-7.491,17.859-15.276,27.414-26.214
			C245.635,84.246,239.688,122.295,242.366,155.398z M249.146,133.525c-1.278-44.404,32.693-85.219,48.414-101.733
			c-0.641,20.563-3.784,33.998-7.566,47.217c-10.609,28.833-24.759,51.144-40.282,68.484
			C249.22,142.594,249.022,137.841,249.146,133.525z M300.017,247.141c-25.103-17.412-43.109-56.627-48.906-89.754
			c15.498-18.43,29.67-41.494,40.749-70.617c3.415-11.423,6.437-22.965,8.157-38.124c1.769,15.159,4.814,26.701,8.229,38.124
			c11.102,29.052,25.224,52.187,40.726,70.617C343.199,190.514,325.191,229.729,300.017,247.141z M350.322,147.493
			c-15.478-17.292-29.625-39.651-40.26-68.484c-3.783-13.291-6.952-26.654-7.542-47.217c15.722,16.442,49.668,57.257,48.439,101.733
			C351.059,137.841,350.862,142.594,350.322,147.493z M462.819,207.103c0,0-56.79-3.444-105.081-51.775
			c2.703-33.032-3.341-71.081-25.79-112.454c9.555,10.938,18.374,18.723,27.461,26.214c31.415,22.435,61.701,35.166,89.63,41.713
			C468.369,158.771,462.819,207.103,462.819,207.103z M308.367,2.957c19.749,2.134,92.404,15.06,131.19,88.153
			c1.844,3.322,3.588,6.621,5.159,9.918c-27.192-5.287-57.258-17.073-88.329-39.773C341.503,48.646,327.478,35.089,308.367,2.957z
			 M466.307,103.986c-1.866-3.856-3.93-7.64-6.117-11.349C416.248,12.801,337.721-1.045,309.548-3.447
			c16.823-8.68,88.817-40.74,166.583,1.505c57.724,29.247,87.962,87.619,87.962,87.619S524.029,108.595,466.307,103.986z
			 M90.639-61.624c2.433,1.116,18.276,7.299,44.657,5.99c69.684-23.183,122.08,1.115,147.869,11.64
			c8.18,3.297,16.853,2.472,16.853,2.472s8.696,0.825,16.874-2.472c25.815-10.525,78.232-34.823,147.894-11.64
			c26.406,1.309,42.247-4.875,44.606-5.99h0.099c0.148-0.049,0.248-0.121,0.248-0.121l-4.277-0.147
			c-11.542-0.969-42.74-4.825-80.124-19.546c-34.512-12.319-64.107-31.381-125.319-33.247
			c-61.164,1.866-90.785,20.928-125.321,33.247c-37.334,14.721-68.532,18.577-80.1,19.546l-4.25,0.147c0,0,0.076,0.072,0.221,0.121
			H90.639z"/>
	</g>
</g>
</svg>
