<?xml version="1.0" encoding="utf-8"?>
<!-- Generator: Adobe Illustrator 16.0.0, SVG Export Plug-In . SVG Version: 6.00 Build 0)  -->
<!DOCTYPE svg PUBLIC "-//W3C//DTD SVG 1.1//EN" "http://www.w3.org/Graphics/SVG/1.1/DTD/svg11.dtd">
<svg version="1.1" id="Layer_1" xmlns="http://www.w3.org/2000/svg" xmlns:xlink="http://www.w3.org/1999/xlink" x="0px" y="0px"
	 width="300px" height="280px" viewBox="0 0 300 280" enable-background="new 0 0 300 280" xml:space="preserve">
<g>
	<g>
		<path fill="#0A3B29" d="M-299.947,190.372c0,0,37.361,69.309,105.104,102.267c96.755,50.731,182.552,1.114,194.931-6.669
			c12.381,7.784,98.105,57.401,194.887,6.741c67.742-33.03,105.078-102.339,105.078-102.339s-52.958-34.411-128.783-24.858
			c23.75-56.166,18.004-114.462,18.004-114.462s-73.641,0.289-132.689,63.268C46.857,44.67,0.236,0.124,0.088,0
			c-0.195,0.123-46.791,44.67-56.543,114.318c-59.072-62.979-132.663-63.268-132.663-63.268s-5.747,58.369,17.954,114.462
			C-246.964,155.962-299.947,190.372-299.947,190.372z M264.145,194.64c0,0-30.263,58.373-87.988,87.619
			c-77.814,42.245-149.734,10.185-166.584,1.505c28.148-2.33,106.701-16.249,150.621-96.013c2.211-3.781,4.248-7.563,6.19-11.421
			C224.08,171.796,264.145,194.64,264.145,194.64z M8.418,277.359c19.133-32.131,33.135-45.688,47.971-58.297
			c31.098-22.701,61.186-34.488,88.379-39.773c-1.621,3.297-3.316,6.596-5.158,9.918C100.85,262.3,28.164,275.227,8.418,277.359z
			 M57.74,124.918c48.289-48.26,105.154-51.703,105.154-51.703s5.479,48.332-13.855,96.375
			c-27.879,6.475-58.213,19.254-89.678,41.641c-9.018,7.49-17.859,15.275-27.414,26.213C54.471,196.07,60.418,158.021,57.74,124.918
			z M50.959,146.792c1.279,44.403-32.691,85.219-48.414,101.733c0.643-20.563,3.785-33.998,7.566-47.217
			c10.609-28.834,24.76-51.145,40.283-68.485C50.885,137.723,51.084,142.477,50.959,146.792z M0.088,33.176
			c25.104,17.412,43.109,56.627,48.906,89.754c-15.498,18.429-29.67,41.494-40.748,70.617c-3.416,11.423-6.438,22.965-8.158,38.124
			c-1.768-15.159-4.813-26.701-8.229-38.124c-11.102-29.052-25.225-52.188-40.727-70.617C-43.094,89.803-25.086,50.588,0.088,33.176
			z M-50.217,132.824c15.479,17.292,29.625,39.651,40.26,68.485c3.783,13.291,6.953,26.653,7.543,47.217
			c-15.723-16.442-49.668-57.258-48.439-101.733C-50.953,142.477-50.756,137.723-50.217,132.824z M-162.713,73.213
			c0,0,56.79,3.444,105.081,51.775c-2.703,33.033,3.342,71.082,25.791,112.455c-9.555-10.938-18.375-18.724-27.461-26.215
			c-31.416-22.435-61.701-35.166-89.631-41.713C-168.263,121.545-162.713,73.213-162.713,73.213z M-8.262,277.359
			c-19.748-2.133-92.404-15.06-131.189-88.152c-1.844-3.322-3.588-6.621-5.158-9.918c27.191,5.287,57.258,17.072,88.328,39.773
			C-41.396,231.671-27.373,245.229-8.262,277.359z M-166.201,176.331c1.865,3.856,3.93,7.64,6.116,11.349
			c43.942,79.836,122.469,93.682,150.643,96.084c-16.824,8.68-88.818,40.74-166.583-1.505
			c-57.725-29.247-87.962-87.619-87.962-87.619S-223.923,171.722-166.201,176.331z M209.467,341.941
			c-2.433-1.117-18.275-7.299-44.656-5.99c-69.686,23.183-122.08-1.115-147.869-11.641c-8.182-3.297-16.854-2.472-16.854-2.472
			s-8.695-0.825-16.875,2.472c-25.814,10.525-78.23,34.823-147.893,11.641c-26.406-1.309-42.247,4.875-44.605,5.99h-0.1
			c-0.147,0.049-0.248,0.121-0.248,0.121l4.277,0.146c11.542,0.969,42.74,4.824,80.124,19.546
			c34.512,12.319,64.107,31.381,125.318,33.247c61.164-1.866,90.785-20.928,125.322-33.247c37.334-14.722,68.531-18.577,80.1-19.546
			l4.25-0.146c0,0-0.076-0.072-0.221-0.121H209.467z"/>
	</g>
</g>
</svg>
