<?xml version="1.0" encoding="utf-8"?>
<!-- Generator: Adobe Illustrator 16.0.0, SVG Export Plug-In . SVG Version: 6.00 Build 0)  -->
<!DOCTYPE svg PUBLIC "-//W3C//DTD SVG 1.1//EN" "http://www.w3.org/Graphics/SVG/1.1/DTD/svg11.dtd">
<svg version="1.1" id="Layer_1" xmlns="http://www.w3.org/2000/svg" xmlns:xlink="http://www.w3.org/1999/xlink" x="0px" y="0px"
	 width="100px" height="140px" viewBox="0 0 100 140" enable-background="new 0 0 100 140" xml:space="preserve">
<g>
	<g>
		<path fill="#0A3B29" d="M78.541,101.011c3.949-9.528,2.995-19.417,2.995-19.417s-12.269,0.051-22.114,10.731
			c-1.623-11.814-9.395-19.371-9.414-19.39c-0.033,0.019-7.796,7.576-9.424,19.39c-9.847-10.68-22.109-10.731-22.109-10.731
			s-0.964,9.903,2.986,19.417C8.829,99.392,0,105.225,0,105.225s6.226,11.76,17.516,17.344c16.128,8.611,30.426,0.19,32.492-1.123
			c2.066,1.313,16.35,9.734,32.473,1.137c11.303-5.598,17.52-17.357,17.52-17.357S91.167,99.392,78.541,101.011z M59.614,94.122
			c8.047-8.183,17.525-8.771,17.525-8.771s0.92,8.202-2.302,16.345c-4.658,1.106-9.709,3.267-14.949,7.063
			c-1.509,1.275-2.98,2.598-4.574,4.447C59.068,106.195,60.062,99.735,59.614,94.122z M22.876,85.351c0,0,9.464,0.588,17.51,8.785
			c-0.452,5.599,0.556,12.059,4.299,19.07c-1.595-1.85-3.061-3.172-4.575-4.447c-5.238-3.796-10.29-5.956-14.94-7.068
			C21.948,93.553,22.876,85.351,22.876,85.351z M20.653,120.809c-9.62-4.959-14.662-14.863-14.662-14.863s6.68-3.882,16.299-3.1
			c0.312,0.653,0.656,1.294,1.024,1.92c7.324,13.544,20.41,15.898,25.1,16.297C45.616,122.541,33.618,127.979,20.653,120.809z
			 M26.748,105.027c-0.307-0.564-0.6-1.118-0.856-1.684c4.53,0.898,9.538,2.898,14.717,6.747c2.482,2.136,4.825,4.437,8.002,9.891
			C45.326,119.618,33.216,117.426,26.748,105.027z M41.518,97.835c-0.02-0.735,0.011-1.539,0.107-2.372
			c2.579,2.936,4.931,6.728,6.705,11.616c0.629,2.26,1.157,4.521,1.254,8.014C46.968,112.297,41.311,105.376,41.518,97.835z
			 M48.635,105.763c-1.849-4.922-4.205-8.851-6.788-11.974c0.959-5.623,3.965-12.271,8.16-15.227
			c4.181,2.956,7.186,9.604,8.15,15.227c-2.583,3.124-4.948,7.038-6.792,11.974c-0.566,1.942-1.072,3.899-1.358,6.464
			C49.712,109.662,49.201,107.705,48.635,105.763z M51.68,107.079c1.763-4.889,4.122-8.673,6.709-11.616
			c0.082,0.833,0.118,1.637,0.093,2.372c0.217,7.526-5.445,14.455-8.067,17.258C50.52,111.601,51.049,109.324,51.68,107.079z
			 M59.393,110.091c5.183-3.849,10.188-5.849,14.727-6.747c-0.266,0.565-0.546,1.119-0.856,1.684
			c-6.463,12.398-18.578,14.591-21.871,14.954C54.582,114.527,56.914,112.227,59.393,110.091z M79.347,120.809
			c-12.965,7.171-24.951,1.732-27.759,0.254c4.688-0.395,17.788-2.753,25.108-16.284c0.364-0.639,0.697-1.279,1.023-1.933
			c9.625-0.768,16.29,3.1,16.29,3.1S88.973,115.85,79.347,120.809z M84.91,130.938c-0.409-0.195-3.049-1.242-7.447-1.021
			c-11.618,3.935-20.353-0.188-24.651-1.977c-1.363-0.555-2.804-0.411-2.804-0.411s-1.448-0.144-2.815,0.411
			c-4.297,1.789-13.038,5.911-24.65,1.977c-4.403-0.222-7.04,0.825-7.431,1.021h-0.017c-0.029,0.002-0.04,0.016-0.04,0.016
			l0.709,0.028c1.927,0.159,7.123,0.813,13.358,3.312c5.751,2.09,10.684,5.327,20.885,5.642c10.192-0.314,15.13-3.552,20.885-5.642
			c6.216-2.498,11.421-3.152,13.344-3.312l0.712-0.028c0,0-0.014-0.014-0.037-0.016H84.91z"/>
	</g>
</g>
<line fill="none" stroke="#0A3B29" stroke-miterlimit="10" x1="50" y1="0" x2="50" y2="75.269"/>
</svg>
