<?xml version="1.0" encoding="utf-8"?>
<!-- Generator: Adobe Illustrator 16.0.0, SVG Export Plug-In . SVG Version: 6.00 Build 0)  -->
<!DOCTYPE svg PUBLIC "-//W3C//DTD SVG 1.1//EN" "http://www.w3.org/Graphics/SVG/1.1/DTD/svg11.dtd">
<svg version="1.1" id="Layer_1" xmlns="http://www.w3.org/2000/svg" xmlns:xlink="http://www.w3.org/1999/xlink" x="0px" y="0px"
	 width="11px" height="11px" viewBox="0 0 11 11" enable-background="new 0 0 11 11" xml:space="preserve">
<g>
	<path fill-rule="evenodd" clip-rule="evenodd" fill="#FFFFFF" d="M5.5,10.75c-2.895,0-5.25-2.355-5.25-5.25
		c0-2.895,2.355-5.25,5.25-5.25c2.895,0,5.25,2.355,5.25,5.25C10.75,8.395,8.395,10.75,5.5,10.75z"/>
	<path fill="#4FBC89" d="M5.5,0.5c2.757,0,5,2.243,5,5s-2.243,5-5,5s-5-2.243-5-5S2.743,0.5,5.5,0.5 M5.5,0C2.463,0,0,2.462,0,5.5
		S2.463,11,5.5,11C8.538,11,11,8.538,11,5.5S8.538,0,5.5,0L5.5,0z"/>
</g>
</svg>
