<?xml version="1.0" encoding="utf-8"?>
<!-- Generator: Adobe Illustrator 16.0.0, SVG Export Plug-In . SVG Version: 6.00 Build 0)  -->
<!DOCTYPE svg PUBLIC "-//W3C//DTD SVG 1.1//EN" "http://www.w3.org/Graphics/SVG/1.1/DTD/svg11.dtd">
<svg version="1.1" id="Layer_1" xmlns="http://www.w3.org/2000/svg" xmlns:xlink="http://www.w3.org/1999/xlink" x="0px" y="0px"
	 width="22px" height="22px" viewBox="0 0 22 22" enable-background="new 0 0 22 22" xml:space="preserve">
<g>
	<g>
		<path fill="#F79520" d="M11,0C4.934,0,0,4.936,0,11.001C0,17.065,4.934,22,11,22c6.066,0,11-4.935,11-10.999
			C22,4.936,17.066,0,11,0z M11,20.49c-5.233,0-9.49-4.256-9.49-9.489S5.768,1.51,11,1.51c5.234,0,9.491,4.258,9.491,9.491
			S16.234,20.49,11,20.49z M14.002,8.161l-4.075,4.076l-1.928-1.929c-0.295-0.295-0.772-0.295-1.067,0
			c-0.294,0.295-0.294,0.773,0,1.067l2.461,2.462c0.148,0.147,0.341,0.221,0.534,0.221c0.193,0,0.386-0.073,0.534-0.221l4.607-4.608
			c0.295-0.296,0.295-0.772,0-1.068C14.775,7.867,14.296,7.867,14.002,8.161z"/>
	</g>
</g>
</svg>
