<?xml version="1.0" encoding="utf-8"?>
<!-- Generator: Adobe Illustrator 18.1.0, SVG Export Plug-In . SVG Version: 6.00 Build 0)  -->
<svg version="1.1" id="Layer_1" xmlns="http://www.w3.org/2000/svg" xmlns:xlink="http://www.w3.org/1999/xlink" x="0px" y="0px"
	 viewBox="0 0 140 140" enable-background="new 0 0 140 140" xml:space="preserve">
<g opacity="0.1">
	<path fill="#FFFFFF" d="M70,1c38.1,0,69,31,69,69s-31,69-69,69c-38.1,0-69-31-69-69S32,1,70,1 M70,0C31.4,0,0,31.4,0,70
		c0,38.7,31.4,70,70,70s70-31.4,70-70C140.1,31.4,108.7,0,70,0L70,0z"/>
</g>
<linearGradient id="SVGID_1_" gradientUnits="userSpaceOnUse" x1="123.5166" y1="97.2835" x2="16.5459" y2="42.7792">
	<stop  offset="0" style="stop-color:#9E8630"/>
	<stop  offset="1" style="stop-color:#ECE281"/>
</linearGradient>
<path fill="url(#SVGID_1_)" d="M70,10.1c33.2,0,60,26.8,60,60c0,33.1-26.9,60-60,60c-33.2,0-60-26.8-60-60
	C10,36.9,36.9,10.1,70,10.1z"/>
<g>
	<g>
		<path d="M49.5,70.8c-0.2-0.2-0.2-0.5-0.2-0.8c0.5-2.2,2.5-4.1,5.3-5.5c-0.5-0.1-1.1-0.4-1.5-0.7c-0.3-0.2-0.6-0.4-0.8-0.7
			c-4,2-6,4.8-6.6,8.2c-0.2,1-2.2,11.5-2.2,11.5c-0.1,0.7,0.1,1.4,0.5,1.9c0.4,0.5,1.1,0.8,1.8,0.8h3c0-0.4,0.1-0.8,0.2-1.1
			c1.1-4.3,4.3-5.1,6.4-5.1c1.8,0,3.5,0.7,4.7,1.9V71.2h-9.8C50,71.2,49.7,71,49.5,70.8z M48.1,78.4c0,1.3-1.1,2.3-2.3,2.3h-0.6
			l1.3-6.6h0c1,0.3,1.7,1.2,1.7,2.2V78.4z M95.9,79.3c-1.1-3-3.4-5.4-6.3-6.7c-1.4-0.6-3.4-1-5.1-1v0c0-3.1-2.3-6.2-6.1-8.2
			c-0.2,0.2-0.4,0.3-0.6,0.5c-0.6,0.4-1.3,0.7-2.1,0.8c2.7,1.4,4.6,3.3,5.2,5.4c0.1,0.3,0,0.6-0.2,0.8c-0.2,0.2-0.5,0.4-0.7,0.4
			h-8.8v14.3h4.2c0-0.4,0.1-0.8,0.2-1.1c0.7-2.9,3.3-5.1,6.4-5.1c3.1,0,5.8,2.2,6.4,5.1c0.1,0.4,0.1,0.8,0.2,1.1h5.7
			c1.3,0,2.3-1,2.3-2.3C96.5,81.8,96.3,80.5,95.9,79.3z M92.8,79.3c-2.2,0-4-1.8-4-4v-1.8c2.6,1.1,4.8,3.2,5.8,5.8H92.8z M55.4,81.6
			c-2.4,0-4.3,1.9-4.3,4.2c0,2.3,1.9,4.2,4.3,4.2c2.4,0,4.3-1.9,4.3-4.2C59.7,83.5,57.8,81.6,55.4,81.6z M55.4,87.4
			c-0.9,0-1.6-0.7-1.6-1.6c0-0.9,0.7-1.6,1.6-1.6c0.9,0,1.6,0.7,1.6,1.6C57,86.7,56.3,87.4,55.4,87.4z M82,81.6
			c-2.4,0-4.3,1.9-4.3,4.2c0,2.3,1.9,4.2,4.3,4.2c2.4,0,4.3-1.9,4.3-4.2C86.2,83.5,84.3,81.6,82,81.6z M82,87.4
			c-0.9,0-1.6-0.7-1.6-1.6c0-0.9,0.7-1.6,1.6-1.6c0.9,0,1.6,0.7,1.6,1.6C83.5,86.7,82.8,87.4,82,87.4z M63.6,62.8
			c-0.4,0-0.9-0.1-1.2-0.3v22.6c0,1.3,1,2.3,2.3,2.3h1.8c1.3,0,2.3-1,2.3-2.3V62.4c-0.3,0.2-0.8,0.3-1.2,0.3H63.6z M74,62.2
			c0.3,0.1,0.6,0.2,1,0.2c0.5,0,1.1-0.2,1.5-0.5c0.7-0.5,1.3-1.3,1.3-2.1v-7.2c0-0.9-0.6-1.7-1.3-2.1c-0.4-0.3-1-0.5-1.6-0.5
			c-0.3,0-0.7,0.1-1,0.2l-4.8,2.7c0.4,0.4,0.7,1,0.7,1.6v5.4L74,62.2z M55.9,50c-0.5,0-1,0.2-1.4,0.5c-0.7,0.5-1,1.3-1,2.1v7.2
			c0,0.9,0.3,1.7,1,2.1c0.4,0.3,0.9,0.5,1.4,0.5c0.3,0,0.6-0.1,0.9-0.2l4.6-2.4v-5.3c0-0.6,0.2-1.2,0.6-1.6l-5.2-2.8
			C56.5,50.1,56.2,50,55.9,50z M63.6,61.6h4c0.6,0,1.1-0.5,1.1-1.1v-6.1c0-0.6-0.5-1.1-1.1-1.1h-4c-0.6,0-1.1,0.5-1.1,1.1v6.1
			C62.6,61.2,63,61.6,63.6,61.6z"/>
	</g>
</g>
</svg>
