<?xml version="1.0" encoding="utf-8"?>
<!-- Generator: Adobe Illustrator 18.1.0, SVG Export Plug-In . SVG Version: 6.00 Build 0)  -->
<svg version="1.1" id="Layer_1" xmlns="http://www.w3.org/2000/svg" xmlns:xlink="http://www.w3.org/1999/xlink" x="0px" y="0px"
	 viewBox="0 0 140 140" enable-background="new 0 0 140 140" xml:space="preserve">
<g opacity="0.1">
	<path fill="#FFFFFF" d="M70,1c38.1,0,69,31,69,69s-31,69-69,69c-38.1,0-69-31-69-69S32,1,70,1 M70,0C31.4,0,0,31.4,0,70
		c0,38.7,31.4,70,70,70s70-31.4,70-70C140.1,31.4,108.7,0,70,0L70,0z"/>
</g>
<linearGradient id="SVGID_1_" gradientUnits="userSpaceOnUse" x1="123.5166" y1="97.2835" x2="16.5459" y2="42.7792">
	<stop  offset="0" style="stop-color:#9E8630"/>
	<stop  offset="1" style="stop-color:#ECE281"/>
</linearGradient>
<path fill="url(#SVGID_1_)" d="M70,10.1c33.2,0,60,26.8,60,60c0,33.1-26.9,60-60,60c-33.2,0-60-26.8-60-60
	C10,36.9,36.9,10.1,70,10.1z"/>
<g>
	<g>
		<path d="M89.5,71.2l-1.3-10.9c-0.2-2-2.3-3.9-4.4-4.1l-2.8-0.3l-1-6.2c-0.1-0.8-0.9-1.3-1.7-1.2c-0.8,0.1-1.4,0.9-1.3,1.6l0.8,5.4
			L72.2,55c-1.8-0.2-3.9,0.5-5.1,1.7L51.9,70.9c-1.8,1.7-1.8,4.4,0,6.1L66,90.3c1.8,1.7,4.7,1.7,6.5,0L87.7,76
			C89,74.8,89.7,72.9,89.5,71.2z M78.5,61.3c0.1-0.1,0.2-0.1,0.3-0.2l0.4,2.5c0.1,0.3,0.2,0.6,0.4,0.8c0.3,0.3,0.8,0.5,1.3,0.4
			c0.8-0.1,1.4-0.8,1.3-1.6l-0.4-2.5c0.4,0.1,0.7,0.4,1,0.6c1.2,1.1,1.2,2.9,0,4.1c-1.2,1.1-3.1,1.1-4.3,0
			C77.3,64.2,77.3,62.4,78.5,61.3z M71.1,65.2l1.6,1.5l-3.2,14.1l-1.6-1.5L71.1,65.2z M67.3,74.7c-0.7,0.7-1.5,1-2.3,1
			c-0.8,0-1.5-0.3-2.2-0.9c-0.7-0.7-1-1.4-1-2.2c0-0.8,0.4-1.6,1.2-2.3c0.7-0.7,1.5-1,2.3-1.1c0.8,0,1.5,0.3,2.2,0.9
			c0.7,0.7,1,1.4,1,2.2C68.4,73.2,68,74,67.3,74.7z M73.3,71.3c0.7-0.7,1.5-1,2.3-1.1c0.8,0,1.5,0.3,2.2,0.9c0.7,0.7,1,1.4,1,2.2
			c0,0.8-0.4,1.6-1.2,2.3c-0.7,0.7-1.4,1-2.3,1c-0.8,0-1.5-0.3-2.2-0.9c-0.7-0.7-1-1.4-1-2.2C72.1,72.8,72.5,72,73.3,71.3z M86.6,75
			L71.4,89.2c-1.2,1.1-3.2,1.1-4.4,0L52.9,76c-1.2-1.1-1.2-3,0-4.1l15.2-14.2c0.9-0.9,2.6-1.4,3.9-1.3l6.1,0.6l0.2,1.5l-6.5-0.7
			c-0.8-0.1-2,0.3-2.6,0.9L54,73c-0.6,0.6-0.6,1.5,0,2l14.1,13.2c0.6,0.6,1.6,0.6,2.2,0L85.5,74c0.6-0.6,1-1.7,0.9-2.4l-1.3-10.9
			c-0.1-0.8-0.9-1.5-1.7-1.6l-2-0.2l-0.2-1.5l2.4,0.2c0.7,0.1,1.4,0.4,2,1c0.6,0.5,0.9,1.2,1,1.9L88,71.4
			C88.1,72.6,87.6,74.1,86.6,75z M65.4,71c-0.4,0.1-0.8,0.3-1.2,0.6c-0.9,0.8-1,1.5-0.4,2c0.6,0.6,1.3,0.5,2.1-0.3
			c0.9-0.8,1-1.5,0.4-2.1C66.1,71.1,65.8,71,65.4,71z M76.3,74.4c0.9-0.8,1-1.5,0.4-2.1c-0.6-0.5-1.3-0.4-2.1,0.4
			c-0.8,0.8-1,1.5-0.4,2C74.8,75.2,75.5,75.1,76.3,74.4z"/>
	</g>
</g>
</svg>
