<?xml version="1.0" encoding="utf-8"?>
<!-- Generator: Adobe Illustrator 18.1.0, SVG Export Plug-In . SVG Version: 6.00 Build 0)  -->
<svg version="1.1" id="Layer_1" xmlns="http://www.w3.org/2000/svg" xmlns:xlink="http://www.w3.org/1999/xlink" x="0px" y="0px"
	 viewBox="0 0 140 140" enable-background="new 0 0 140 140" xml:space="preserve">
<g opacity="0.1">
	<path fill="#FFFFFF" d="M70,1c38.1,0,69,31,69,69s-31,69-69,69c-38.1,0-69-31-69-69S32,1,70,1 M70,0C31.4,0,0,31.4,0,70
		c0,38.7,31.4,70,70,70s70-31.4,70-70C140.1,31.4,108.7,0,70,0L70,0z"/>
</g>
<linearGradient id="SVGID_1_" gradientUnits="userSpaceOnUse" x1="123.5166" y1="97.2835" x2="16.5459" y2="42.7792">
	<stop  offset="0" style="stop-color:#9E8630"/>
	<stop  offset="1" style="stop-color:#ECE281"/>
</linearGradient>
<path fill="url(#SVGID_1_)" d="M70,10.1c33.2,0,60,26.8,60,60c0,33.1-26.9,60-60,60c-33.2,0-60-26.8-60-60
	C10,36.9,36.9,10.1,70,10.1z"/>
<g>
	<g>
		<path d="M82.9,55.8c0.3-1.1,0.3-2.9-1.8-5C80,49.6,78.8,49,77.5,49c-3.7,0-6.3,5.2-7.6,8.7C68.6,54.2,66,49,62.3,49
			c-1.3,0-2.5,0.6-3.6,1.7c-2.1,2.1-2.1,3.9-1.8,5c1.4,4.5,10.7,6.3,12.6,6.6c0.1,0,0.1,0,0.2,0c0.1,0,0.2,0,0.2,0
			c0.1,0,0.2,0,0.2,0c0.1,0,0.1,0,0.2,0C72.2,62.1,81.5,60.2,82.9,55.8z M59.3,55c-0.2-0.7,0.2-1.5,1.1-2.4c0.7-0.7,1.3-1,1.9-1
			c2,0,4.2,4.1,5.5,7.8C64.1,58.5,59.9,56.8,59.3,55z M80.5,55c-0.6,1.8-4.8,3.5-8.5,4.4c1.2-3.4,3.4-7.8,5.5-7.8
			c0.6,0,1.2,0.3,1.9,1C80.3,53.5,80.7,54.3,80.5,55z M53,71.8h15.3V64H53V71.8z M71.7,64v7.9H87V64H71.7z M54.7,91h13.6V73.6H54.7
			V91z M71.7,91h13.6V73.6H71.7V91z"/>
	</g>
</g>
</svg>
