<?xml version="1.0" encoding="utf-8"?>
<!-- Generator: Adobe Illustrator 16.0.0, SVG Export Plug-In . SVG Version: 6.00 Build 0)  -->
<!DOCTYPE svg PUBLIC "-//W3C//DTD SVG 1.1//EN" "http://www.w3.org/Graphics/SVG/1.1/DTD/svg11.dtd">
<svg version="1.1" id="Layer_1" xmlns="http://www.w3.org/2000/svg" xmlns:xlink="http://www.w3.org/1999/xlink" x="0px" y="0px"
	 width="90px" height="7px" viewBox="0 0 90 7" enable-background="new 0 0 90 7" xml:space="preserve">
<path fill-rule="evenodd" clip-rule="evenodd" fill="#D3A02A" d="M86.5,0C88.433,0,90,1.567,90,3.5S88.433,7,86.5,7
	C84.566,7,83,5.434,83,3.5S84.566,0,86.5,0z"/>
<path fill-rule="evenodd" clip-rule="evenodd" fill="#D3A02A" d="M3.5,0C5.433,0,7,1.567,7,3.5S5.433,7,3.5,7C1.566,7,0,5.434,0,3.5
	S1.566,0,3.5,0z"/>
<line fill="none" x1="7" y1="3.5" x2="77.711" y2="-67.21"/>
<line fill="none" x1="83" y1="3.5" x2="183" y2="3.5"/>
<line fill="none" stroke="#D3A02A" stroke-miterlimit="10" x1="7" y1="3.5" x2="83" y2="3.5"/>
</svg>
