<?xml version="1.0" encoding="utf-8"?>
<!-- Generator: Adobe Illustrator 16.0.0, SVG Export Plug-In . SVG Version: 6.00 Build 0)  -->
<!DOCTYPE svg PUBLIC "-//W3C//DTD SVG 1.1//EN" "http://www.w3.org/Graphics/SVG/1.1/DTD/svg11.dtd">
<svg version="1.1" id="Layer_1" xmlns="http://www.w3.org/2000/svg" xmlns:xlink="http://www.w3.org/1999/xlink" x="0px" y="0px"
	 width="270px" height="67.598px" viewBox="0 0 270 67.598" enable-background="new 0 0 270 67.598" xml:space="preserve">
<g>
	<defs>
		<rect id="SVGID_1_" y="-0.001" width="270" height="67.6"/>
	</defs>
	<clipPath id="SVGID_2_">
		<use xlink:href="#SVGID_1_"  overflow="visible"/>
	</clipPath>
	<path clip-path="url(#SVGID_2_)" fill="#5C4621" d="M92.917,17.339c-0.459,0.04-0.885,0.032-1.302-0.004
		c-0.107-0.013-0.216-0.022-0.319-0.029l-0.272-0.018v6.751l-1.043,0.033c-2.457,0.078-4.716,0.08-7.233,0
		c-0.358-0.011-0.718-0.024-1.08-0.036V17.29l-0.271,0.016c-0.141,0.009-0.276,0.021-0.406,0.033
		c-0.457,0.04-0.885,0.032-1.303-0.004c-0.107-0.013-0.216-0.022-0.318-0.029l-0.273-0.018v16.575l0.273-0.018
		c0.103-0.008,0.211-0.018,0.318-0.029c0.418-0.038,0.846-0.044,1.303-0.004c0.13,0.011,0.266,0.022,0.406,0.033l0.271,0.016v-8.084
		c0.364-0.011,0.724-0.021,1.084-0.033c2.48-0.079,4.755-0.079,7.229,0l1.043,0.033v8.087l0.272-0.018
		c0.103-0.008,0.211-0.018,0.319-0.029c0.417-0.038,0.846-0.044,1.302-0.004c0.13,0.011,0.266,0.022,0.406,0.033l0.271,0.016V17.29
		l-0.271,0.016C93.183,17.315,93.047,17.326,92.917,17.339"/>
	<path clip-path="url(#SVGID_2_)" fill="#5C4621" d="M102.968,16.954l-7.556,16.928l0.433-0.04c0.084-0.007,0.166-0.016,0.248-0.025
		c0.321-0.04,0.669-0.046,1.036-0.007c0.115,0.012,0.234,0.025,0.365,0.035l0.201,0.015l0.061-0.194
		c0.611-1.982,1.368-3.879,2.099-5.714l0.174-0.435h5.61c0.786,1.798,1.588,3.87,2.387,6.159l0.063,0.181l0.194-0.01
		c0.126-0.009,0.256-0.019,0.383-0.028c0.491-0.04,1.018-0.046,1.569-0.004c0.155,0.011,0.312,0.023,0.479,0.032l0.41,0.021
		l-7.283-16.912H102.968z M105.065,26.022h-4.381l2.172-5.097L105.065,26.022z"/>
	<path clip-path="url(#SVGID_2_)" fill="#5C4621" d="M125.418,18.771c-1.634-1.365-3.525-1.477-5.323-1.477
		c-0.267,0-0.533,0.002-0.802,0.004c-0.269,0.002-0.538,0.007-0.808,0.007h-5.577v16.468h4.825c2.284,0,5.128,0,7.246-1.845
		c2.045-1.798,3.04-4.125,3.04-7.105C128.019,22.306,127.095,20.155,125.418,18.771 M121.977,31.674
		c-0.898,0.453-2.1,0.667-3.785,0.664c-0.825,0-1.66-0.049-2.396-0.096l-0.314-0.018V18.745c0.328-0.009,0.655-0.022,0.977-0.036
		c0.594-0.026,1.158-0.049,1.719-0.049c5.126,0,7.032,1.767,7.032,6.517C125.21,28.416,124.124,30.602,121.977,31.674"/>
	<path clip-path="url(#SVGID_2_)" fill="#5C4621" d="M138.707,16.952c-5.256,0-8.926,3.546-8.926,8.622
		c0,5.115,3.567,8.552,8.88,8.552c5.491,0,9.183-3.58,9.183-8.903C147.843,19.51,143.254,16.952,138.707,16.952 M145.036,25.42
		c0.059,1.602-0.594,4.066-2.165,5.695c-1.104,1.146-2.5,1.728-4.142,1.728c-3.732,0-6.142-2.743-6.142-6.988
		c0-4.699,2.432-7.617,6.355-7.617c1.843,0,3.591,0.813,4.673,2.174C144.819,21.964,144.969,23.599,145.036,25.42"/>
	<path clip-path="url(#SVGID_2_)" fill="#5C4621" d="M163.405,16.953c-5.438,0-9.091,3.428-9.091,8.528
		c0,5.331,3.26,8.644,8.504,8.644c1.484,0,3.612-0.239,5.32-1.377l0.103-0.071l0.176-2.211l-0.468,0.397
		c-0.358,0.306-2.288,1.838-4.802,1.838c-3.604,0-6.025-2.864-6.025-7.126c0-3.331,1.621-7.222,6.189-7.222
		c2.311,0,3.957,1.513,4.274,1.917l0.091,0.118l0.491-0.071l0.034-0.177c0.103-0.535,0.237-1.162,0.478-1.758l0.094-0.232
		l-0.229-0.098C166.882,17.332,165.106,16.953,163.405,16.953"/>
	<path clip-path="url(#SVGID_2_)" fill="#5C4621" d="M179.64,32.136l0.029-0.327l-0.324,0.051c-0.728,0.117-1.422,0.186-2.125,0.208
		c-0.35,0.011-0.699,0.027-1.051,0.042c-0.959,0.04-1.947,0.079-2.927,0.058v-6.337h3.377c0.393,0,0.787,0.029,1.169,0.06
		c0.301,0.024,0.603,0.045,0.908,0.056l0.288,0.009l-0.025-0.287c-0.009-0.111-0.022-0.211-0.036-0.305
		c-0.017-0.121-0.032-0.229-0.032-0.329c0-0.136,0.021-0.269,0.044-0.398c0.009-0.061,0.018-0.121,0.024-0.18l0.037-0.296
		l-0.3,0.009c-0.306,0.012-0.607,0.034-0.908,0.059c-0.382,0.028-0.776,0.058-1.169,0.058h-3.377v-5.37h1.544l2.34,0.047
		c0.65,0.021,1.326,0.103,2.068,0.252l0.338,0.067l-0.034-0.344c-0.009-0.081-0.019-0.161-0.029-0.243
		c-0.019-0.145-0.039-0.29-0.039-0.435c0-0.134,0.019-0.261,0.036-0.397c0.012-0.089,0.023-0.182,0.032-0.282l0.027-0.278h-8.856
		v16.47h8.998l-0.027-0.281c-0.009-0.081-0.019-0.161-0.029-0.243c-0.021-0.145-0.042-0.29-0.042-0.435
		c0-0.136,0.019-0.261,0.037-0.397C179.62,32.33,179.631,32.236,179.64,32.136"/>
	<path clip-path="url(#SVGID_2_)" fill="#5C4621" d="M195.272,17.339c-0.283,0.04-0.545,0.031-0.792-0.004
		c-0.068-0.009-0.139-0.019-0.21-0.029l-0.283-0.029v11.953L182.99,17.304h-1.283v16.572l0.285-0.033
		c0.068-0.007,0.14-0.016,0.21-0.029c0.244-0.034,0.509-0.042,0.792-0.002c0.08,0.012,0.167,0.024,0.256,0.031l0.281,0.031v-12.51
		l9.915,10.969c0.498,0.547,0.961,1.106,1.203,1.414l0.078,0.099h1.082V17.278l-0.281,0.027
		C195.439,17.316,195.355,17.328,195.272,17.339"/>
	<path clip-path="url(#SVGID_2_)" fill="#5C4621" d="M210.635,18.699c-0.019-0.145-0.039-0.29-0.039-0.435
		c0-0.136,0.019-0.263,0.037-0.397c0.011-0.089,0.022-0.183,0.034-0.283l0.024-0.278H198.04l0.025,0.278
		c0.009,0.101,0.021,0.194,0.034,0.283c0.018,0.135,0.036,0.262,0.036,0.397c0,0.145-0.021,0.29-0.041,0.435
		c-0.012,0.081-0.021,0.161-0.029,0.243l-0.03,0.31l0.311-0.033c1.399-0.147,2.737-0.269,4.852-0.277v14.969l0.274-0.018
		c0.103-0.01,0.21-0.02,0.317-0.029c0.418-0.038,0.847-0.047,1.301-0.007c0.133,0.014,0.268,0.025,0.406,0.036l0.272,0.016V18.942
		c1.598,0.009,3.148,0.103,4.613,0.277l0.315,0.038l-0.029-0.315C210.656,18.859,210.647,18.78,210.635,18.699"/>
	<path clip-path="url(#SVGID_2_)" fill="#5C4621" d="M223.381,31.534l-4.565-5.789c2.888-0.636,4.6-2.342,4.6-4.622
		c0-2.569-1.787-3.818-5.458-3.818h-5.225v16.559l0.274-0.021c0.103-0.007,0.21-0.016,0.317-0.026
		c0.42-0.039,0.847-0.046,1.304-0.007c0.13,0.013,0.265,0.024,0.406,0.033l0.271,0.019v-7.844h0.517l1.792,2.102l2.763,3.584
		c0.49,0.654,0.956,1.31,1.473,2.032l0.082,0.117l0.139-0.009c0.131-0.007,0.268-0.016,0.407-0.026
		c0.575-0.039,1.15-0.046,1.737-0.004c0.169,0.013,0.342,0.024,0.524,0.031l0.546,0.029l-0.785-1.035L223.381,31.534z
		 M220.818,21.404c0,1.583-1.046,2.742-2.795,3.1c-0.509,0.1-1.137,0.152-1.865,0.152c-0.338,0-0.635-0.012-0.852-0.023V18.67
		c0.544-0.023,1.146-0.047,1.729-0.047c0.616,0,1.094,0.026,1.42,0.08C220.023,18.953,220.818,19.863,220.818,21.404"/>
	<path clip-path="url(#SVGID_2_)" fill="#5C4621" d="M233.446,16.952c-5.254,0-8.925,3.546-8.925,8.622
		c0,5.115,3.566,8.552,8.879,8.552c5.491,0,9.183-3.58,9.183-8.903C242.583,19.51,237.994,16.952,233.446,16.952 M239.774,25.42
		c0.06,1.602-0.594,4.066-2.164,5.695c-1.105,1.146-2.498,1.728-4.14,1.728c-3.734,0-6.144-2.743-6.144-6.988
		c0-4.699,2.434-7.617,6.354-7.617c1.845,0,3.593,0.813,4.673,2.174C239.557,21.964,239.71,23.599,239.774,25.42"/>
	<path clip-path="url(#SVGID_2_)" fill="#5C4621" d="M249.706,24.171c-1.787-0.704-3.326-1.309-3.326-3.212
		c0-1.441,1.132-2.488,2.696-2.488c1.251,0,2.198,0.666,2.669,1.877l0.062,0.162h0.601l0.139-0.486
		c0.155-0.557,0.307-1.086,0.534-1.583l0.08-0.17l-0.142-0.127c-0.981-0.876-2.463-1.189-3.521-1.189
		c-3.314,0-5.456,1.865-5.456,4.755c0,2.951,2.176,3.806,4.096,4.562c1.735,0.683,3.237,1.271,3.237,3.17
		c0,1.776-1.319,3.168-3.002,3.168c-1.539,0-2.575-0.671-3.58-2.315l-0.07-0.123h-0.604l-0.029,0.221
		c-0.089,0.66-0.201,1.363-0.434,2.037l-0.051,0.145l0.104,0.111c0.903,0.984,2.927,1.442,4.006,1.442
		c3.563,0,6.044-2.303,6.044-5.597C253.758,25.768,251.605,24.919,249.706,24.171"/>
	<path clip-path="url(#SVGID_2_)" fill="#5C4621" d="M262.717,16.954h-0.872l-7.558,16.928l0.434-0.04
		c0.085-0.007,0.167-0.016,0.247-0.025c0.322-0.04,0.669-0.046,1.036-0.007c0.114,0.012,0.233,0.025,0.365,0.035l0.201,0.015
		l0.062-0.194c0.609-1.982,1.368-3.879,2.099-5.714l0.173-0.435h5.61c0.785,1.798,1.589,3.87,2.388,6.159l0.063,0.181l0.194-0.01
		c0.126-0.009,0.254-0.019,0.384-0.028c0.491-0.04,1.016-0.046,1.568-0.004c0.153,0.011,0.311,0.023,0.479,0.032L270,33.866
		L262.717,16.954z M263.943,26.022h-4.381l2.171-5.097L263.943,26.022z"/>
	<path clip-path="url(#SVGID_2_)" fill="#77777A" d="M86.273,54.553c-0.798,0.347-1.684,0.541-2.556,0.541
		c-2.672,0-4.625-1.901-4.625-4.481c0-2.493,1.992-4.404,4.584-4.404c0.464,0,0.952,0.062,1.479,0.189
		c0.68,0.167,0.926,0.27,1.488,0.619v1.36c-0.448-0.295-0.551-0.36-0.794-0.488c-0.618-0.309-1.312-0.489-2.018-0.489
		c-1.95,0-3.427,1.4-3.427,3.249c0,0.797,0.294,1.541,0.872,2.169c0.68,0.747,1.466,1.08,2.518,1.08c0.68,0,1-0.063,1.758-0.384
		v-2.057h-1.67v-1.169h2.904v4.022C86.555,54.425,86.39,54.503,86.273,54.553"/>
	<path clip-path="url(#SVGID_2_)" fill="none" stroke="#77777A" stroke-width="0.096" stroke-miterlimit="10" d="M86.273,54.553
		c-0.798,0.347-1.684,0.541-2.556,0.541c-2.672,0-4.625-1.901-4.625-4.481c0-2.493,1.992-4.404,4.584-4.404
		c0.464,0,0.952,0.062,1.479,0.189c0.68,0.167,0.926,0.27,1.488,0.619v1.36c-0.448-0.295-0.551-0.36-0.794-0.488
		c-0.618-0.309-1.312-0.489-2.018-0.489c-1.95,0-3.427,1.4-3.427,3.249c0,0.797,0.294,1.541,0.872,2.169
		c0.68,0.747,1.466,1.08,2.518,1.08c0.68,0,1-0.063,1.758-0.384v-2.057h-1.67v-1.169h2.904v4.022
		C86.555,54.425,86.39,54.503,86.273,54.553z"/>
	<path clip-path="url(#SVGID_2_)" fill="#77777A" d="M104.352,54.953l-0.838-2.055H99.83l-0.809,2.055h-1.386l3.453-8.566h1.105
		l3.582,8.566H104.352z M101.653,48.159l-1.361,3.543h2.773L101.653,48.159z"/>
	<path clip-path="url(#SVGID_2_)" fill="none" stroke="#77777A" stroke-width="0.096" stroke-miterlimit="10" d="M104.352,54.953
		l-0.838-2.055H99.83l-0.809,2.055h-1.386l3.453-8.566h1.105l3.582,8.566H104.352z M101.653,48.159l-1.361,3.543h2.773
		L101.653,48.159z"/>
	<path clip-path="url(#SVGID_2_)" fill="#77777A" d="M121.271,54.951l-2.298-3.568h-1.103v3.568h-1.31v-8.564h1.424
		c0.502,0,0.86,0.014,1.055,0.014c0.319,0.012,0.64,0.037,0.949,0.104c1.117,0.23,1.889,1.205,1.889,2.386
		c0,0.657-0.257,1.299-0.683,1.721c-0.255,0.272-0.449,0.375-0.95,0.514l2.556,3.827H121.271z M120.09,47.836
		c-0.179-0.116-0.397-0.191-0.629-0.217c-0.243-0.039-0.681-0.064-0.951-0.064h-0.64v2.696h0.565h0.423
		c1.194,0,1.747-0.424,1.747-1.349C120.605,48.441,120.411,48.028,120.09,47.836"/>
	<path clip-path="url(#SVGID_2_)" fill="none" stroke="#77777A" stroke-width="0.096" stroke-miterlimit="10" d="M121.271,54.951
		l-2.298-3.568h-1.103v3.568h-1.31v-8.564h1.424c0.502,0,0.86,0.014,1.055,0.014c0.319,0.012,0.64,0.037,0.949,0.104
		c1.117,0.23,1.889,1.205,1.889,2.386c0,0.657-0.257,1.299-0.683,1.721c-0.255,0.272-0.449,0.375-0.95,0.514l2.556,3.827H121.271z
		 M120.09,47.836c-0.179-0.116-0.397-0.191-0.629-0.217c-0.243-0.039-0.681-0.064-0.951-0.064h-0.64v2.696h0.565h0.423
		c1.194,0,1.747-0.424,1.747-1.349C120.605,48.441,120.411,48.028,120.09,47.836z"/>
	<path clip-path="url(#SVGID_2_)" fill="#77777A" d="M139.992,53.345c-0.386,0.489-0.86,0.886-1.399,1.145
		c-0.835,0.396-1.258,0.463-3.326,0.463h-1.669v-8.566h1.657c1.616,0,2.247,0.078,2.991,0.32c1.541,0.524,2.646,2.198,2.646,3.981
		C140.891,51.64,140.57,52.603,139.992,53.345 M138.643,48.338c-0.667-0.63-1.245-0.771-2.952-0.771h-0.809v6.176h1.064
		c1.038,0,1.555-0.101,2.12-0.384c0.937-0.477,1.5-1.516,1.5-2.735C139.567,49.713,139.248,48.905,138.643,48.338"/>
	<path clip-path="url(#SVGID_2_)" fill="none" stroke="#77777A" stroke-width="0.096" stroke-miterlimit="10" d="M139.992,53.345
		c-0.386,0.489-0.86,0.886-1.399,1.145c-0.835,0.396-1.258,0.463-3.326,0.463h-1.669v-8.566h1.657c1.616,0,2.247,0.078,2.991,0.32
		c1.541,0.524,2.646,2.198,2.646,3.981C140.891,51.64,140.57,52.603,139.992,53.345z M138.643,48.338
		c-0.667-0.63-1.245-0.771-2.952-0.771h-0.809v6.176h1.064c1.038,0,1.555-0.101,2.12-0.384c0.937-0.477,1.5-1.516,1.5-2.735
		C139.567,49.713,139.248,48.905,138.643,48.338z"/>
	<polygon clip-path="url(#SVGID_2_)" fill="#77777A" points="152.099,54.953 152.099,46.386 157.453,46.386 157.453,47.544 
		153.449,47.544 153.449,49.672 156.811,49.672 156.811,50.882 153.449,50.882 153.449,53.756 157.659,53.756 157.659,54.953 	"/>
	<polygon clip-path="url(#SVGID_2_)" fill="none" stroke="#77777A" stroke-width="0.096" stroke-miterlimit="10" points="
		152.099,54.953 152.099,46.386 157.453,46.386 157.453,47.544 153.449,47.544 153.449,49.672 156.811,49.672 156.811,50.882 
		153.449,50.882 153.449,53.756 157.659,53.756 157.659,54.953 	"/>
	<polygon clip-path="url(#SVGID_2_)" fill="#77777A" points="175.069,54.953 170.021,48.492 170.021,54.953 168.713,54.953 
		168.713,46.386 169.908,46.386 174.953,52.821 174.953,46.386 176.277,46.386 176.277,54.953 	"/>
	<polygon clip-path="url(#SVGID_2_)" fill="none" stroke="#77777A" stroke-width="0.096" stroke-miterlimit="10" points="
		175.069,54.953 170.021,48.492 170.021,54.953 168.713,54.953 168.713,46.386 169.908,46.386 174.953,52.821 174.953,46.386 
		176.277,46.386 176.277,54.953 	"/>
	<path clip-path="url(#SVGID_2_)" fill="#D49F0B" d="M33.8-0.001C15.162-0.001,0.001,15.163,0.001,33.8
		c0,18.637,15.161,33.799,33.799,33.799c18.637,0,33.799-15.162,33.799-33.799C67.599,15.163,52.437-0.001,33.8-0.001 M33.8,65.398
		c-17.424,0-31.599-14.176-31.599-31.598c0-17.423,14.175-31.598,31.599-31.598c17.423,0,31.599,14.174,31.599,31.598
		C65.399,51.222,51.223,65.398,33.8,65.398"/>
	<path clip-path="url(#SVGID_2_)" fill="#D49F0B" d="M14.516,40.729c-0.717,0-1.419-0.08-2.095-0.222
		c-0.935,1.66-1.154,3.628-0.587,5.455c1.137,3.641,5.026,5.683,8.669,4.543c0.37-0.114,0.716-0.263,1.05-0.432
		c0.002-0.002,0.004-0.005,0.007-0.009l0.004,0.004c2.902-1.468,4.437-4.824,3.535-8.036c-1.204-1.604-2.007-3.512-2.42-5.5
		C20.842,39.069,17.871,40.729,14.516,40.729"/>
	<path clip-path="url(#SVGID_2_)" fill="#D49F0B" d="M55.117,28.894c-1.466,1.896-3.757,3.121-6.327,3.121c-0.027,0-0.056,0-0.083,0
		c-3.772-0.04-6.904-2.699-7.713-6.222c-1.194-2.974-3.659-3.813-6.684-3.654c-5.328,0.276-6.607,7.362-6.607,11.069
		c0,3.71,1.186,11.146,6.607,11.495c0.908,0.06,2.628-0.173,4.084-1.002c1.627-1.073,2.608-2.87,3.229-4.911h0.994v1.203h0.011
		c0,1.986,1.618,3.605,3.605,3.605c1.987,0,3.605-1.619,3.605-3.605c0-1.529-0.959-2.835-2.305-3.358
		c-0.258,0.35-0.667,0.575-1.132,0.575c-0.778,0-1.41-0.63-1.41-1.408s0.631-1.407,1.41-1.407c0.651,0,1.191,0.439,1.354,1.037
		c1.91,0.64,3.29,2.44,3.29,4.562c0,2.628-2.117,4.768-4.735,4.809c0.587,0.447,1.122,0.959,1.585,1.532
		c1.084,0.516,2.249,0.814,3.458,0.888c2.499,0.148,4.91-0.694,6.782-2.367c1.38-1.233,2.34-2.809,2.815-4.555
		c0.038-0.158,0.076-0.313,0.11-0.471c0.105-0.481,0.183-0.975,0.213-1.478C61.521,34.167,58.947,30.257,55.117,28.894"/>
	<path clip-path="url(#SVGID_2_)" fill="#D49F0B" d="M43.237,22.255l-0.799,0.026v0.13v1.305v2.688
		c0.962,2.543,3.403,4.372,6.281,4.4c0.024,0,0.049,0.002,0.073,0.002c3.714,0,6.757-3.005,6.796-6.729
		c0.032-3.19-2.19-5.997-5.295-6.697C49.042,20.076,46.405,22.033,43.237,22.255"/>
	<path clip-path="url(#SVGID_2_)" fill="#D49F0B" d="M40.957,44.159c-0.15,0.029-0.292,0.059-0.411,0.098
		c-0.308,0.101-0.649,0.297-1.209,0.683c-1.433,0.966-3.24,1.5-5.097,1.5c-3.232,0-5.76-1.08-7.647-2.767l-0.032-0.034
		c0.096,3.055-1.545,5.954-4.267,7.417c-2.043,2.22-1.981,5.686,0.185,7.82c0.493,0.486,1.055,0.855,1.651,1.123
		c0.315,0.116,0.638,0.222,0.963,0.328c1.861,0.455,3.911-0.048,5.351-1.509c1.244-1.263,1.795-3.002,1.559-4.719
		c-0.043-0.194-0.083-0.389-0.116-0.587c-0.009-0.039-0.019-0.08-0.029-0.119c-0.596-0.214-1.026-0.778-1.026-1.449
		c0-0.854,0.693-1.546,1.546-1.546c0.854,0,1.545,0.691,1.545,1.546c0,0.601-0.343,1.114-0.843,1.37
		c0.043,0.187,0.083,0.374,0.112,0.562c0.837,3.447,3.939,6.018,7.643,6.018c4.339,0,7.869-3.529,7.869-7.869
		C48.702,47.724,45.239,44.227,40.957,44.159"/>
	<path clip-path="url(#SVGID_2_)" fill="#D49F0B" d="M14.516,39.521c3.296,0,6.174-1.819,7.713-4.504
		c-0.478,0.171-0.985,0.267-1.508,0.271h-0.02c-1.189,0-2.312-0.461-3.163-1.299c-1.765-1.738-1.79-4.584-0.061-6.34
		c0.236-0.239,0.5-0.439,0.781-0.617c-0.042-0.762,0.479-1.454,1.249-1.597c0.834-0.154,1.638,0.397,1.793,1.231
		c0.154,0.837-0.398,1.639-1.233,1.793c-0.472,0.089-0.93-0.056-1.27-0.344c-0.163,0.114-0.319,0.239-0.46,0.381
		c-1.263,1.281-1.242,3.36,0.049,4.631c0.621,0.612,1.441,0.949,2.313,0.949h0.009c0.593-0.002,1.148-0.17,1.639-0.46v-0.02
		c-0.004-0.117-0.014-0.233-0.014-0.351c0-0.29,0.016-0.584,0.032-0.876l0.111-1.232c0.248-1.912,0.836-3.788,1.776-5.445
		c-2.008-0.379-3.794-1.381-5.155-2.798c-1.381-0.838-2.961-1.284-4.584-1.284c-3.097,0-5.828,1.604-7.422,4.026
		c-0.692,2.273-1.1,4.669-1.188,7.147C6.89,36.649,10.371,39.521,14.516,39.521"/>
	<path clip-path="url(#SVGID_2_)" fill="#D49F0B" d="M24.968,24.583c0.311-0.435,0.643-0.856,1.013-1.244l1.437-1.243
		c1.782-1.302,4.036-2.114,6.822-2.114c1.684,0,3.196,0.444,4.501,1.316c0.35,0.241,0.647,0.446,0.97,0.446
		c0.574,0,1.368-0.87,1.993-1.626l0.111-0.136h0.624l-0.003,0.372v0.721l0.74-0.024c1.901-0.134,3.657-1.01,4.921-2.464
		c1.265-1.457,1.883-3.318,1.751-5.239c-0.075-1.069-0.386-2.081-0.892-2.99c-2.414-1.565-5.084-2.769-7.939-3.531
		c-1.475,0.339-2.805,1.124-3.819,2.291c-1.216,1.4-1.831,3.174-1.756,5.021c0.009,0.044,0.025,0.089,0.036,0.134
		c0.647,0.185,1.122,0.774,1.122,1.479c0,0.854-0.693,1.546-1.546,1.546c-0.854,0-1.545-0.692-1.545-1.546
		c0-0.556,0.297-1.04,0.736-1.312h-0.002c-0.002-0.044,0-0.088-0.002-0.135c-0.874-3.72-4.212-6.502-8.196-6.502
		c-4.648,0-8.428,3.781-8.428,8.428C17.615,20.515,20.828,24.052,24.968,24.583"/>
	<path clip-path="url(#SVGID_2_)" fill="#D49F0B" d="M56.795,24.093c-0.015,1.357-0.37,2.635-0.982,3.752
		c2.711,1.058,4.825,3.259,5.905,5.933c-0.004-9.021-4.294-17.038-10.939-22.137c0.14,0.524,0.234,1.066,0.271,1.62
		c0.072,1.038-0.054,2.041-0.336,2.983C54.289,17.129,56.834,20.387,56.795,24.093"/>
	<path clip-path="url(#SVGID_2_)" fill="#D49F0B" d="M51.917,48.462c-0.21,0-0.424-0.007-0.636-0.019
		c-0.788-0.048-1.557-0.188-2.305-0.404c0.591,1.205,0.933,2.555,0.933,3.981c0,2.331-0.89,4.454-2.337,6.064
		c5.015-2.852,9.059-7.206,11.518-12.457c-0.047,0.044-0.088,0.094-0.137,0.137C56.993,47.517,54.514,48.462,51.917,48.462"/>
	<path clip-path="url(#SVGID_2_)" fill="#D49F0B" d="M20.318,51.807c-0.625,0.147-1.251,0.224-1.871,0.224
		c-3.462,0-6.681-2.233-7.766-5.71c-0.638-2.051-0.428-4.261,0.551-6.153c-2.191-0.761-4.042-2.256-5.26-4.191
		c0.749,9.71,6.458,18.027,14.6,22.415C19.369,56.384,19.28,53.886,20.318,51.807"/>
	<path clip-path="url(#SVGID_2_)" fill="#D49F0B" d="M33.029,56.64c-0.301,1.118-0.879,2.166-1.725,3.025
		c-0.725,0.737-1.579,1.265-2.488,1.603c1.618,0.292,3.282,0.452,4.982,0.452c2.092,0,4.126-0.238,6.085-0.672
		C36.967,60.741,34.461,59.048,33.029,56.64"/>
	<path clip-path="url(#SVGID_2_)" fill="#D49F0B" d="M17.622,20.903c-0.772-1.385-1.213-2.976-1.213-4.671
		c0-2.09,0.676-4.024,1.812-5.604c-4.384,2.954-7.881,7.121-10.018,12.018c1.733-1.397,3.926-2.24,6.315-2.24
		C15.579,20.406,16.623,20.58,17.622,20.903"/>
	<path clip-path="url(#SVGID_2_)" fill="#D49F0B" d="M34.518,11.654c0.328-1.215,0.919-2.352,1.767-3.329
		c0.725-0.832,1.588-1.501,2.541-1.985c-1.631-0.297-3.311-0.461-5.026-0.461c-2.275,0-4.484,0.279-6.599,0.791
		C30.364,7.054,33.062,8.968,34.518,11.654"/>
</g>
</svg>
