<?xml version="1.0" encoding="utf-8"?>
<!-- Generator: Adobe Illustrator 16.0.0, SVG Export Plug-In . SVG Version: 6.00 Build 0)  -->
<!DOCTYPE svg PUBLIC "-//W3C//DTD SVG 1.1//EN" "http://www.w3.org/Graphics/SVG/1.1/DTD/svg11.dtd">
<svg version="1.1" id="Layer_1" xmlns="http://www.w3.org/2000/svg" xmlns:xlink="http://www.w3.org/1999/xlink" x="0px" y="0px"
	 width="55px" height="45px" viewBox="0 -0.5 55 45" enable-background="new 0 -0.5 55 45" xml:space="preserve">
<path fill="#686868" d="M0-0.5h55v45H0V-0.5z"/>
<path fill="#FFFFFF" d="M16.91,27.994c-0.107,0-0.215-0.043-0.296-0.129c-0.164-0.172-0.164-0.451,0-0.624l10.577-11.118
	c0.078-0.082,0.185-0.129,0.296-0.129l0,0c0.111,0,0.218,0.047,0.297,0.129l10.573,11.118c0.164,0.173,0.164,0.452,0,0.624
	s-0.43,0.172-0.594,0L27.487,17.059l-10.28,10.807C17.125,27.951,17.018,27.994,16.91,27.994z"/>
</svg>
